<?xml version="1.0" encoding="UTF-8" standalone="no"?>
<!DOCTYPE svg PUBLIC "-//W3C//DTD SVG 20010904//EN" "http://www.w3.org/TR/2001/REC-SVG-20010904/DTD/svg10.dtd">

<!--
Kurze Bemerkung zu SVG:
Warum SVG?
Es ist eine vektorbasierte Grafik. Das heißt, man kann sie beliebig groß und klein machen,
ohne, dass sie unscharf wird. Die Elemente sind relativ selbsterklärend, Sachen, die man
verändern kann, wurden angegeben.
-->

<svg xmlns="http://www.w3.org/2000/svg" width="304" height="506">
	
	<title>Gefängnisfeld</title>
	
	 <!--
		Fixer Teil (plz. don't edit dis)
		 (Fast) originale Monopoly-Schriftfarbe: #231f20
		 Aktuelle Hintergrundfarbe: #f7f7cf (bewusst nicht weiß)
		 
		 Farben der Felder:
		 Gefängnis-Orange	#ca4a24
		 Polizist-Blau		#428db7
		 Los-Pfeil			#ed1c24
		 Frei-Parken-Rot	#ee2d2b
		 Outlines/Sonstiges	#231f20

	 -->
	 
	<rect id = "Feld Rahmen"
		x="0" y="0" width="506" height="506" fill="#231f20"
	/>
	<rect id = "Feld"
		x="2" y="2" width="502" height="502" fill="#f7f7cf"
	/>
	<rect id = "Farbe Rahmen"
		x="120" y="2" width="384" height="384" fill="#000000"
	/>

	<rect id = "Gefängnis Hintergrund"
		x="124" y="2" width="380" height="380" fill="#ca4a24"
	/>
	
	<rect id = "GefängnisRahmen"
		x="194" y="72" width="240" height="240" fill="#231f20"
		transform = "rotate(-45 314 192)"
	/>
	
	<rect id = "GefängnisWeiss"
		x="200" y="78" width="228" height="228" fill="#f7f7cf"
		transform = "rotate(-45 314 192)"
	/>
	
	<path id="Gefangener"
        fill="#231f20"
        d="M 290.95,144.00
           C 292.50,141.09 293.31,136.63 296.14,135.03
             300.22,132.72 303.14,136.39 307.00,135.90
             307.00,135.90 321.00,130.34 321.00,130.34
             327.81,127.97 336.77,125.74 344.00,126.02
             347.32,126.15 351.87,127.38 350.34,131.86
             349.28,134.97 345.69,134.91 343.00,135.28
             334.48,136.46 332.28,136.75 324.00,139.69
             302.33,147.40 297.87,158.40 286.80,177.00
             280.82,187.03 279.42,196.27 269.00,194.00
             271.33,199.31 270.38,199.64 269.00,205.00
             270.08,204.46 270.53,203.96 271.98,203.65
             273.24,203.38 274.47,203.49 275.49,204.19
             279.57,206.75 276.22,211.73 275.49,215.00
             275.49,215.00 274.41,220.00 274.41,220.00
             273.16,223.26 269.47,226.52 267.00,229.00
             262.50,233.51 258.19,238.29 253.00,242.00
             258.42,230.52 268.65,228.88 264.00,213.00
             262.08,217.45 256.47,233.16 250.22,231.16
             247.52,230.29 247.39,227.49 243.87,225.87
             239.42,223.84 220.84,220.40 216.00,221.15
             209.15,222.20 200.88,233.94 195.13,238.69
             195.13,238.69 189.50,233.69 189.50,233.69
             195.55,228.24 210.30,211.17 217.00,208.00
             218.07,209.27 218.78,210.35 220.46,208.54
             222.16,206.71 221.77,203.77 223.17,201.00
             225.07,197.26 228.67,194.39 232.00,192.00
             232.00,192.00 232.00,198.00 232.00,198.00
             232.00,198.00 234.00,198.00 234.00,198.00
             234.00,198.00 235.02,189.00 235.02,189.00
             235.02,189.00 241.55,182.29 241.55,182.29
             241.55,182.29 253.00,171.00 253.00,171.00
             253.00,171.00 254.00,181.00 254.00,181.00
             254.03,171.00 254.38,167.19 263.00,161.00
             263.00,161.00 264.00,166.00 264.00,166.00
             269.98,160.91 267.06,159.37 269.98,154.00
             272.28,149.78 276.73,146.02 281.00,144.00
             280.82,152.39 276.62,158.61 279.00,167.00
             280.91,160.45 287.55,150.36 290.95,144.00 Z
           M 274.00,135.00
           C 271.09,141.15 258.72,152.91 253.00,157.00
             253.00,157.00 252.00,148.00 252.00,148.00
             244.14,150.21 238.57,146.98 231.00,146.09
             231.00,146.09 221.00,146.09 221.00,146.09
             221.00,146.09 221.00,148.00 221.00,148.00
             227.14,148.50 238.40,151.02 244.00,153.47
             246.20,154.43 249.80,156.22 249.80,159.04
             249.80,162.01 246.11,164.47 244.00,166.00
             236.79,159.80 221.49,155.95 212.00,157.00
             218.78,160.20 227.95,160.42 233.98,164.08
             241.45,168.61 238.55,173.86 232.00,177.00
             227.23,169.34 218.21,169.06 210.00,167.58
             207.72,167.17 203.28,165.96 201.19,166.69
             198.62,167.57 197.91,169.75 197.00,172.00
             207.54,172.86 219.44,175.49 229.00,180.00
             223.73,191.01 219.21,185.14 201.00,182.06
             198.55,181.67 194.61,180.65 192.41,182.06
             190.30,183.37 188.92,187.70 188.00,190.00
             193.62,187.04 202.27,188.35 208.00,190.97
             216.56,194.88 212.32,200.00 206.00,203.00
             200.12,196.10 195.22,199.73 190.31,196.07
             188.37,194.62 187.80,192.16 187.00,190.00
             187.00,190.00 176.00,216.00 176.00,216.00
             173.08,214.61 169.53,212.56 168.99,209.00
             168.61,206.52 171.50,201.46 172.58,199.00
             172.58,199.00 183.25,176.00 183.25,176.00
             187.57,167.30 189.41,161.86 197.00,155.18
             201.93,150.84 206.16,149.51 208.73,147.21
             211.47,144.75 211.49,142.51 213.51,140.22
             216.49,136.85 219.88,137.02 224.00,137.08
             224.00,137.08 235.00,137.08 235.00,137.08
             239.56,137.62 243.30,139.15 248.00,138.82
             254.94,138.33 255.49,136.71 262.00,141.00
             266.01,136.55 268.03,135.35 274.00,135.00 Z
           M 399.91,158.00
           C 402.42,160.73 406.82,166.03 406.36,170.00
             405.96,173.41 402.57,176.30 400.00,178.24
             395.81,181.39 383.73,188.89 379.00,191.00
             379.34,186.96 380.79,177.50 383.51,174.61
             384.75,173.29 388.34,171.09 390.00,170.00
             385.61,171.00 374.59,175.58 371.09,174.36
             365.93,172.56 365.41,165.59 363.99,163.17
             362.41,160.48 357.57,156.92 355.00,155.00
             355.00,155.00 363.55,146.55 363.55,146.55
             363.55,146.55 374.00,135.00 374.00,135.00
             374.00,135.00 399.91,158.00 399.91,158.00 Z
           M 302.66,161.86
           C 300.66,155.99 311.96,152.26 316.41,155.56
             317.70,156.52 321.85,160.76 322.36,162.20
             323.71,166.00 320.56,165.29 324.00,172.00
             324.00,172.00 317.00,178.00 317.00,178.00
             317.00,178.00 317.00,170.00 317.00,170.00
             314.32,168.79 303.44,164.16 302.66,161.86 Z
           M 258.79,188.68
           C 258.79,188.68 239.00,204.99 239.00,204.99
             235.48,207.95 233.21,208.81 231.00,213.00
             234.78,214.00 248.40,217.96 251.37,215.99
             257.38,212.00 257.09,195.93 269.00,194.00
             267.43,183.80 275.23,176.70 278.00,167.00
             268.91,173.82 262.30,185.22 258.79,188.68 Z
           M 352.73,172.04
           C 352.74,168.77 356.64,165.87 359.67,167.73
             360.73,168.38 361.85,169.92 362.41,171.02
             365.41,176.86 359.69,177.34 358.58,180.53
             357.97,182.30 360.33,188.67 354.98,190.83
             352.00,192.04 349.81,188.61 347.81,186.86
             340.54,180.50 339.27,177.50 342.00,168.00
             342.00,168.00 356.00,179.00 356.00,179.00
             354.82,177.15 352.72,174.29 352.73,172.04 Z
           M 311.00,183.00
           C 309.15,186.79 308.79,187.15 305.00,189.00
             305.00,189.00 307.00,182.00 307.00,182.00
             307.00,182.00 311.00,183.00 311.00,183.00 Z
           M 318.51,195.00
           C 323.08,188.93 320.78,185.90 329.00,182.00
             331.22,184.64 335.12,187.21 334.58,191.02
             334.04,194.77 328.65,199.27 326.04,202.00
             326.04,202.00 310.28,220.00 310.28,220.00
             305.02,226.04 302.69,230.40 295.00,225.00
             292.24,229.90 290.36,230.48 292.00,236.00
             296.25,234.20 306.54,229.56 310.94,230.52
             315.09,231.42 317.81,238.06 309.00,240.00
             308.96,254.99 303.74,260.12 301.38,272.00
             300.58,275.99 302.03,282.66 297.77,284.72
             294.96,286.08 292.76,283.93 289.00,283.89
             289.00,283.89 282.00,284.83 282.00,284.83
             273.69,285.66 265.51,284.42 259.09,278.67
             255.74,275.67 248.43,265.70 249.70,261.00
             250.64,257.53 254.25,254.98 257.00,253.00
             257.99,263.93 265.29,274.70 277.00,275.00
             271.05,269.84 265.93,265.99 261.88,259.00
             260.62,256.84 258.68,253.56 259.41,251.00
             260.44,247.37 268.80,240.29 272.00,238.00
             272.00,238.00 294.00,262.00 294.00,262.00
             294.00,262.00 300.00,244.00 300.00,244.00
             300.00,244.00 291.00,248.63 291.00,248.63
             291.00,248.63 287.56,247.40 287.56,247.40
             287.56,247.40 280.00,234.00 280.00,234.00
             280.00,234.00 275.00,235.00 275.00,235.00
             278.01,230.80 283.13,225.55 287.00,222.06
             289.89,219.45 292.23,217.23 295.00,221.00
             299.55,217.58 314.67,200.10 318.51,195.00 Z
           M 244.00,189.00
           C 244.00,189.00 243.00,184.00 243.00,184.00
             243.00,184.00 244.00,189.00 244.00,189.00 Z
           M 301.00,193.00
           C 301.00,193.00 294.00,201.00 294.00,201.00
             292.25,194.56 293.92,191.23 301.00,193.00 Z
           M 342.28,209.28
           C 340.22,209.93 338.11,213.15 335.05,213.14
             331.69,213.13 330.82,209.71 331.53,207.00
             332.51,203.23 337.09,198.10 341.00,197.36
             346.13,196.39 349.84,201.53 356.00,202.61
             361.95,203.65 365.00,199.54 368.85,200.84
             372.61,202.11 372.01,206.20 369.69,208.61
             366.19,212.22 360.59,211.88 356.00,213.00
             358.60,224.91 344.71,235.42 338.23,225.81
             336.88,223.82 335.83,220.46 336.35,218.02
             337.27,213.86 341.91,212.52 345.00,218.02
             345.00,218.02 347.00,218.02 347.00,218.02
             347.00,218.02 351.00,211.00 351.00,211.00
             348.62,210.53 344.19,208.67 342.28,209.28 Z
           M 400.96,235.43
           C 395.98,237.96 390.64,236.35 386.00,237.39
             381.18,238.47 375.80,242.69 372.00,245.74
             369.36,247.86 362.86,253.95 359.32,251.92
             353.41,248.54 364.65,239.35 367.00,237.00
             369.72,234.28 372.71,231.04 376.00,229.07
             380.68,226.27 383.33,226.50 387.82,221.90
             394.10,215.44 399.50,197.72 410.00,199.00
             410.00,199.00 400.00,224.00 400.00,224.00
             406.78,226.46 407.39,232.16 400.96,235.43 Z
           M 301.00,209.00
           C 301.00,209.00 301.00,208.00 301.00,208.00
             301.00,208.00 303.00,206.00 303.00,206.00
             303.00,206.00 301.00,209.00 301.00,209.00 Z
           M 334.06,230.87
           C 335.02,232.71 345.69,238.99 337.85,242.89
             335.05,244.28 331.24,242.34 329.04,240.58
             323.63,236.25 321.35,225.94 327.14,221.13
             335.54,219.70 331.97,226.85 334.06,230.87 Z
           M 321.00,263.47
           C 321.00,263.47 314.00,267.50 314.00,267.50
             308.12,270.60 304.71,266.93 305.84,263.03
             306.81,259.70 311.09,257.27 314.00,255.81
             320.27,252.66 335.04,248.34 342.00,248.00
             336.78,259.04 330.53,259.34 321.00,263.47 Z
           M 333.38,326.00
           C 332.92,322.78 331.21,320.95 331.19,316.00
             330.97,313.23 331.96,309.20 331.19,307.00
             329.97,302.43 318.89,293.56 319.52,287.00
             319.87,283.50 324.07,280.29 326.42,277.83
             332.40,271.59 341.69,260.92 349.00,257.00
             349.63,262.17 347.48,263.46 344.00,267.00
             338.38,272.71 333.38,277.64 326.00,281.00
             332.60,293.48 340.93,298.19 341.80,306.00
             342.26,310.19 340.65,312.78 340.85,316.00
             341.05,319.19 343.27,322.83 343.07,326.00
             342.76,330.88 334.80,337.28 331.00,340.00
             331.42,332.39 334.05,330.68 333.38,326.00 Z"
	/>
			 
	<rect id = "GefängnisStange1"
		x="198" y="123" width="232" height="12" fill="#231f20"
		transform = "rotate(-45 314 192)"
	/>
	
	<rect id = "GefängnisStange2"
		x="198" y="183" width="232" height="12" fill="#231f20"
		transform = "rotate(-45 314 192)"
	/>
	
	<rect id = "GefängnisStange3"
		x="198" y="251" width="232" height="12" fill="#231f20"
		transform = "rotate(-45 314 192)"
	/>

	<text id = "Y-Beschriftung"
		x="59" y="251" font-family="Monopoly" font-size="38px" text-anchor="middle" writing-mode="tb">
		Nur zu
	</text>
	
	<text id = "X-Beschriftung"
		x="251" y="458" font-family="Monopoly" font-size="38px" text-anchor="middle">
		Besuch
	</text>
</svg>

