<?xml version="1.0" encoding="UTF-8" standalone="no"?>
<!DOCTYPE svg PUBLIC "-//W3C//DTD SVG 20010904//EN"
              "http://www.w3.org/TR/2001/REC-SVG-20010904/DTD/svg10.dtd">

<svg xmlns="http://www.w3.org/2000/svg"
     width="13.5972in" height="13.5833in"
     viewBox="0 0 979 978">
  <path id="Unbenannt"
        fill="none" stroke="black" stroke-width="1"
        d="M 336.49,199.65
           C 336.49,199.65 345.11,193.02 345.11,193.02
             336.38,190.43 343.53,175.50 351.19,175.53
             357.20,175.58 362.41,182.51 362.45,186.45
             362.50,194.55 345.04,207.77 340.02,213.91
             335.97,219.22 340.12,224.63 341.59,226.91
             343.58,229.57 351.44,233.23 351.52,231.88
             351.97,230.22 355.79,220.57 355.36,220.30
             355.04,220.09 354.02,221.27 353.01,221.63
             345.89,223.63 347.03,215.88 349.49,214.10
             350.16,213.60 364.11,201.13 363.99,201.10
             376.30,191.39 369.68,168.72 352.11,167.40
             336.68,166.09 331.24,180.84 331.24,186.77
             331.55,194.84 336.56,200.54 336.49,199.65 Z" />
</svg>
