<?xml version="1.0" encoding="UTF-8" standalone="no"?>
<!DOCTYPE svg PUBLIC "-//W3C//DTD SVG 20010904//EN" "http://www.w3.org/TR/2001/REC-SVG-20010904/DTD/svg10.dtd">
<svg xmlns="http://www.w3.org/2000/svg"
     width="13.5972in" height="13.5833in"
     viewBox="0 0 979 978">
  <path id="Feld Rand"
        fill="black" stroke="black" stroke-width="1"
        d="M 503.00,158.00
           C 503.00,158.00 503.00,440.00 503.00,440.00
             503.00,440.00 257.00,440.00 257.00,440.00
             257.00,440.00 257.00,158.00 257.00,158.00
             257.00,158.00 503.00,158.00 503.00,158.00 Z" />
	<path id="Farbenfeld Rand"
        fill="black" stroke="black" stroke-width="1"
        d="M 257.00,32.00
           C 257.00,32.00 503.00,32.00 503.00,32.00
             503.00,32.00 503.00,158.00 503.00,158.00
             503.00,158.00 257.00,158.00 257.00,158.00
             257.00,158.00 257.00,32.00 257.00,32.00" />
	<path id="Farbenfeld"
        fill="red" stroke="black" stroke-width="1"
        d="M 260.00,35.00
           C 260.00,35.00 260.00,155.00 260.00,155.00
             260.00,155.00 500.00,155.00 500.00,155.00
             500.00,155.00 500.00,35.00 500.00,35.00
             500.00,35.00 260.00,35.00 260.00,35.00 Z" />
	<path id="Feld"
        fill="white" stroke="black" stroke-width="1"
        d="M 500.00,158.00
           C 500.00,158.00 500.00,437.00 500.00,437.00
             500.00,437.00 260.00,437.00 260.00,437.00
             260.00,437.00 260.00,158.00 260.00,158.00
             260.00,158.00 500.00,158.00 500.00,158.00 Z" />
</svg>



			 

			 

			 
