<?xml version="1.0" encoding="UTF-8" standalone="no"?>
<!DOCTYPE svg PUBLIC "-//W3C//DTD SVG 20010904//EN" "http://www.w3.org/TR/2001/REC-SVG-20010904/DTD/svg10.dtd">
<svg xmlns="http://www.w3.org/2000/svg"
     width="13.5972in" height="13.5833in"
     viewBox="0 0 979 978">
  <path id="Feld Rand"
        fill="black" stroke="black" stroke-width="1"
        d="M 503.00,158.00
           C 503.00,158.00 503.00,440.00 503.00,440.00
             503.00,440.00 257.00,440.00 257.00,440.00
             257.00,440.00 257.00,158.00 257.00,158.00
             257.00,158.00 503.00,158.00 503.00,158.00 Z" />
	<path id="Farbenfeld Rand"
        fill="black" stroke="black" stroke-width="1"
        d="M 257.00,32.00
           C 257.00,32.00 503.00,32.00 503.00,32.00
             503.00,32.00 503.00,158.00 503.00,158.00
             503.00,158.00 257.00,158.00 257.00,158.00
             257.00,158.00 257.00,32.00 257.00,32.00" />
	<path id="Farbenfeld"
        fill="red" stroke="black" stroke-width="1"
        d="M 260.00,35.00
           C 260.00,35.00 260.00,155.00 260.00,155.00
             260.00,155.00 500.00,155.00 500.00,155.00
             500.00,155.00 500.00,35.00 500.00,35.00
             500.00,35.00 260.00,35.00 260.00,35.00 Z" />
	<path id="Feld"
        fill="white" stroke="black" stroke-width="1"
        d="M 500.00,158.00
           C 500.00,158.00 500.00,437.00 500.00,437.00
             500.00,437.00 260.00,437.00 260.00,437.00
             260.00,437.00 260.00,158.00 260.00,158.00
             260.00,158.00 500.00,158.00 500.00,158.00 Z" />
	<path id="Lokomotive"
        fill="black" stroke="black" stroke-width="1"
        d="M 330.40,239.69
           C 337.44,239.70 340.08,239.16 344.01,245.66
             345.27,247.76 346.11,249.35 346.06,251.86
             346.01,254.72 343.52,261.56 342.54,264.69
             342.54,264.69 334.68,289.69 334.68,289.69
             333.10,294.91 330.91,297.31 332.40,302.69
             339.65,301.18 350.71,301.69 358.40,301.69
             358.40,301.69 394.40,301.69 394.40,301.69
             394.40,301.69 409.40,302.68 409.40,302.68
             412.43,302.72 422.86,303.57 424.06,300.26
             424.90,297.96 419.06,290.44 417.84,287.73
             413.12,277.23 412.23,260.85 422.01,252.94
             428.98,247.31 434.34,249.67 442.40,249.69
             456.53,249.71 471.44,250.53 485.40,248.69
             485.36,252.61 485.10,258.10 483.48,261.69
             480.25,268.84 463.82,283.39 462.40,294.70
             462.40,294.70 462.40,294.69 462.40,294.69
             462.40,294.69 459.48,312.69 459.48,312.69
             459.48,312.69 460.40,331.69 460.40,331.69
             462.81,333.24 463.97,336.33 465.58,338.69
             469.78,344.85 473.79,346.94 474.40,354.69
             474.40,354.69 457.40,355.69 457.40,355.69
             460.34,363.74 462.74,365.02 462.08,374.65
             460.49,397.64 429.12,403.92 417.62,384.68
             412.13,375.51 414.87,364.51 419.40,355.69
             419.40,355.69 365.40,355.69 365.40,355.69
             369.07,361.90 371.12,363.37 372.32,370.69
             373.00,374.85 372.59,379.42 371.10,383.40
             364.56,400.87 340.05,401.63 330.18,386.60
             327.31,381.79 327.11,368.61 330.18,363.81
             331.07,361.94 331.67,361.73 333.40,360.69
             333.40,360.69 332.40,358.69 332.40,358.69
             332.40,358.69 334.40,355.69 334.40,355.69
             334.40,355.69 324.40,356.69 324.40,356.69
             324.40,356.69 312.40,396.69 312.40,396.69
             312.40,396.69 274.40,396.69 274.40,396.69
             274.40,396.69 285.51,382.11 285.51,382.11
             285.51,382.11 305.40,356.69 305.40,356.69
             281.06,354.40 280.82,312.75 299.56,303.84
             303.20,302.29 308.57,302.97 312.40,303.84
             312.40,303.84 313.40,302.69 313.40,302.69
             313.40,302.69 302.06,266.69 302.06,266.69
             302.06,266.69 297.78,249.78 297.78,249.78
             297.78,249.78 303.40,239.69 303.40,239.69
             303.40,239.69 330.40,239.69 330.40,239.69 Z
           M 492.00,676.00
           C 492.00,676.00 493.00,677.00 493.00,677.00
             493.00,677.00 493.00,676.00 493.00,676.00
             493.00,676.00 492.00,676.00 492.00,676.00 Z" />
</svg>



			 

			 

			 
