<?xml version="1.0" encoding="UTF-8" standalone="no"?>
<!DOCTYPE svg PUBLIC "-//W3C//DTD SVG 20010904//EN" "http://www.w3.org/TR/2001/REC-SVG-20010904/DTD/svg10.dtd">

<svg xmlns="http://www.w3.org/2000/svg" width="304" height="506">
	
	<title>Change</title>

	<rect id = "field_border"
		x="0" y="0" width="304" height="506" fill="#231f20"
	/>
	
	<rect id = "field"
		x="2" y="2" width="300" height="502" fill="#f7f7cf"
	/>
	
	<path id="red"
        fill="#e02b29" stroke="#e02b29" stroke-width="4"
        d="M 71.01,174.00
           C 71.25,163.49 75.93,151.32 80.60,142.00
             92.25,118.78 114.25,101.13 141.00,101.00
             141.00,101.00 149.00,101.00 149.00,101.00
             159.11,101.12 171.86,104.60 181.00,108.89
             205.68,120.48 222.05,146.31 225.05,173.00
             225.39,176.00 226.03,178.97 225.90,182.00
             225.54,190.01 222.40,199.94 218.68,207.00
             207.69,227.89 187.61,248.24 170.00,263.72
             157.38,274.81 142.75,285.17 133.04,299.00
             130.02,303.31 126.80,308.58 126.74,314.00
             126.61,324.22 138.72,332.70 148.00,333.82
             153.12,334.43 157.15,333.40 162.00,332.00
             162.00,332.00 153.85,353.00 153.85,353.00
             152.83,355.38 151.52,359.49 149.50,361.07
             146.98,363.04 142.09,362.98 139.00,363.00
             134.32,363.02 130.46,363.29 126.00,361.52
             109.75,355.07 91.88,326.84 95.67,309.00
             101.85,279.90 133.62,252.30 156.00,234.66
             174.38,220.17 195.71,198.12 196.00,173.00
             196.26,150.16 181.46,136.50 161.00,129.05
             156.34,127.36 148.90,125.24 144.00,125.04
             130.30,124.49 110.09,138.09 103.99,150.00
             100.06,157.69 96.29,177.63 99.10,186.00
             101.41,192.86 106.46,197.46 109.00,204.00
             109.00,204.00 86.00,219.00 86.00,219.00
             78.67,206.13 70.67,189.04 71.01,174.00 Z
           M 156.00,440.52
           C 152.71,442.53 149.78,443.48 146.00,444.06
             122.52,447.65 107.38,420.18 122.53,402.09
             126.81,396.98 132.65,394.66 139.00,393.44
             167.86,390.36 177.60,427.34 156.00,440.52 Z"
	/>
	
	<path id="border"
        fill="#231f20"
        d="M 63.04,172.00
           C 63.31,165.87 65.39,158.81 67.33,153.00
             77.70,121.90 104.27,93.41 139.00,93.00
             159.73,92.76 174.97,95.34 193.00,106.47
             222.11,124.43 242.46,167.72 229.94,201.00
             219.75,228.07 194.23,252.98 173.00,271.83
             173.00,271.83 154.00,288.01 154.00,288.01
             148.28,293.59 142.39,299.21 138.09,306.00
             136.58,308.39 134.46,312.07 135.06,315.00
             135.77,318.40 140.12,322.09 143.00,323.77
             145.29,325.11 147.36,325.71 150.00,325.90
             154.91,326.26 157.74,325.20 162.00,322.98
             164.69,321.57 168.65,319.12 171.69,321.04
             175.86,323.68 172.27,329.80 170.86,333.00
             170.86,333.00 160.85,357.00 160.85,357.00
             159.61,359.91 157.82,365.44 155.59,367.44
             151.21,371.36 139.67,371.06 134.00,371.00
             129.44,370.94 126.24,370.53 122.00,368.65
             105.83,361.47 87.77,335.02 87.04,317.00
             86.51,303.94 93.57,289.59 100.67,279.00
             113.95,259.19 127.78,247.35 146.00,232.42
             146.00,232.42 163.00,218.00 163.00,218.00
             174.90,206.23 187.58,190.60 187.99,173.00
             188.43,153.55 175.07,142.64 158.00,136.44
             152.74,134.52 144.53,132.28 139.00,133.38
             134.97,134.18 130.48,136.67 127.00,138.81
             114.78,146.35 111.28,150.28 108.12,164.00
             107.21,167.93 106.20,171.96 106.04,176.00
             105.53,189.19 114.97,194.67 121.00,205.00
             121.00,205.00 84.00,231.00 84.00,231.00
             73.18,216.18 62.22,190.64 63.04,172.00 Z
           M 150.00,332.81
           C 140.54,332.03 128.12,324.51 128.09,314.00
             128.07,308.95 131.56,302.96 134.51,299.00
             143.92,286.40 154.48,278.94 166.00,268.85
             182.87,254.07 199.44,238.75 212.00,220.00
             220.56,207.21 227.35,194.86 226.99,179.00
             226.26,147.08 205.46,117.39 176.00,105.45
             161.82,99.71 152.84,99.83 138.00,100.00
             128.80,100.11 117.94,103.66 110.00,108.23
             102.12,112.77 95.07,118.97 89.31,126.00
             79.65,137.80 70.18,158.56 70.00,174.00
             69.89,184.20 71.42,189.55 74.95,199.00
             77.01,204.50 79.46,209.83 82.26,214.99
             83.30,216.91 84.59,219.61 87.10,219.70
             89.44,219.78 93.15,216.73 95.00,215.37
             95.00,215.37 111.00,204.00 111.00,204.00
             105.62,193.54 97.88,188.06 99.17,175.00
             99.65,170.10 102.89,155.17 105.00,151.00
             110.02,141.05 127.03,128.84 138.00,126.52
             144.36,125.17 153.94,127.85 160.00,130.05
             179.22,137.04 195.83,150.81 194.96,173.00
             194.37,188.08 186.13,201.54 177.00,213.00
             159.55,234.88 130.45,248.11 108.72,279.00
             100.88,290.15 93.67,302.99 94.01,317.00
             94.43,334.27 112.96,360.24 130.00,363.98
             134.77,365.04 145.54,365.22 149.73,362.69
             152.36,361.09 153.85,356.76 154.99,354.00
             154.99,354.00 164.00,331.00 164.00,331.00
             159.32,331.39 154.49,333.19 150.00,332.81 Z
           M 160.00,447.52
           C 153.02,451.74 147.85,452.09 140.00,452.00
             116.12,451.71 101.96,426.13 111.35,405.00
             116.52,393.35 125.90,387.70 138.00,385.44
             174.21,380.91 189.94,429.45 160.00,447.52 Z
           M 122.47,400.18
           C 105.76,418.21 120.15,449.17 145.00,445.70
             173.59,441.71 177.47,404.12 152.00,393.93
             147.11,391.97 143.16,391.79 138.00,392.30
             132.17,393.44 126.59,395.73 122.47,400.18 Z"
	/>
	
	<text id = "titel"
		x="150" y="75" font-family="Monopoly" fill="#231f20" style="stroke: #231f20"
		font-size="30px" text-anchor="middle">
		Ereignisfield
	</text>
	
</svg>

