<?xml version="1.0" encoding="UTF-8" standalone="no"?>
<!DOCTYPE svg PUBLIC "-//W3C//DTD SVG 20010904//EN" "http://www.w3.org/TR/2001/REC-SVG-20010904/DTD/svg10.dtd">

<svg xmlns="http://www.w3.org/2000/svg" width="304" height="506">
	
	<title>Community</title>

	<rect id = "field_border"
		x="0" y="0" width="304" height="506" fill="#231f20"
	/>
	
	<rect id = "field"
		x="2" y="2" width="300" height="502" fill="#f7f7cf"
	/>
	
	<g>
		<path id="weiß"
			fill="#ffffff" stroke="#ffffff" stroke-width="1"
			d="M 111.73,234.91
			C 111.73,234.91 97.91,230.45 97.91,230.45
             97.91,230.45 146.63,155.44 146.63,155.44
             146.63,155.44 272.72,160.91 272.72,160.91
             272.16,161.95 272.78,160.87 264.17,175.57
             264.01,175.60 151.73,173.36 151.73,173.36
             151.73,173.36 111.73,234.91 111.73,234.91 Z
			M 173.61,216.39
			C 173.61,216.39 166.61,211.61 166.61,211.61
             166.61,211.61 173.48,203.48 173.48,203.48
             173.48,203.48 173.61,216.39 173.61,216.39 Z
			M 146.13,209.87
			C 147.03,207.82 147.78,203.65 154.87,205.30
             153.04,208.74 153.87,212.30 154.02,214.01
             154.38,218.29 154.48,221.35 158.83,223.78
             158.83,223.78 146.00,225.00 146.00,225.00
             146.00,220.82 144.54,213.47 146.13,209.87 Z
			M 187.78,219.83
			C 186.24,220.06 181.12,220.57 179.52,220.39
             179.52,220.39 180.22,204.96 180.22,204.96
             190.89,209.84 192.09,212.78 187.78,219.83 Z
			M 165.48,212.04
			C 165.48,212.04 160.52,217.09 160.52,217.09
             160.52,217.09 160.57,209.13 160.57,209.13
             160.57,209.13 165.48,212.04 165.48,212.04 Z
			M 191.65,225.26
			C 182.83,232.70 174.97,232.57 162.35,232.57
             158.35,232.57 150.71,233.01 146.96,231.52
             146.96,231.52 191.65,225.26 191.65,225.26 Z
			M 183.09,237.13
			C 183.09,237.13 196.96,228.83 196.96,228.83
             204.70,236.96 202.79,234.93 204.57,237.00
             209.56,242.78 213.86,247.52 216.00,255.00
             216.00,255.00 175.00,267.67 175.00,267.67
             175.00,267.67 150.00,274.82 150.00,274.82
             150.00,274.82 130.00,270.00 130.00,270.00
             130.00,270.00 134.84,248.00 134.84,248.00
             136.04,241.23 133.37,238.73 139.48,233.78
             143.61,242.26 178.91,237.91 183.09,237.13 Z
			M 86.22,251.33
			C 94.90,242.76 116.48,244.00 128.00,244.00
             128.00,244.00 124.00,268.00 124.00,268.00
             124.00,268.00 82.00,259.00 82.00,259.00
             83.12,255.90 83.78,253.74 86.22,251.33 Z
			M 34.00,258.00
			C 33.91,315.00 33.78,259.04 33.87,316.04
             134.78,344.13 135.00,343.00 135.00,343.00
             135.00,343.00 135.00,351.55 135.00,351.55
             135.00,351.55 19.25,321.13 19.25,321.13
             19.06,304.06 18.64,250.36 18.64,250.36
             18.64,250.36 34.00,258.00 34.00,258.00 Z
			M 237.96,257.00
			C 237.96,257.00 237.38,321.13 237.38,321.13
             237.38,321.13 153.35,359.09 153.35,359.09
             153.35,359.09 152.94,281.44 152.94,281.44
             152.94,281.44 164.25,277.94 164.25,277.94
             164.25,294.98 163.30,327.79 165.31,343.06
             165.31,343.06 165.84,344.12 224.89,314.87
             225.59,257.09 225.00,257.00 225.00,257.00
             225.00,257.00 237.96,257.00 237.96,257.00 Z
			M 62.00,280.00
			C 62.00,280.00 55.00,293.00 55.00,293.00
             55.00,293.00 40.00,291.00 40.00,291.00
             40.00,291.00 40.00,277.00 40.00,277.00
             40.00,277.00 62.00,280.00 62.00,280.00 Z
			M 80.00,284.15
			C 94.86,289.97 89.04,311.31 74.00,309.80
             59.29,308.33 56.87,288.38 72.00,283.53
             75.14,283.09 76.93,282.94 80.00,284.15 Z
			M 279.26,162.52
			C 279.26,162.52 295.13,176.78 295.13,176.78
             295.13,176.78 288.52,186.52 288.52,186.52
             288.52,186.52 272.22,173.48 272.22,173.48
             272.22,173.48 279.26,162.52 279.26,162.52 Z
			M 260.09,192.04
			C 260.09,192.04 276.70,209.91 276.70,209.91
             276.70,209.91 269.61,221.96 269.61,221.96
             269.61,221.96 253.52,204.22 253.52,204.22
             253.52,204.22 260.09,192.04 260.09,192.04 Z
			M 234.87,234.65
			C 234.87,234.65 248.91,254.83 248.91,254.83
             248.91,254.83 253.43,249.09 253.43,249.09
             253.43,249.09 238.04,226.61 238.04,226.61
             238.04,226.61 234.87,234.65 234.87,234.65 Z
			M 72.75,264.00
			C 72.75,264.00 101.63,270.63 101.63,270.63
             101.63,270.63 101.88,286.38 101.88,286.38
             101.88,286.38 136.88,291.63 137.00,291.63
             137.13,291.63 137.63,278.38 137.63,278.38
             137.63,278.38 146.75,281.00 146.75,281.00
             146.75,281.00 147.50,357.50 147.50,357.50
             147.50,357.50 140.25,354.75 140.25,354.75
             140.25,354.75 142.21,346.35 141.25,341.38
             140.57,337.87 136.88,337.25 136.88,337.25
             136.88,337.25 137.25,309.75 137.25,309.75
             137.25,309.75 94.75,300.50 94.75,300.50
             94.75,300.50 95.82,288.68 90.75,283.13
             84.88,276.69 72.75,276.38 72.75,276.38
             72.75,276.38 72.75,264.00 72.75,264.00 Z" />

		<path id="blau"
			fill="#009ece" stroke="#231f20" stroke-width="3"
			d="M 154.88,179.56
			C 154.88,179.56 259.48,181.70 259.48,181.70
             259.48,181.70 227.51,230.20 227.30,234.43
             227.18,237.04 232.20,246.73 233.43,249.83
             230.47,249.76 233.04,250.09 221.43,249.48
             221.43,249.48 216.18,241.45 210.13,233.96
             204.28,226.71 196.09,219.30 196.09,219.30
             195.74,213.30 195.91,216.83 195.42,210.00
             192.98,204.66 177.81,194.35 172.00,193.83
             166.29,193.32 161.65,197.91 159.52,200.13
             154.57,199.48 148.06,195.34 142.00,205.02
             137.64,211.98 139.70,219.92 138.69,224.00
             137.89,227.19 135.42,229.60 133.28,231.98
             131.30,234.18 129.99,235.92 126.99,236.84
             125.28,237.12 120.04,237.00 118.00,236.84
             118.00,236.84 154.88,179.56 154.88,179.56 Z
			M 66.61,262.83
			C 66.61,262.83 66.74,274.70 66.74,274.70
             66.74,274.70 40.17,269.74 40.17,269.74
             40.17,269.74 40.09,256.91 40.09,256.91
             40.09,256.91 66.61,262.83 66.61,262.83 Z
			M 218.00,262.00
			C 218.00,262.00 218.28,311.50 218.28,311.50
             218.28,311.50 171.16,333.97 171.16,333.97
             171.16,333.97 170.00,276.00 170.00,276.00
             170.00,276.00 218.00,262.00 218.00,262.00 Z
			M 131.69,276.63
			C 131.69,276.63 131.69,284.69 131.69,284.69
             131.69,284.69 107.75,281.56 107.75,281.56
             107.75,281.56 108.00,272.00 108.00,272.00
             108.00,272.00 131.69,276.63 131.69,276.63 Z
			M 54.31,300.90
			C 56.34,302.61 56.75,305.95 60.33,309.83
             67.69,317.82 78.28,319.24 86.99,312.47
             89.56,310.47 91.05,308.55 93.00,306.00
             93.00,306.00 131.04,314.52 131.04,314.52
             131.04,314.52 131.09,335.83 131.09,335.83
             131.09,335.83 40.00,312.00 40.00,312.00
             40.00,312.00 40.00,298.00 40.00,298.00
             43.19,298.15 51.98,298.95 54.31,300.90 Z
			M 249.74,209.30
			C 249.74,209.30 241.39,221.96 241.39,221.96
             241.39,221.96 255.70,241.83 255.70,241.83
             255.70,241.83 265.83,226.83 265.83,226.83
             265.83,226.83 249.74,209.30 249.74,209.30 Z
			M 287.69,192.69
			C 287.69,192.69 269.63,179.38 269.63,179.38
             269.63,179.38 263.25,186.56 263.25,186.56
             263.25,186.56 279.63,204.88 279.63,204.88
             279.63,204.88 287.69,192.69 287.69,192.69 Z" />

		<path id="schwarz"
			fill="#231f20" stroke="#231f20" stroke-width="1"
			d="M 93.36,230.00
			C 93.47,225.94 139.67,151.90 144.56,149.94
             272.50,154.75 182.75,151.25 279.88,154.75
             283.57,156.26 296.69,171.25 301.00,175.00
             300.60,177.68 300.35,180.43 299.43,183.00
             299.43,183.00 283.68,209.00 283.68,209.00
             283.68,209.00 275.92,222.00 275.92,222.00
             275.92,222.00 261.09,244.00 261.09,244.00
             261.09,244.00 255.86,254.96 255.86,254.96
             254.34,257.25 252.73,258.80 250.02,259.54
             247.89,260.13 245.07,259.37 244.14,261.51
             243.42,263.37 244.37,321.45 242.88,323.88
             240.67,327.45 160.99,360.65 152.00,367.00
             146.71,363.51 15.13,328.38 13.00,325.38
             11.50,270.13 12.00,284.25 14.13,245.13
             19.22,241.59 26.95,249.88 34.00,248.74
             34.00,248.74 95.00,235.00 95.00,235.00
             94.05,233.16 93.30,232.24 93.36,230.00 Z
			M 260.00,159.83
			C 260.00,159.83 243.00,159.00 243.00,159.00
             243.00,159.00 229.00,158.00 229.00,158.00
             229.00,158.00 163.00,155.00 163.00,155.00
             163.00,155.00 152.00,154.17 152.00,154.17
             152.00,154.17 146.32,155.02 146.32,155.02
             146.32,155.02 97.00,231.00 97.00,231.00
             100.12,232.20 108.64,235.54 111.68,234.39
             114.81,233.19 142.67,189.00 142.67,189.00
             152.13,174.74 150.95,173.88 162.00,174.00
             162.00,174.00 177.00,175.00 177.00,175.00
             177.00,175.00 205.00,175.00 205.00,175.00
             205.00,175.00 222.00,176.14 222.00,176.14
             222.00,176.14 246.00,176.14 246.00,176.14
             250.29,176.05 260.26,177.94 263.67,176.14
             267.05,174.94 272.13,164.54 274.00,161.00
             274.00,161.00 260.00,159.83 260.00,159.83 Z
			M 278.00,162.00
			C 276.52,164.78 272.19,171.00 272.82,173.91
             273.52,177.16 285.64,186.65 288.90,185.68
             292.01,184.75 295.01,178.89 296.00,176.00
             296.00,176.00 278.00,162.00 278.00,162.00 Z
			M 162.00,179.00
			C 152.51,179.02 153.67,179.49 145.50,192.00
             145.50,192.00 119.01,231.12 117.00,237.90
             119.44,238.00 127.14,238.57 128.83,237.90
             130.79,236.92 132.34,234.63 133.66,233.00
             135.82,230.33 138.86,227.35 139.69,224.00
             140.55,220.51 138.79,209.55 144.56,203.34
             149.77,197.72 155.64,201.40 160.00,199.85
             163.30,198.68 166.76,194.25 172.27,194.94
             177.54,195.60 192.05,205.07 194.20,210.00
             195.89,213.90 194.42,216.63 195.99,219.83
             197.31,222.51 205.36,230.26 207.83,233.00
             211.18,236.72 218.61,247.81 222.09,249.57
             225.35,251.21 230.40,251.00 234.00,251.00
             232.62,243.64 227.99,238.90 228.83,234.00
             229.68,229.07 258.20,186.66 260.00,181.00
             260.00,181.00 162.00,179.00 162.00,179.00 Z
			M 287.50,193.13
			C 287.50,193.13 269.31,179.25 269.31,179.25
             269.31,179.25 263.25,186.44 263.25,186.44
             263.25,186.44 280.38,205.44 280.38,205.13
             280.38,204.81 287.50,193.13 287.50,193.13 Z
			M 276.19,211.00
			C 276.28,208.36 274.31,206.31 272.73,204.42
             269.10,200.10 263.91,193.53 259.00,191.00
             257.73,193.94 253.67,201.32 253.90,204.00
             254.26,208.35 266.24,220.29 270.00,223.00
             271.64,220.48 276.10,213.81 276.19,211.00 Z
			M 165.56,209.38
			C 165.56,209.38 159.00,208.00 159.00,208.00
             159.00,208.00 160.00,218.00 160.00,218.00
             160.00,218.00 165.00,213.00 165.00,213.00
             165.00,213.00 175.00,217.00 175.00,217.00
             175.00,217.00 175.00,202.00 175.00,202.00
             175.00,202.00 165.56,209.38 165.56,209.38 Z
			M 149.11,205.02
			C 143.03,208.44 143.96,220.21 145.00,226.00
             145.00,226.00 172.00,223.00 172.00,223.00
             167.59,215.93 164.84,222.68 160.06,221.40
             153.53,219.65 155.38,208.72 156.00,204.00
             153.74,204.03 151.14,203.88 149.11,205.02 Z
			M 188.57,219.41
			C 189.60,218.49 190.23,217.32 190.53,215.98
             192.03,209.15 184.26,205.50 179.00,204.00
             179.00,212.78 179.68,213.40 177.00,222.00
             180.08,221.86 186.23,221.48 188.57,219.41 Z
			M 241.90,222.00
			C 242.12,225.46 252.44,239.17 255.00,243.00
             255.00,243.00 257.00,243.00 257.00,243.00
             257.00,243.00 265.27,228.00 265.27,228.00
             265.27,228.00 261.90,221.00 261.90,221.00
             261.90,221.00 250.00,208.00 250.00,208.00
             247.31,210.64 241.66,218.18 241.90,222.00 Z
			M 145.00,232.00
			C 155.00,233.45 187.91,234.64 192.00,225.00
             192.00,225.00 145.00,232.00 145.00,232.00 Z
			M 237.00,226.00
			C 231.46,239.04 238.14,238.86 248.00,256.00
             248.00,256.00 250.00,256.00 250.00,256.00
             250.00,256.00 253.18,249.00 253.18,249.00
             253.18,249.00 248.98,241.00 248.98,241.00
             248.98,241.00 239.00,226.00 239.00,226.00
             239.00,226.00 237.00,226.00 237.00,226.00 Z
			M 150.00,276.21
			C 152.87,276.25 164.58,272.44 168.00,271.33
             168.00,271.33 201.08,261.18 201.08,261.18
             204.20,260.30 215.57,257.61 216.59,254.72
             217.40,252.44 215.10,248.87 213.91,247.00
             211.84,243.75 202.71,232.28 199.96,230.37
             194.84,226.81 193.66,232.25 184.00,235.23
             174.03,238.30 164.20,238.19 154.00,237.17
             148.20,236.59 145.46,237.53 141.00,233.00
             133.02,236.97 134.81,240.75 133.54,248.00
             133.54,248.00 129.00,271.00 129.00,271.00
             129.00,271.00 150.00,276.21 150.00,276.21 Z
			M 81.00,261.00
			C 81.00,261.00 125.00,269.00 125.00,269.00
             125.00,269.00 130.00,243.00 130.00,243.00
             114.45,243.00 83.07,238.79 81.00,261.00 Z
			M 112.00,335.88
			C 112.00,335.88 58.00,321.63 58.00,321.63
             58.00,321.63 43.00,317.65 43.00,317.65
             40.64,317.08 37.50,316.73 36.02,314.57
             34.78,312.75 35.00,309.17 35.00,307.00
             35.00,307.00 35.00,263.00 35.00,263.00
             34.96,261.14 35.02,259.02 33.98,257.39
             31.83,254.02 20.98,249.75 17.04,249.00
             17.04,249.00 17.04,261.00 17.04,261.00
             17.04,261.00 18.00,273.00 18.00,273.00
             18.00,273.00 18.00,314.00 18.00,314.00
             18.00,314.00 18.99,321.28 18.99,321.28
             18.99,321.28 27.00,324.37 27.00,324.37
             27.00,324.37 45.00,329.13 45.00,329.13
             45.00,329.13 107.00,345.37 107.00,345.37
             107.00,345.37 136.00,352.00 136.00,352.00
             136.00,352.00 136.00,342.00 136.00,342.00
             136.00,342.00 112.00,335.88 112.00,335.88 Z
			M 39.00,256.00
			C 39.00,256.00 40.02,269.41 40.02,269.41
             40.02,269.41 67.00,275.00 67.00,275.00
             67.00,275.00 67.09,262.64 67.09,262.64
             67.09,262.64 39.00,256.00 39.00,256.00 Z
			M 131.91,276.35
			C 131.91,276.35 107.39,271.30 107.39,271.30
             107.39,271.30 107.48,281.91 107.48,281.91
             107.48,281.91 131.91,284.61 131.91,284.61
             131.91,284.61 131.91,276.35 131.91,276.35 Z
			M 39.00,275.00
			C 39.00,275.00 39.00,292.00 39.00,292.00
             39.00,292.00 55.44,293.94 55.44,293.94
             55.44,293.94 55.83,289.82 57.88,286.25
             60.10,282.37 64.31,280.06 64.31,280.06
             64.31,280.06 39.00,275.00 39.00,275.00 Z
			M 74.00,310.96
			C 92.09,311.90 94.79,289.94 82.00,283.45
             78.65,281.75 75.59,281.94 72.00,282.33
             54.70,286.64 57.51,310.10 74.00,310.96 Z
			M 132.00,320.00
			C 131.96,317.99 132.14,315.58 130.43,314.16
             129.09,313.06 123.93,312.10 122.00,311.63
             122.00,311.63 104.00,307.63 104.00,307.63
             101.55,307.02 96.38,305.53 94.04,306.04
             91.20,306.65 89.22,309.47 86.91,311.21
             83.10,314.09 77.83,316.19 73.00,315.50
             67.21,314.66 61.90,310.84 58.72,306.00
             57.24,303.74 56.78,301.21 55.28,299.82
             52.83,297.58 42.49,297.03 39.00,297.00
             39.00,297.00 39.00,304.00 39.00,304.00
             39.00,306.13 38.77,309.73 40.02,311.49
             41.75,313.93 56.37,317.20 60.00,318.11
             60.00,318.11 101.00,328.71 101.00,328.71
             108.52,330.84 124.96,335.67 132.00,336.00
             132.00,336.00 132.00,320.00 132.00,320.00 Z
			M 217.75,261.38
			C 217.63,261.25 170.38,276.13 170.38,276.13
             170.38,276.13 170.63,334.00 170.63,334.00
             170.63,334.00 218.50,311.75 218.50,311.75
             218.50,311.75 217.88,261.50 217.75,261.38 Z
			M 224.50,314.63
			C 224.50,314.63 165.13,342.75 165.13,342.75
             165.13,342.75 164.75,277.13 164.75,277.13
             164.75,277.13 152.25,280.88 152.25,280.88
             152.25,280.88 153.00,359.25 153.13,359.25
             153.25,359.25 238.13,321.13 238.13,321.13
             238.13,321.13 238.50,256.50 238.50,256.50
             238.50,256.50 224.50,256.38 224.50,256.38
             224.50,256.38 224.50,314.63 224.50,314.63 Z
			M 72.00,264.00
			C 72.00,264.00 72.00,277.00 72.00,277.00
             81.06,277.42 89.44,280.97 93.00,290.00
             94.89,294.81 92.98,298.77 95.60,301.02
             97.10,302.31 103.71,303.34 106.00,303.88
             106.00,303.88 136.00,310.00 136.00,310.00
             136.00,310.00 136.00,331.00 136.00,331.00
             136.06,340.50 138.38,337.13 141.00,340.88
             141.85,343.94 140.41,352.10 139.83,355.35
             139.83,355.35 148.00,358.00 148.00,358.00
             148.00,358.00 146.01,280.72 146.01,280.72
             146.01,280.72 137.00,278.00 137.00,278.00
             137.00,278.00 136.94,291.19 136.94,291.19
             136.94,291.19 101.94,285.94 101.94,285.94
             101.94,285.94 102.06,270.81 102.06,270.81
             102.06,270.81 72.00,264.00 72.00,264.00 Z" />
	</g>
 
	<g font-size="30px" fill="#231f20" text-anchor="middle">
		<text id = "tag"
			x="150" y="75" font-size="30px" style="stroke: #000000" text-anchor="middle">
			Gemein-
		</text>
		<text id = "tag"
			x="150" y="105" font-size="30px" style="stroke: #000000" text-anchor="middle">
			schaftsfeld
		</text>
	</g>
	

</svg>

