<?xml version="1.0" encoding="UTF-8" standalone="no"?>
<!DOCTYPE svg PUBLIC "-//W3C//DTD SVG 20010904//EN" "http://www.w3.org/TR/2001/REC-SVG-20010904/DTD/svg10.dtd">

<svg xmlns="http://www.w3.org/2000/svg" width="304" height="506">
	
	<title>Elecricity</title>

	<rect id = "field_border"
		x="0" y="0" width="304" height="506"
		rx="0" ry="0" fill="#231f20" stroke=""
	/>
	<rect id = "field"
		x="2" y="2" width="300" height="502"
		rx="0" ry="0" fill="#f7f7cf" stroke=""
	/>

	<path id="gelb"
        fill="yellow"
        d="M 132.63,305.01
           C 130.38,303.43 127.70,296.68 126.60,294.00
             126.60,294.00 116.00,267.00 116.00,267.00
             116.00,267.00 110.63,249.00 110.63,249.00
             103.30,220.51 94.60,172.64 132.00,161.44
             136.86,159.98 141.93,159.06 147.00,159.00
             155.57,158.90 163.71,159.23 172.00,161.72
             175.92,162.90 179.50,164.32 183.00,166.47
             201.70,177.94 202.22,195.54 202.00,215.00
             201.85,227.29 196.18,249.36 191.81,261.00
             191.81,261.00 177.86,295.00 177.86,295.00
             175.07,301.28 174.67,306.37 166.79,307.00
             166.79,307.00 166.79,274.00 166.79,274.00
             166.07,270.31 165.69,266.53 164.45,263.00
             163.43,260.09 161.42,257.19 161.84,254.00
             161.84,254.00 170.70,234.00 170.70,234.00
             175.65,223.01 181.69,207.01 182.49,195.00
             182.89,188.91 179.10,177.13 171.00,179.64
             166.68,180.98 163.18,187.08 161.44,191.00
             161.44,191.00 155.00,208.00 155.00,208.00
             152.90,200.80 151.03,192.41 144.91,187.42
             136.39,180.46 127.61,187.28 128.04,201.00
             128.33,210.07 134.44,233.25 137.81,242.00
             137.81,242.00 145.01,259.00 145.01,259.00
             145.84,262.67 143.10,267.39 143.00,276.00
             143.00,276.00 143.00,307.00 143.00,307.00
             140.50,306.39 134.00,305.96 132.63,305.01 Z
           M 157.46,223.00
           C 157.62,218.18 161.98,202.84 163.81,198.00
             165.06,194.72 168.93,183.39 173.62,184.72
             177.97,185.95 177.20,197.52 176.70,201.00
             175.24,211.23 165.24,238.15 159.00,246.00
             159.00,246.00 157.46,223.00 157.46,223.00 Z
           M 133.09,201.00
           C 132.69,193.94 136.93,184.03 144.04,193.21
             150.01,200.94 152.95,224.08 153.00,234.00
             153.04,241.76 155.20,250.08 152.00,257.00
             152.00,257.00 150.00,257.00 150.00,257.00
             142.15,244.33 133.94,215.96 133.09,201.00 Z
           M 149.02,304.40
           C 147.96,303.06 148.03,300.62 148.00,299.00
             148.00,299.00 148.00,278.00 148.00,278.00
             148.01,274.12 148.01,266.74 150.72,263.77
             160.76,252.76 161.93,274.42 162.00,280.00
             162.00,280.00 162.00,306.00 162.00,306.00
             159.06,306.00 150.87,306.73 149.02,304.40 Z" />

<path id="schawrz"
        fill="#231f20" stroke="#231f20" stroke-width="2"
        d="M 124.30,298.00
           C 124.30,298.00 115.69,277.00 115.69,277.00
             109.43,259.42 101.03,232.49 101.00,214.00
             101.00,214.00 101.00,200.00 101.00,200.00
             101.14,188.07 105.89,174.31 115.04,166.32
             133.48,150.24 174.13,151.94 191.91,168.30
             204.52,179.90 206.18,197.00 206.00,213.00
             205.78,231.39 196.73,259.81 189.80,277.00
             189.80,277.00 179.25,301.00 179.25,301.00
             178.01,303.48 175.88,308.53 173.61,309.98
             171.07,311.60 160.50,310.98 157.00,311.00
             157.00,311.00 146.00,311.96 146.00,311.96
             146.00,311.96 130.00,311.96 130.00,311.96
             129.48,308.37 125.95,301.64 124.30,298.00 Z
           M 179.42,295.00
           C 179.42,295.00 194.33,258.00 194.33,258.00
             204.79,226.62 215.68,174.40 174.00,160.75
             164.47,157.63 154.87,157.89 145.00,158.00
             139.96,158.06 134.79,158.95 130.00,160.52
             92.95,172.66 102.30,222.53 109.63,251.00
             109.63,251.00 115.34,269.00 115.34,269.00
             115.34,269.00 126.31,297.00 126.31,297.00
             127.50,299.59 130.08,305.50 132.39,306.98
             134.74,308.48 142.00,308.00 145.00,308.00
             145.00,308.00 144.04,298.00 144.04,298.00
             144.04,298.00 144.04,282.00 144.04,282.00
             144.04,282.00 146.42,259.00 146.42,259.00
             146.42,259.00 140.05,244.00 140.05,244.00
             135.07,230.42 129.83,213.47 130.00,199.00
             130.16,186.24 138.53,182.37 145.67,190.11
             151.17,196.06 152.27,205.58 155.00,213.00
             158.62,206.91 160.60,191.63 167.38,184.11
             174.82,175.85 180.60,184.92 180.96,193.00
             181.45,204.12 173.60,224.80 168.75,235.00
             168.75,235.00 159.97,254.00 159.97,254.00
             159.40,258.30 163.29,259.46 164.85,272.00
             166.06,281.75 166.04,284.29 166.00,294.00
             166.00,294.00 165.00,309.00 165.00,309.00
             175.31,308.87 175.64,303.67 179.42,295.00 Z
           M 232.00,163.00
           C 228.21,166.56 216.98,176.00 212.00,175.00
             212.00,175.00 230.00,162.00 230.00,162.00
             230.00,162.00 232.00,163.00 232.00,163.00 Z
           M 95.00,176.00
           C 89.66,175.56 81.79,170.79 78.00,167.00
             83.60,168.33 90.58,172.30 95.00,176.00 Z
           M 166.22,236.00
           C 171.38,224.99 175.91,212.96 178.20,201.00
             179.08,196.36 180.15,184.47 173.83,182.96
             168.31,181.65 163.74,194.01 162.34,198.00
             160.04,204.57 156.53,216.21 156.09,223.00
             156.09,223.00 157.00,239.00 157.00,239.00
             157.01,243.83 156.65,246.24 158.00,251.00
             161.86,246.39 163.69,241.39 166.22,236.00 Z
           M 132.00,199.00
           C 131.85,212.36 136.98,230.50 141.81,243.00
             143.17,246.51 146.41,256.58 150.06,257.66
             155.28,259.22 155.00,249.83 155.00,247.00
             155.02,234.95 153.19,212.21 149.48,201.00
             147.36,194.59 144.00,187.40 136.13,188.62
             131.89,191.37 132.06,194.26 132.00,199.00 Z
           M 86.00,208.00
           C 80.89,206.97 71.96,205.17 68.00,202.00
             72.77,202.67 82.97,204.31 86.00,208.00 Z
           M 238.00,211.00
           C 235.11,214.24 223.64,214.39 219.00,215.00
             222.09,211.54 233.19,211.86 238.00,211.00 Z
           M 88.00,238.00
           C 83.40,239.95 71.60,244.25 67.00,243.00
             71.60,241.05 83.40,236.75 88.00,238.00 Z
           M 236.00,250.00
           C 236.00,250.00 217.00,245.00 217.00,245.00
             221.98,245.23 232.91,246.02 236.00,250.00 Z
           M 148.43,264.27
           C 146.31,268.00 145.98,284.11 146.00,289.00
             146.00,289.00 146.83,299.00 146.83,299.00
             147.47,305.27 146.77,308.04 156.00,307.99
             157.31,307.99 159.51,307.98 160.69,307.40
             163.60,305.97 163.17,299.11 163.58,296.00
             164.36,290.03 163.37,273.89 162.19,268.00
             161.12,262.65 160.55,259.73 155.00,258.00
             155.00,258.00 148.43,264.27 148.43,264.27 Z
           M 99.00,274.00
           C 99.00,274.00 78.00,287.00 78.00,287.00
             80.48,282.83 94.23,273.03 99.00,274.00 Z
           M 232.00,294.00
           C 226.90,291.14 216.82,284.90 214.00,280.00
             219.28,282.25 229.25,289.01 232.00,294.00 Z
           M 98.00,313.00
           C 98.00,313.00 112.00,298.00 112.00,298.00
             111.93,303.14 102.47,310.89 98.00,313.00 Z
           M 217.00,323.00
           C 210.69,321.15 202.78,312.89 200.00,307.00
             200.00,307.00 217.00,323.00 217.00,323.00 Z
           M 141.00,315.09
           C 141.00,315.09 174.00,313.00 174.00,313.00
             174.00,313.00 174.00,315.00 174.00,315.00
             174.00,315.00 158.00,316.03 158.00,316.03
             158.00,316.03 148.00,316.03 148.00,316.03
             142.50,316.69 135.24,318.08 130.00,316.03
             130.00,316.03 141.00,315.09 141.00,315.09 Z
           M 155.00,321.00
           C 155.00,321.00 174.00,321.00 174.00,321.00
             174.00,321.00 162.00,322.00 162.00,322.00
             162.00,322.00 151.00,322.96 151.00,322.96
             151.00,322.96 141.00,322.96 141.00,322.96
             141.00,322.96 130.00,324.00 130.00,324.00
             130.00,324.00 130.00,322.00 130.00,322.00
             130.00,322.00 155.00,321.00 155.00,321.00 Z
           M 145.00,325.97
           C 145.00,325.97 155.00,325.97 155.00,325.97
             160.62,325.30 168.69,323.89 174.00,325.97
             174.00,325.97 163.00,326.91 163.00,326.91
             163.00,326.91 130.00,329.00 130.00,329.00
             130.00,329.00 130.00,327.00 130.00,327.00
             130.00,327.00 145.00,325.97 145.00,325.97 Z
           M 161.00,332.00
           C 161.00,332.00 174.00,331.00 174.00,331.00
             174.00,331.00 174.00,333.00 174.00,333.00
             174.00,333.00 147.00,334.00 147.00,334.00
             147.00,334.00 130.00,335.00 130.00,335.00
             130.00,335.00 130.00,333.00 130.00,333.00
             130.00,333.00 161.00,332.00 161.00,332.00 Z
           M 158.00,336.96
           C 163.38,336.54 168.77,334.92 174.00,336.96
             174.00,336.96 130.00,340.00 130.00,340.00
             130.00,340.00 130.00,338.00 130.00,338.00
             130.00,338.00 158.00,336.96 158.00,336.96 Z
           M 173.00,343.00
           C 171.12,348.86 164.82,351.51 160.00,354.86
             157.64,356.50 155.07,358.61 152.00,357.93
             149.39,357.35 135.49,347.32 133.00,345.00
             133.00,345.00 173.00,343.00 173.00,343.00 Z" />

	<text id = "tag" font-family="Monopoly" font-size="30px" style="stroke: #000000" text-anchor="middle">
			<tspan x="150" y="75">
				Elektrizitaetswerk
			</tspan>
			<tspan x="150" y="480" stroke-width="0">
				RM 3200
			</tspan>
	</text>
</svg>

