<?xml version="1.0" encoding="UTF-8" standalone="no"?>
<!DOCTYPE svg PUBLIC "-//W3C//DTD SVG 20010904//EN" "http://www.w3.org/TR/2001/REC-SVG-20010904/DTD/svg10.dtd">

<svg xmlns="http://www.w3.org/2000/svg" width="304" height="506">
	
	<title>Extra Taxes</title>

	<rect id = "field_border"
		x="0" y="0" width="304" height="506" fill="#231f20"
	/>
	
	<rect id = "field"
		x="2" y="2" width="300" height="502" fill="#f7f7cf"
	/>
	
<path id="schawrz"
        fill="black" stroke="black" stroke-width="3"
        d="M 169.00,179.00
           C 169.00,184.32 170.34,190.30 168.00,195.00
             168.00,195.00 167.00,179.00 167.00,179.00
             167.00,179.00 169.00,179.00 169.00,179.00 Z
           M 185.00,201.00
           C 186.50,194.58 189.17,188.37 193.00,183.00
             193.78,188.39 188.40,196.94 185.00,201.00 Z
           M 156.00,200.00
           C 151.19,196.53 147.45,192.44 145.00,187.00
             150.12,189.99 153.84,194.48 156.00,200.00 Z
           M 215.00,200.00
           C 211.27,204.77 207.39,207.36 202.00,210.00
             205.49,205.35 209.44,201.88 215.00,200.00 Z
           M 149.00,209.00
           C 149.00,209.00 137.00,204.00 137.00,204.00
             137.00,204.00 149.00,209.00 149.00,209.00 Z
           M 186.00,215.00
           C 188.41,215.69 193.72,217.00 195.62,218.25
             198.39,220.07 198.75,222.58 203.09,226.33
             203.09,226.33 212.00,233.30 212.00,233.30
             224.32,243.84 241.11,260.86 241.90,278.00
             242.15,283.46 239.17,296.65 237.31,302.00
             233.80,312.05 231.76,315.95 222.00,321.11
             210.17,327.36 196.03,328.20 183.00,329.09
             183.00,329.09 174.00,329.98 174.00,329.98
             174.00,329.98 163.00,328.96 163.00,328.96
             163.00,328.96 155.00,328.96 155.00,328.96
             135.67,326.99 116.13,321.43 99.00,312.29
             79.47,301.88 65.28,289.52 65.00,266.00
             64.93,259.85 65.26,251.58 67.99,246.00
             76.95,227.76 111.24,219.40 130.00,216.44
             130.00,216.44 154.00,213.41 154.00,213.41
             155.81,212.76 158.22,211.05 160.00,210.01
             166.42,208.06 179.26,213.06 186.00,215.00 Z
           M 165.00,212.00
           C 161.49,219.52 161.00,235.44 161.00,244.00
             173.04,247.24 183.15,251.96 196.00,252.00
             197.25,245.00 199.87,231.65 188.00,237.00
             188.00,237.00 193.00,246.00 193.00,246.00
             186.98,240.06 183.82,235.64 179.00,245.00
             178.71,236.76 173.12,230.57 166.00,227.00
             173.36,226.17 173.27,223.84 178.00,222.69
             184.07,221.20 187.84,227.36 192.00,220.00
             192.00,220.00 182.00,217.45 182.00,217.45
             182.00,217.45 170.00,213.00 170.00,213.00
             170.00,213.00 173.00,220.00 173.00,220.00
             173.00,220.00 165.00,212.00 165.00,212.00 Z
           M 86.00,233.31
           C 75.11,239.29 66.32,249.78 69.00,263.00
             75.44,260.25 77.66,256.82 86.00,253.45
             98.89,248.24 113.31,247.98 127.00,248.00
             127.00,248.00 145.00,249.00 145.00,249.00
             146.60,248.97 148.95,249.07 150.26,248.01
             151.59,246.94 151.66,245.50 152.00,244.00
             152.00,244.00 119.00,239.48 119.00,239.48
             115.13,238.62 109.66,236.21 112.90,231.34
             114.33,229.18 117.68,227.75 120.00,226.74
             126.29,224.02 133.22,222.89 140.00,222.16
             145.52,221.57 149.82,222.14 154.00,218.00
             134.61,216.33 103.04,223.95 86.00,233.31 Z
           M 228.00,217.00
           C 223.91,218.33 219.26,220.20 215.00,219.00
             215.00,219.00 228.00,217.00 228.00,217.00 Z
           M 123.00,227.03
           C 120.01,227.99 113.55,230.46 114.74,234.70
             115.61,237.79 121.46,237.88 124.00,238.00
             124.00,238.00 152.00,240.00 152.00,240.00
             152.00,240.00 153.00,223.00 153.00,223.00
             142.87,223.00 132.71,223.89 123.00,227.03 Z
           M 189.00,225.00
           C 189.85,230.36 190.21,233.01 196.00,234.00
             196.00,234.00 196.00,223.00 196.00,223.00
             196.00,223.00 189.00,225.00 189.00,225.00 Z
           M 184.89,236.25
           C 189.05,234.60 189.51,229.63 186.49,226.65
             183.82,224.01 180.45,223.95 177.06,224.60
             168.08,230.12 178.77,238.68 184.89,236.25 Z
           M 218.00,243.00
           C 212.50,237.50 206.81,230.93 199.00,229.00
             199.48,237.03 203.13,237.79 209.00,242.61
             214.47,247.11 227.14,257.42 229.02,264.00
             229.70,266.30 229.25,268.67 229.02,271.00
             220.94,270.15 211.03,263.48 203.00,260.70
             201.18,260.07 194.02,258.15 196.17,262.85
             197.25,265.22 209.91,271.85 213.00,274.04
             221.60,280.13 227.30,286.88 233.26,295.30
             233.26,295.30 234.87,295.26 234.87,295.26
             245.46,272.64 233.67,258.67 218.00,243.00 Z
           M 172.00,237.00
           C 172.00,237.00 166.00,239.00 166.00,239.00
             166.00,239.00 171.00,236.00 171.00,236.00
             171.00,236.00 172.00,237.00 172.00,237.00 Z
           M 219.00,254.00
           C 213.31,248.25 207.24,241.57 199.00,240.00
             199.00,240.00 199.00,257.00 199.00,257.00
             208.96,259.84 217.35,267.03 228.00,268.00
             227.01,261.52 223.46,258.51 219.00,254.00 Z
           M 71.83,270.00
           C 69.80,274.92 68.37,278.05 71.11,283.00
             72.57,285.64 75.03,288.78 77.09,291.00
             80.41,294.56 83.99,297.52 88.00,300.25
             109.92,315.17 138.71,323.25 165.00,325.09
             165.00,325.09 175.00,326.00 175.00,326.00
             187.83,326.15 207.53,323.95 219.00,318.19
             229.10,313.12 233.82,305.90 228.60,295.00
             227.28,292.26 224.50,288.36 222.54,286.01
             219.42,282.30 214.99,278.81 211.00,276.04
             185.64,258.42 141.71,248.42 111.00,251.29
             97.15,253.40 77.87,255.33 71.83,270.00 Z
           M 79.74,269.18
           C 83.02,264.55 91.63,262.27 97.00,261.26
             121.72,256.61 144.86,258.94 169.00,265.58
             176.49,267.64 185.17,269.70 192.00,273.44
             201.11,278.41 212.71,285.48 219.73,293.17
             224.37,298.35 225.89,305.07 219.73,309.90
             217.95,311.35 213.24,313.69 211.00,314.69
             206.92,316.51 205.18,316.61 200.78,316.83
             200.78,316.83 200.87,316.83 199.57,299.70
             199.57,299.70 172.00,301.00 172.00,301.00
             163.07,301.01 151.73,300.17 143.00,298.34
             133.77,296.40 123.34,292.61 115.00,288.22
             109.06,285.09 103.59,280.57 97.00,279.00
             97.00,279.00 94.73,297.00 94.73,297.00
             86.29,293.40 72.91,278.83 79.74,269.18 Z
           M 186.00,273.60
           C 169.97,267.11 146.29,261.03 129.00,261.00
             129.00,261.00 117.00,261.00 117.00,261.00
             112.25,261.01 105.51,261.54 101.01,262.94
             98.52,263.71 95.80,264.92 96.32,268.04
             97.53,275.36 113.67,283.69 120.00,286.74
             144.72,298.68 184.76,301.68 210.00,290.00
             206.19,282.31 193.79,276.76 186.00,273.60 Z" />

<path id="gelb"
        fill="yellow" 
        d="M 107.13,225.50
           C 111.63,222.88 148.88,215.25 155.00,219.50
             155.00,219.50 125.88,223.38 125.88,223.38
             117.15,226.59 102.00,233.63 114.88,239.50
             119.37,241.40 134.37,242.60 140.00,243.17
             144.63,243.63 148.34,243.25 150.00,248.00
             150.00,248.00 120.00,246.09 120.00,246.09
             111.07,246.60 99.53,247.65 91.00,250.21
             80.02,253.50 78.56,256.49 70.00,261.00
             71.09,237.31 87.71,231.91 107.13,225.50 Z
           M 216.18,242.09
           C 221.21,246.14 227.16,253.03 231.50,258.95
             232.38,260.14 229.55,261.28 230.27,262.36
             230.27,262.36 224.52,254.87 216.82,247.91
             208.89,240.74 200.09,234.00 200.09,234.00
             200.09,234.00 200.36,230.55 200.36,230.55
             205.11,230.55 212.61,239.22 216.18,242.09 Z
           M 144.00,254.00
           C 167.65,257.23 194.81,265.30 214.00,279.90
             217.75,282.75 220.41,285.19 223.24,289.00
             224.93,291.27 226.90,294.35 227.87,297.00
             231.25,306.27 227.13,312.31 219.00,316.68
             210.17,321.42 194.04,323.98 184.00,324.00
             184.00,324.00 168.00,324.00 168.00,324.00
             155.55,323.85 125.58,317.24 114.00,312.55
             105.51,309.11 93.30,302.67 86.00,297.24
             81.33,293.77 72.13,284.97 71.36,279.00
             71.06,276.62 72.04,273.24 72.88,271.00
             74.27,267.30 75.96,264.50 79.17,262.10
             83.51,258.86 89.79,257.25 95.00,255.88
             103.42,253.67 108.79,253.59 117.00,252.42
             124.58,251.50 136.25,252.94 144.00,254.00 Z
           M 200.64,317.82
           C 202.69,319.28 208.34,316.52 210.45,315.73
             216.86,313.31 224.59,310.73 225.42,303.00
             226.35,294.35 212.28,284.57 206.00,280.14
             184.30,264.84 146.44,256.69 120.00,257.00
             110.83,257.11 93.16,259.57 85.00,263.49
             76.02,267.81 74.01,275.61 79.12,284.00
             80.36,286.04 82.65,289.11 84.30,290.83
             87.11,293.76 91.19,295.55 94.69,297.56
             97.94,279.50 97.32,285.71 97.81,279.63
             110.16,286.23 118.93,293.04 133.00,297.28
             150.38,302.52 161.38,302.03 179.00,302.00
             179.00,302.00 199.00,301.00 199.00,301.00
             199.00,304.24 198.17,316.05 200.64,317.82 Z
           M 234.55,295.00
           C 234.55,295.00 218.00,276.18 218.00,276.18
             218.00,276.18 196.00,261.00 196.00,261.00
             204.22,261.40 210.56,265.57 218.00,268.86
             220.41,269.93 225.16,272.70 227.72,271.65
             231.89,269.95 230.73,263.27 229.64,257.18
             239.22,266.15 239.09,284.45 234.55,295.00 Z" />
			 
<path id="weiß"
        fill="white"
        d="M 167.00,214.00
           C 167.00,214.00 174.00,221.00 174.00,221.00
             174.00,221.00 172.00,215.00 172.00,215.00
             172.00,215.00 181.00,218.61 181.00,218.61
             181.00,218.61 190.00,220.00 190.00,220.00
             186.72,224.73 184.24,220.79 179.00,221.17
             179.00,221.17 165.00,226.00 165.00,226.00
             165.00,226.00 165.00,228.00 165.00,228.00
             169.60,230.14 170.31,230.66 173.00,235.00
             168.33,236.49 166.31,237.56 164.00,242.00
             164.00,242.00 173.00,236.00 173.00,236.00
             177.72,238.66 176.98,241.01 177.00,246.00
             177.00,246.00 181.00,246.00 181.00,246.00
             181.00,246.00 183.00,240.00 183.00,240.00
             183.00,240.00 194.00,248.00 194.00,248.00
             194.00,248.00 190.00,237.00 190.00,237.00
             190.00,237.00 195.00,237.00 195.00,237.00
             195.00,237.00 195.00,251.00 195.00,251.00
             195.00,251.00 172.00,245.98 172.00,245.98
             172.00,245.98 163.99,242.30 163.99,242.30
             163.99,242.30 163.00,233.00 163.00,233.00
             163.00,233.00 165.00,214.00 165.00,214.00
             165.00,214.00 167.00,214.00 167.00,214.00 Z
           M 195.00,233.00
           C 190.60,230.23 190.67,227.69 194.00,224.00
             194.00,224.00 195.00,233.00 195.00,233.00 Z
           M 185.40,227.65
           C 187.18,229.60 187.36,233.13 184.69,234.40
             180.43,236.41 171.26,231.88 177.18,226.04
             180.19,225.12 183.05,225.07 185.40,227.65 Z" />
			 
	<text id = "tag"
		x="150" y="75" font-size="30px" style="stroke: #000000" text-anchor="middle">
		Zusatzsteuern
	</text>
	
	<text id = "price"
		x="150" y="480" font-size="33px" text-anchor="middle">
		RM 2000
	</text>
</svg>

