<?xml version="1.0" encoding="UTF-8" standalone="no"?>
<!DOCTYPE svg PUBLIC "-//W3C//DTD SVG 20010904//EN" "http://www.w3.org/TR/2001/REC-SVG-20010904/DTD/svg10.dtd">

<svg xmlns="http://www.w3.org/2000/svg" width="506" height="506">
	
	<title>Free Parking</title>
	 
	<rect id = "field_border"
		x="0" y="0" width="506" height="506" fill="#231f20"
	/>
	<rect id = "field"
		x="2" y="2" width="502" height="502" fill="#f7f7cf"
	/>
	
	<path id="car_rot"
        fill="#ee2d2b" stroke="#231f20" stroke-width="2"
        d="M 298.00,125.34
           C 334.24,137.88 361.30,166.19 378.25,200.00
             383.84,211.15 388.75,221.68 391.51,234.00
             392.12,237.75 393.46,244.47 391.51,247.91
             389.44,252.24 378.47,258.12 374.00,260.80
             374.00,260.80 330.00,286.00 330.00,286.00
             325.36,288.65 314.32,293.78 311.78,298.04
             309.26,302.28 312.52,306.52 314.89,310.00
             318.70,315.60 327.97,328.43 328.26,335.00
             328.58,342.16 316.17,351.27 311.00,355.40
             308.59,357.33 301.72,363.12 299.00,363.60
             295.16,364.28 288.95,357.14 286.00,354.58
             286.00,354.58 253.00,326.37 253.00,326.37
             243.04,318.90 238.89,317.35 227.00,314.37
             221.13,312.91 209.65,311.03 205.09,307.49
             193.31,298.36 196.35,280.38 188.89,269.00
             188.89,269.00 149.58,223.00 149.58,223.00
             147.08,220.07 135.58,207.27 134.66,205.00
             133.11,201.22 136.45,198.63 138.72,196.00
             138.72,196.00 155.00,179.02 155.00,179.02
             157.64,176.49 160.02,173.85 164.00,174.70
             168.24,175.61 184.23,186.93 189.00,189.95
             192.86,192.39 197.19,195.67 202.00,194.34
             210.90,191.86 216.45,181.60 220.25,174.00
             220.25,174.00 239.60,138.00 239.60,138.00
             242.81,132.69 248.20,123.03 254.00,120.73
             255.60,120.10 259.15,119.71 261.00,119.43
             270.83,118.31 288.52,122.06 298.00,125.34 Z
           M 261.55,189.00
           C 264.45,197.16 270.06,202.06 276.00,208.00
             283.51,215.51 302.00,235.03 310.00,239.64
             314.07,241.98 317.35,242.87 322.00,242.99
             342.44,243.48 356.09,225.33 348.91,206.00
             345.89,197.88 338.02,192.00 332.00,186.00
             332.00,186.00 315.00,169.00 315.00,169.00
             304.44,158.44 299.00,151.71 283.00,153.30
             266.36,156.55 255.72,172.63 261.55,189.00 Z
           M 204.32,238.00
           C 188.12,268.20 209.04,306.60 244.00,307.00
             260.76,307.19 276.54,299.57 285.53,285.00
             300.89,260.11 288.93,225.76 261.00,216.52
             253.23,213.95 247.11,213.49 239.00,214.30
             224.02,217.09 211.73,224.19 204.32,238.00 Z" />
			 
	<path id="car_border"
		stroke="#231f20" stroke-width="2" fill="#231f20"
        d="M 149.00,173.17
           C 153.16,169.43 157.97,164.88 164.00,166.02
             172.79,167.68 192.92,184.28 198.00,185.55
             201.75,186.50 204.44,183.60 206.67,180.98
             210.43,176.58 214.97,166.56 217.75,161.00
             217.75,161.00 234.81,130.00 234.81,130.00
             237.80,125.19 243.20,117.40 248.04,114.53
             252.91,111.64 262.36,110.71 268.00,111.09
             311.91,114.07 346.23,137.85 371.42,173.00
             377.20,181.06 384.46,192.95 388.42,202.00
             393.55,213.69 398.33,224.19 399.89,237.00
             400.82,241.92 401.66,246.13 399.89,250.96
             397.09,257.18 383.94,264.43 378.00,267.85
             378.00,267.85 319.00,301.00 319.00,301.00
             324.22,310.31 336.83,325.28 336.64,336.00
             336.55,341.66 332.71,346.17 328.98,350.00
             322.79,356.38 316.16,361.99 309.00,367.27
             306.42,369.17 300.11,374.36 297.00,373.99
             294.44,373.68 291.84,370.76 290.00,369.08
             286.49,365.88 282.88,362.74 279.00,360.00
             275.67,366.20 272.71,367.98 268.17,373.00
             261.77,380.07 252.96,391.82 244.00,394.89
             231.21,399.28 217.65,388.55 219.31,375.00
             220.58,364.70 233.25,353.64 240.17,346.00
             242.53,343.39 249.66,337.88 248.09,334.09
             246.96,331.37 239.76,327.15 237.00,325.90
             227.17,321.46 207.35,319.88 200.29,314.20
             187.20,303.69 187.81,286.83 184.44,278.00
             182.12,271.92 170.86,259.90 166.00,255.00
             161.95,260.61 159.75,261.50 155.00,266.04
             147.31,273.40 136.12,287.13 125.00,287.90
             111.80,288.82 101.67,276.80 105.45,264.00
             108.09,255.04 113.74,251.95 120.00,245.96
             120.00,245.96 131.00,235.17 131.00,235.17
             133.75,232.68 140.68,228.29 139.09,224.00
             139.09,224.00 122.00,203.00 122.00,203.00
             127.55,196.23 143.01,178.56 149.00,173.17 Z
           M 238.60,137.00
           C 238.60,137.00 223.25,165.00 223.25,165.00
             220.14,171.21 215.84,180.91 211.53,185.96
             210.07,187.68 208.81,188.88 206.99,190.21
             199.46,195.69 195.96,192.78 189.00,188.31
             184.21,185.23 167.51,173.34 163.00,172.86
             157.72,172.30 146.75,185.07 143.09,189.00
             140.90,191.35 133.49,199.36 132.88,202.00
             131.83,206.53 139.77,213.74 142.58,217.00
             142.58,217.00 175.58,255.00 175.58,255.00
             180.82,261.11 188.29,268.50 190.90,276.00
             194.75,287.06 193.61,298.70 203.18,307.78
             206.99,311.39 212.10,312.15 217.00,313.37
             224.93,315.36 235.99,317.57 243.00,321.32
             253.89,327.15 272.33,344.13 282.00,352.83
             285.05,355.58 294.55,365.27 298.00,365.27
             302.19,365.28 313.49,355.19 317.00,352.25
             321.27,348.67 328.41,342.69 329.55,337.00
             331.44,327.53 313.96,308.65 312.71,303.00
             311.07,295.67 325.74,290.01 331.00,287.00
             331.00,287.00 375.00,261.80 375.00,261.80
             379.42,259.15 390.55,253.10 392.81,248.91
             394.96,244.98 393.68,238.20 392.81,234.00
             390.09,221.31 385.00,210.49 379.25,199.00
             360.02,160.65 327.05,128.76 284.00,120.20
             275.07,118.42 267.12,117.39 258.00,118.30
             247.58,120.37 243.74,128.48 238.60,137.00 Z
           M 313.00,169.00
           C 313.00,169.00 329.00,184.83 329.00,184.83
             335.99,191.15 345.49,198.57 348.21,208.00
             353.23,225.38 340.50,243.05 322.00,241.91
             311.24,241.24 304.19,234.17 297.00,227.00
             297.00,227.00 277.00,207.00 277.00,207.00
             271.39,201.39 265.91,196.66 263.09,189.00
             258.68,176.98 263.47,163.42 275.00,157.40
             278.29,155.68 281.41,155.10 285.00,154.45
             298.11,153.33 304.45,160.45 313.00,169.00 Z
           M 269.97,188.00
           C 272.14,192.85 278.16,198.16 282.00,202.00
             282.00,202.00 304.00,224.00 304.00,224.00
             309.50,229.49 313.73,234.33 322.00,234.90
             336.12,235.89 346.82,222.36 341.39,209.00
             339.06,203.26 332.41,197.41 328.00,193.00
             328.00,193.00 310.00,175.00 310.00,175.00
             301.62,166.62 296.79,159.95 284.00,161.33
             271.54,164.32 264.57,175.95 269.97,188.00 Z
           M 247.00,215.30
           C 266.61,216.58 283.08,227.74 288.96,247.00
             296.64,272.14 281.86,298.51 256.00,304.34
             252.76,305.07 247.24,306.05 244.00,305.82
             235.76,305.22 225.73,302.24 219.00,297.40
             196.76,281.40 193.35,249.09 212.30,229.17
             220.87,220.16 230.16,217.21 242.00,215.30
             243.98,215.20 244.96,215.04 247.00,215.30 Z
           M 210.33,244.00
           C 198.59,268.92 216.64,297.89 244.00,298.96
             279.58,300.36 298.41,256.02 271.99,232.18
             268.59,229.12 264.29,226.32 260.00,224.71
             252.88,222.04 247.51,221.55 240.00,222.30
             226.81,224.79 216.20,231.53 210.33,244.00 Z
           M 132.00,243.91
           C 127.21,248.37 115.93,257.66 113.16,263.00
             109.27,270.48 113.28,279.82 122.00,280.80
             130.75,281.78 136.36,274.44 142.00,269.04
             142.00,269.04 153.00,259.00 153.00,259.00
             154.92,257.10 159.99,252.48 160.55,250.00
             161.10,247.56 159.35,245.72 157.93,244.00
             154.76,240.17 150.06,232.90 144.91,232.73
             139.76,235.23 136.15,240.04 132.00,243.91 Z
           M 252.98,273.55
           C 250.26,274.95 247.01,275.11 244.00,274.96
             232.04,274.33 227.03,261.32 233.00,252.04
             235.74,247.79 239.30,246.51 244.00,245.56
             262.75,245.03 265.15,267.28 252.98,273.55 Z
           M 237.47,259.00
           C 236.33,264.33 241.67,269.67 247.00,268.53
             256.44,266.51 256.06,251.91 244.00,252.47
             240.72,253.74 238.28,255.24 237.47,259.00 Z
           M 242.01,354.00
           C 242.01,354.00 231.10,366.00 231.10,366.00
             220.14,378.43 229.03,391.29 241.00,388.61
             247.87,387.07 258.75,373.54 263.91,368.00
             266.54,365.18 274.22,357.96 272.83,354.00
             271.71,350.80 260.19,341.77 257.00,339.00
             251.25,343.13 246.94,348.93 242.01,354.00 Z"
	/>

	<path id="car_white"
        fill="#ffffff"
        d="M 248.00,112.00
           C 248.00,112.00 247.00,113.00 247.00,113.00
             247.00,113.00 247.00,112.00 247.00,112.00
             247.00,112.00 248.00,112.00 248.00,112.00 Z
           M 237.00,124.00
           C 237.00,124.00 236.00,125.00 236.00,125.00
             236.00,125.00 236.00,124.00 236.00,124.00
             236.00,124.00 237.00,124.00 237.00,124.00 Z
           M 235.00,127.00
           C 235.00,127.00 234.00,128.00 234.00,128.00
             234.00,128.00 234.00,127.00 234.00,127.00
             234.00,127.00 235.00,127.00 235.00,127.00 Z
           M 330.00,129.00
           C 330.00,129.00 329.00,130.00 329.00,130.00
             329.00,130.00 329.00,129.00 329.00,129.00
             329.00,129.00 330.00,129.00 330.00,129.00 Z
           M 233.00,130.00
           C 233.00,130.00 232.00,131.00 232.00,131.00
             232.00,131.00 232.00,130.00 232.00,130.00
             232.00,130.00 233.00,130.00 233.00,130.00 Z
           M 333.00,131.00
           C 333.00,131.00 332.00,132.00 332.00,132.00
             332.00,132.00 332.00,131.00 332.00,131.00
             332.00,131.00 333.00,131.00 333.00,131.00 Z
           M 227.00,140.00
           C 227.00,140.00 226.00,141.00 226.00,141.00
             226.00,141.00 226.00,140.00 226.00,140.00
             226.00,140.00 227.00,140.00 227.00,140.00 Z
           M 345.00,140.00
           C 345.00,140.00 344.00,141.00 344.00,141.00
             344.00,141.00 344.00,140.00 344.00,140.00
             344.00,140.00 345.00,140.00 345.00,140.00 Z
           M 226.00,142.00
           C 226.00,142.00 225.00,143.00 225.00,143.00
             225.00,143.00 225.00,142.00 225.00,142.00
             225.00,142.00 226.00,142.00 226.00,142.00 Z
           M 219.00,155.00
           C 219.00,155.00 218.00,156.00 218.00,156.00
             218.00,156.00 218.00,155.00 218.00,155.00
             218.00,155.00 219.00,155.00 219.00,155.00 Z
           M 295.00,164.23
           C 299.50,166.11 303.58,170.58 307.00,174.00
             307.00,174.00 325.00,192.00 325.00,192.00
             329.28,196.28 337.55,203.69 339.77,209.00
             344.81,221.05 335.27,235.02 322.00,233.66
             313.82,232.82 309.44,227.44 304.00,222.00
             304.00,222.00 283.00,201.00 283.00,201.00
             279.61,197.61 273.54,192.13 271.57,188.00
             267.04,178.50 271.54,167.63 281.00,163.65
             285.37,162.74 290.79,162.47 295.00,164.23 Z
           M 367.00,163.00
           C 367.00,163.00 366.00,164.00 366.00,164.00
             366.00,164.00 366.00,163.00 366.00,163.00
             366.00,163.00 367.00,163.00 367.00,163.00 Z
           M 167.00,164.00
           C 167.00,164.00 166.00,165.00 166.00,165.00
             166.00,165.00 166.00,164.00 166.00,164.00
             166.00,164.00 167.00,164.00 167.00,164.00 Z
           M 169.00,165.00
           C 169.00,165.00 168.00,166.00 168.00,166.00
             168.00,166.00 168.00,165.00 168.00,165.00
             168.00,165.00 169.00,165.00 169.00,165.00 Z
           M 171.00,166.00
           C 171.00,166.00 170.00,167.00 170.00,167.00
             170.00,167.00 170.00,166.00 170.00,166.00
             170.00,166.00 171.00,166.00 171.00,166.00 Z
           M 373.00,171.00
           C 373.00,171.00 372.00,172.00 372.00,172.00
             372.00,172.00 372.00,171.00 372.00,171.00
             372.00,171.00 373.00,171.00 373.00,171.00 Z
           M 181.00,172.00
           C 181.00,172.00 180.00,173.00 180.00,173.00
             180.00,173.00 180.00,172.00 180.00,172.00
             180.00,172.00 181.00,172.00 181.00,172.00 Z
           M 184.00,174.00
           C 184.00,174.00 183.00,175.00 183.00,175.00
             183.00,175.00 183.00,174.00 183.00,174.00
             183.00,174.00 184.00,174.00 184.00,174.00 Z
           M 187.00,176.00
           C 187.00,176.00 186.00,177.00 186.00,177.00
             186.00,177.00 186.00,176.00 186.00,176.00
             186.00,176.00 187.00,176.00 187.00,176.00 Z
           M 141.00,179.00
           C 141.00,179.00 140.00,180.00 140.00,180.00
             140.00,180.00 140.00,179.00 140.00,179.00
             140.00,179.00 141.00,179.00 141.00,179.00 Z
           M 193.00,180.00
           C 193.00,180.00 192.00,181.00 192.00,181.00
             192.00,181.00 192.00,180.00 192.00,180.00
             192.00,180.00 193.00,180.00 193.00,180.00 Z
           M 196.00,182.00
           C 196.00,182.00 195.00,183.00 195.00,183.00
             195.00,183.00 195.00,182.00 195.00,182.00
             195.00,182.00 196.00,182.00 196.00,182.00 Z
           M 201.00,184.00
           C 201.00,184.00 200.00,185.00 200.00,185.00
             200.00,185.00 200.00,184.00 200.00,184.00
             200.00,184.00 201.00,184.00 201.00,184.00 Z
           M 384.00,188.00
           C 384.00,188.00 383.00,189.00 383.00,189.00
             383.00,189.00 383.00,188.00 383.00,188.00
             383.00,188.00 384.00,188.00 384.00,188.00 Z
           M 131.00,190.00
           C 131.00,190.00 130.00,191.00 130.00,191.00
             130.00,191.00 130.00,190.00 130.00,190.00
             130.00,190.00 131.00,190.00 131.00,190.00 Z
           M 385.00,190.00
           C 385.00,190.00 384.00,191.00 384.00,191.00
             384.00,191.00 384.00,190.00 384.00,190.00
             384.00,190.00 385.00,190.00 385.00,190.00 Z
           M 392.00,204.00
           C 392.00,204.00 391.00,205.00 391.00,205.00
             391.00,205.00 391.00,204.00 391.00,204.00
             391.00,204.00 392.00,204.00 392.00,204.00 Z
           M 123.00,206.00
           C 123.00,206.00 122.00,207.00 122.00,207.00
             122.00,207.00 122.00,206.00 122.00,206.00
             122.00,206.00 123.00,206.00 123.00,206.00 Z
           M 393.00,206.00
           C 393.00,206.00 392.00,207.00 392.00,207.00
             392.00,207.00 392.00,206.00 392.00,206.00
             392.00,206.00 393.00,206.00 393.00,206.00 Z
           M 135.00,220.00
           C 135.00,220.00 134.00,221.00 134.00,221.00
             134.00,221.00 134.00,220.00 134.00,220.00
             134.00,220.00 135.00,220.00 135.00,220.00 Z
           M 272.82,235.04
           C 288.09,251.58 285.53,279.47 266.00,291.53
             257.68,296.67 252.40,297.11 243.00,297.00
             215.28,296.66 200.00,265.35 212.90,242.00
             219.86,229.41 231.45,224.74 245.00,223.59
             255.52,223.69 265.53,227.15 272.82,235.04 Z
           M 400.00,225.00
           C 400.00,225.00 399.00,226.00 399.00,226.00
             399.00,226.00 399.00,225.00 399.00,225.00
             399.00,225.00 400.00,225.00 400.00,225.00 Z
           M 158.66,249.00
           C 158.70,251.95 154.01,256.00 152.00,258.00
             152.00,258.00 134.00,274.81 134.00,274.81
             130.68,277.69 126.61,280.33 122.00,279.62
             114.50,278.46 111.11,270.58 114.31,264.00
             115.45,261.66 117.24,259.85 119.02,258.00
             119.02,258.00 128.00,249.17 128.00,249.17
             128.00,249.17 145.00,233.00 145.00,233.00
             148.24,235.33 158.62,245.09 158.66,249.00 Z
           M 231.23,252.02
           C 225.56,261.46 230.87,275.51 244.00,276.80
             262.56,278.64 269.15,252.52 252.00,245.48
             248.58,244.08 246.58,244.01 243.00,244.33
             237.84,245.56 234.08,247.26 231.23,252.02 Z
           M 111.00,252.00
           C 111.00,252.00 110.00,253.00 110.00,253.00
             110.00,253.00 110.00,252.00 110.00,252.00
             110.00,252.00 111.00,252.00 111.00,252.00 Z
           M 109.00,254.00
           C 109.00,254.00 108.00,255.00 108.00,255.00
             108.00,255.00 108.00,254.00 108.00,254.00
             108.00,254.00 109.00,254.00 109.00,254.00 Z
           M 249.69,255.60
           C 253.08,258.45 252.63,265.44 246.98,266.67
             240.56,268.06 235.82,260.62 242.15,255.02
             244.83,254.10 247.22,253.53 249.69,255.60 Z
           M 168.00,258.00
           C 168.00,258.00 167.00,259.00 167.00,259.00
             167.00,259.00 167.00,258.00 167.00,258.00
             167.00,258.00 168.00,258.00 168.00,258.00 Z
           M 392.00,261.00
           C 392.00,261.00 391.00,262.00 391.00,262.00
             391.00,262.00 391.00,261.00 391.00,261.00
             391.00,261.00 392.00,261.00 392.00,261.00 Z
           M 145.00,278.00
           C 145.00,278.00 145.00,277.00 145.00,277.00
             145.00,277.00 147.00,275.00 147.00,275.00
             147.00,275.00 145.00,278.00 145.00,278.00 Z
           M 182.00,275.00
           C 182.00,275.00 181.00,276.00 181.00,276.00
             181.00,276.00 181.00,275.00 181.00,275.00
             181.00,275.00 182.00,275.00 182.00,275.00 Z
           M 109.00,283.00
           C 109.00,283.00 108.00,284.00 108.00,284.00
             108.00,284.00 108.00,283.00 108.00,283.00
             108.00,283.00 109.00,283.00 109.00,283.00 Z
           M 136.00,286.00
           C 136.00,286.00 135.00,287.00 135.00,287.00
             135.00,287.00 135.00,286.00 135.00,286.00
             135.00,286.00 136.00,286.00 136.00,286.00 Z
           M 134.00,287.00
           C 134.00,287.00 133.00,288.00 133.00,288.00
             133.00,288.00 133.00,287.00 133.00,287.00
             133.00,287.00 134.00,287.00 134.00,287.00 Z
           M 132.00,288.00
           C 132.00,288.00 131.00,289.00 131.00,289.00
             131.00,289.00 131.00,288.00 131.00,288.00
             131.00,288.00 132.00,288.00 132.00,288.00 Z
           M 128.00,289.00
           C 128.00,289.00 127.00,290.00 127.00,290.00
             127.00,290.00 127.00,289.00 127.00,289.00
             127.00,289.00 128.00,289.00 128.00,289.00 Z
           M 192.00,306.00
           C 192.00,306.00 191.00,307.00 191.00,307.00
             191.00,307.00 191.00,306.00 191.00,306.00
             191.00,306.00 192.00,306.00 192.00,306.00 Z
           M 325.00,306.00
           C 325.00,306.00 324.00,307.00 324.00,307.00
             324.00,307.00 324.00,306.00 324.00,306.00
             324.00,306.00 325.00,306.00 325.00,306.00 Z
           M 194.00,309.00
           C 194.00,309.00 193.00,310.00 193.00,310.00
             193.00,310.00 193.00,309.00 193.00,309.00
             193.00,309.00 194.00,309.00 194.00,309.00 Z
           M 327.00,309.00
           C 327.00,309.00 326.00,310.00 326.00,310.00
             326.00,310.00 326.00,309.00 326.00,309.00
             326.00,309.00 327.00,309.00 327.00,309.00 Z
           M 329.00,312.00
           C 329.00,312.00 328.00,313.00 328.00,313.00
             328.00,313.00 328.00,312.00 328.00,312.00
             328.00,312.00 329.00,312.00 329.00,312.00 Z
           M 331.00,315.00
           C 331.00,315.00 330.00,316.00 330.00,316.00
             330.00,316.00 330.00,315.00 330.00,315.00
             330.00,315.00 331.00,315.00 331.00,315.00 Z
           M 204.00,318.00
           C 204.00,318.00 203.00,319.00 203.00,319.00
             203.00,319.00 203.00,318.00 203.00,318.00
             203.00,318.00 204.00,318.00 204.00,318.00 Z
           M 335.00,322.00
           C 335.00,322.00 334.00,323.00 334.00,323.00
             334.00,323.00 334.00,322.00 334.00,322.00
             334.00,322.00 335.00,322.00 335.00,322.00 Z
           M 222.00,323.00
           C 222.00,323.00 221.00,324.00 221.00,324.00
             221.00,324.00 221.00,323.00 221.00,323.00
             221.00,323.00 222.00,323.00 222.00,323.00 Z
           M 336.00,324.00
           C 336.00,324.00 335.00,325.00 335.00,325.00
             335.00,325.00 335.00,324.00 335.00,324.00
             335.00,324.00 336.00,324.00 336.00,324.00 Z
           M 230.00,325.00
           C 230.00,325.00 229.00,326.00 229.00,326.00
             229.00,326.00 229.00,325.00 229.00,325.00
             229.00,325.00 230.00,325.00 230.00,325.00 Z
           M 234.00,326.00
           C 234.00,326.00 233.00,327.00 233.00,327.00
             233.00,327.00 233.00,326.00 233.00,326.00
             233.00,326.00 234.00,326.00 234.00,326.00 Z
           M 237.00,327.00
           C 237.00,327.00 236.00,328.00 236.00,328.00
             236.00,328.00 236.00,327.00 236.00,327.00
             236.00,327.00 237.00,327.00 237.00,327.00 Z
           M 248.00,334.00
           C 248.00,334.00 247.00,335.00 247.00,335.00
             247.00,335.00 247.00,334.00 247.00,334.00
             247.00,334.00 248.00,334.00 248.00,334.00 Z
           M 273.00,356.00
           C 273.00,356.00 254.42,376.00 254.42,376.00
             250.60,380.41 245.99,386.18 240.00,387.45
             230.79,389.42 225.16,379.98 228.65,372.00
             230.29,368.27 234.09,365.04 236.83,362.00
             236.83,362.00 256.00,341.00 256.00,341.00
             261.77,344.37 269.10,350.60 273.00,356.00 Z
           M 239.00,345.00
           C 239.00,345.00 238.00,346.00 238.00,346.00
             238.00,346.00 238.00,345.00 238.00,345.00
             238.00,345.00 239.00,345.00 239.00,345.00 Z
           M 336.00,345.00
           C 336.00,345.00 335.00,346.00 335.00,346.00
             335.00,346.00 335.00,345.00 335.00,345.00
             335.00,345.00 336.00,345.00 336.00,345.00 Z
           M 227.00,358.00
           C 227.00,358.00 226.00,359.00 226.00,359.00
             226.00,359.00 226.00,358.00 226.00,358.00
             226.00,358.00 227.00,358.00 227.00,358.00 Z
           M 282.00,363.00
           C 282.00,363.00 281.00,364.00 281.00,364.00
             281.00,364.00 281.00,363.00 281.00,363.00
             281.00,363.00 282.00,363.00 282.00,363.00 Z
           M 317.00,363.00
           C 317.00,363.00 316.00,364.00 316.00,364.00
             316.00,364.00 316.00,363.00 316.00,363.00
             316.00,363.00 317.00,363.00 317.00,363.00 Z
           M 277.00,366.00
           C 277.00,366.00 276.00,367.00 276.00,367.00
             276.00,367.00 276.00,366.00 276.00,366.00
             276.00,366.00 277.00,366.00 277.00,366.00 Z
           M 308.00,370.00
           C 308.00,370.00 307.00,371.00 307.00,371.00
             307.00,371.00 307.00,370.00 307.00,370.00
             307.00,370.00 308.00,370.00 308.00,370.00 Z
           M 218.00,372.00
           C 218.00,372.00 217.00,373.00 217.00,373.00
             217.00,373.00 217.00,372.00 217.00,372.00
             217.00,372.00 218.00,372.00 218.00,372.00 Z
           M 219.00,384.00
           C 219.00,384.00 218.00,385.00 218.00,385.00
             218.00,385.00 218.00,384.00 218.00,384.00
             218.00,384.00 219.00,384.00 219.00,384.00 Z
           M 221.00,388.00
           C 221.00,388.00 220.00,389.00 220.00,389.00
             220.00,389.00 220.00,388.00 220.00,388.00
             220.00,388.00 221.00,388.00 221.00,388.00 Z
           M 227.00,394.00
           C 227.00,394.00 226.00,395.00 226.00,395.00
             226.00,395.00 226.00,394.00 226.00,394.00
             226.00,394.00 227.00,394.00 227.00,394.00 Z"
	/>

	<text id="toplabel"
		x="379" y="126" font-size="45px" stroke="#000000" text-anchor="middle"
		transform = "rotate(45 379 126)">
		Frei
	</text>

	<text id="bottomlabel"
		x="126" y="379" font-size="45px" stroke="#000000" text-anchor="middle"
		transform = "rotate(45 126 379)">
		Parken
	</text>

</svg>

