<?xml version="1.0" encoding="UTF-8" standalone="no"?>
<!DOCTYPE svg PUBLIC "-//W3C//DTD SVG 20010904//EN" "http://www.w3.org/TR/2001/REC-SVG-20010904/DTD/svg10.dtd">

<svg xmlns="http://www.w3.org/2000/svg" width="304" height="506">
	
	<title>Water pump</title>

	<rect id = "field_border"
		x="0" y="0" width="304" height="506"
		rx="0" ry="0" fill="#231f20" stroke=""
	/>
	<rect id = "field"
		x="2" y="2" width="300" height="502"
		rx="0" ry="0" fill="#f7f7cf" stroke=""
	/>

	<path id="weiss"
        fill="#ffffff"
        d="M 51.27,229.09
           C 51.27,229.09 48.73,257.09 48.73,257.09
             48.73,257.09 50.00,277.64 50.00,277.64
             50.00,277.64 55.27,288.18 55.27,288.18
             55.27,288.18 80.18,286.55 80.18,286.55
             80.18,286.55 84.55,268.36 84.55,268.36
             84.55,268.36 76.36,255.09 76.36,255.09
             76.36,255.09 86.00,236.73 86.00,236.73
             86.00,236.73 84.00,220.18 84.00,220.18
             84.00,220.18 67.45,215.09 67.45,215.09
             67.45,215.09 51.27,229.09 51.27,229.09 Z
           M 98.91,241.45
           C 98.55,241.45 80.00,244.18 80.00,244.18
             80.00,244.18 77.45,261.64 77.45,261.64
             77.45,261.64 89.64,266.73 89.64,266.73
             89.64,266.73 138.18,268.18 138.18,268.18
             138.18,268.18 146.36,276.73 146.36,276.73
             146.36,276.73 173.09,278.73 173.09,278.73
             173.09,278.73 181.82,271.09 181.82,271.09
             181.82,271.09 223.27,271.45 223.27,271.45
             223.27,271.45 238.55,279.82 238.55,279.82
             238.55,279.82 242.36,332.00 242.36,332.00
             242.36,332.00 262.55,331.64 262.55,331.64
             262.55,331.64 261.82,263.45 261.82,263.45
             261.82,263.45 247.45,247.82 247.45,247.82
             247.45,247.82 190.55,245.27 190.55,245.27
             190.55,245.27 181.82,249.82 181.82,249.82
             181.82,249.82 176.73,244.91 176.73,244.91
             176.73,244.91 180.91,231.45 180.91,231.45
             180.91,231.45 148.73,231.09 148.73,231.09
             148.73,231.09 146.18,240.18 146.18,240.18
             146.18,240.18 99.27,241.45 98.91,241.45 Z
           M 161.06,213.19
           C 161.06,213.19 174.13,212.81 174.13,212.81
             174.13,212.81 182.50,220.63 182.50,220.63
             182.50,220.63 182.00,223.31 182.00,223.31
             182.00,223.31 150.31,223.63 150.31,223.63
             150.31,223.63 149.81,219.81 149.81,219.81
             149.81,219.81 161.06,213.19 161.06,213.19 Z" />

	<path id="hahn schwarz"
        fill="#231f20" stroke="black" stroke-width="1"
        d="M 167.63,167.75
           C 172.63,167.81 171.93,175.25 173.63,177.44
             175.78,180.21 197.91,178.84 197.91,178.84
             201.37,177.81 202.57,175.19 206.01,174.47
             216.82,172.21 217.53,189.79 207.00,188.38
             203.85,187.96 201.75,185.30 199.00,184.01
             196.44,182.81 193.75,183.01 191.00,183.00
             191.00,183.00 174.00,183.00 174.00,183.00
             174.00,183.00 174.00,208.00 174.00,208.00
             174.00,208.00 159.00,209.00 159.00,209.00
             159.00,209.00 160.00,183.16 160.00,183.16
             160.00,183.16 143.04,183.16 143.04,183.16
             138.76,184.40 136.82,189.05 132.00,188.38
             124.74,187.38 123.99,176.18 131.04,174.45
             136.11,173.20 138.45,177.58 143.00,178.84
             143.00,178.84 161.00,178.84 161.00,178.84
             161.56,175.46 161.56,167.94 167.63,167.75 Z
           M 187.00,225.00
           C 187.00,225.00 181.00,245.00 181.00,245.00
             188.87,241.02 200.17,239.49 209.00,240.09
             209.00,240.09 221.00,241.00 221.00,241.00
             229.86,241.01 239.75,240.19 248.00,243.90
             258.63,248.69 264.74,258.93 267.00,270.00
             268.60,277.86 268.00,338.00 268.00,338.00
             268.00,338.00 237.00,337.00 237.00,337.00
             237.00,337.00 237.00,299.00 237.00,299.00
             237.00,291.98 238.11,285.80 232.67,280.33
             227.85,275.47 223.06,274.77 216.48,274.74
             216.48,274.74 181.00,275.00 181.00,275.00
             180.91,277.64 181.01,280.54 178.69,282.36
             176.48,284.09 155.00,283.04 155.00,283.04
             150.24,282.99 146.07,283.23 142.39,279.61
             139.52,276.79 139.08,273.03 135.79,271.60
             134.13,270.88 130.86,271.00 129.00,271.01
             129.00,271.01 105.00,271.01 105.00,271.01
             101.36,270.99 102.47,271.06 88.25,271.41
             86.50,273.19 87.15,276.26 86.83,279.00
             86.40,282.59 85.39,285.92 82.66,288.62
             76.01,294.59 58.73,295.10 52.18,288.62
             46.49,283.30 45.04,275.56 45.00,268.00
             45.00,268.00 44.58,234.90 45.56,231.50
             48.52,221.21 58.85,212.78 69.50,212.13
             78.65,211.56 86.00,216.09 88.51,225.00
             89.58,228.81 89.50,228.56 90.44,236.81
             144.00,237.13 144.00,237.13 144.00,237.13
             144.00,237.13 144.00,224.00 144.00,224.00
             148.91,228.17 177.35,229.43 187.00,225.00 Z
           M 166.50,214.88
           C 157.81,214.94 157.27,214.62 151.38,221.56
             180.69,221.81 151.63,221.44 180.75,221.69
             177.69,214.50 174.69,215.13 166.50,214.88 Z
           M 53.13,252.06
           C 53.81,265.25 49.31,286.94 65.00,285.82
             66.43,285.99 75.32,286.43 78.63,281.50
             79.58,280.07 80.03,273.53 79.75,272.17
             78.76,267.50 70.87,263.92 71.63,253.63
             72.31,244.32 77.06,242.44 81.56,238.31
             82.39,235.97 82.65,232.38 82.14,230.00
             80.88,223.23 78.17,219.68 71.00,219.38
             50.19,222.56 53.75,240.06 53.13,252.06 Z
           M 151.00,234.00
           C 149.05,245.71 143.09,243.47 134.00,244.09
             134.00,244.09 123.00,245.00 123.00,245.00
             123.00,245.00 93.00,245.00 93.00,245.00
             89.95,245.01 86.73,244.73 84.11,246.60
             79.92,249.57 78.14,258.72 82.65,262.01
             85.09,263.78 100.13,262.96 104.00,263.00
             104.00,263.00 138.96,261.91 142.13,265.00
             144.59,267.40 145.79,273.43 148.94,275.19
             151.81,276.79 165.01,276.00 168.88,275.94
             177.68,275.79 171.81,271.71 177.69,268.13
             181.06,266.06 222.65,266.27 226.31,267.50
             246.16,274.16 245.00,288.68 245.00,306.00
             245.00,306.00 245.00,330.00 245.00,330.00
             245.00,330.00 260.00,330.00 260.00,330.00
             260.00,330.00 260.00,284.00 260.00,284.00
             260.00,272.09 260.40,261.89 249.96,253.53
             244.66,249.29 237.62,248.08 231.00,248.00
             231.00,248.00 199.00,248.00 199.00,248.00
             196.12,248.00 192.77,247.77 190.17,249.17
             186.80,250.98 181.44,258.98 175.82,252.58
             171.03,247.48 175.57,242.71 175.82,234.00
             166.86,236.22 159.89,234.41 151.00,234.00 Z
           M 146.00,223.00
           C 151.42,211.55 159.87,210.93 171.00,211.00
             173.38,211.02 175.81,210.90 177.99,212.02
             182.16,214.16 184.64,218.73 186.00,223.00
             185.92,227.11 145.92,227.35 146.00,223.00 Z" />
	
	<text id = "tag" font-size="30px"  text-anchor="middle">
			<tspan x="150" y="75" style="stroke: #000000">
				Wasserwerk
			</tspan>
			<tspan x="150" y="480" style="">
				RM 3200
			</tspan>
	</text>
</svg>

