<?xml version="1.0" encoding="UTF-8" standalone="no"?>
<!DOCTYPE svg PUBLIC "-//W3C//DTD SVG 20010904//EN" "http://www.w3.org/TR/2001/REC-SVG-20010904/DTD/svg10.dtd">

<svg xmlns="http://www.w3.org/2000/svg" width="304" height="506">
	
	<title>Train station</title>

	<rect id = "field_border"
		x="0" y="0" width="304" height="506"
		rx="0" ry="0" fill="#231f20" stroke=""
	/>
	<rect id = "field"
		x="2" y="2" width="300" height="502"
		rx="0" ry="0" fill="#f7f7cf" stroke=""
	/>
	
	<path id="train"
		fill="#231f20"
		d="M 110.47,266.74
			C 117.28,266.75 119.84,266.22 123.64,272.59
			124.86,274.65 125.68,276.21 125.63,278.67
			125.58,281.48 123.17,288.19 122.22,291.26
			122.22,291.26 114.61,315.77 114.61,315.77
			113.08,320.89 110.96,323.24 112.40,328.52
			119.42,327.04 130.13,327.54 137.57,327.54
			137.57,327.54 172.43,327.54 172.43,327.54
			172.43,327.54 186.95,328.51 186.95,328.51
			189.88,328.55 199.98,329.38 201.14,326.14
			201.96,323.88 196.30,316.51 195.12,313.85
			190.55,303.55 189.69,287.49 199.16,279.73
			205.91,274.21 211.10,276.53 218.90,276.55
			232.58,276.57 247.01,277.37 260.53,275.57
			260.49,279.41 260.24,284.79 258.67,288.31
			255.54,295.32 239.64,309.59 238.26,320.68
			238.26,320.68 238.26,320.67 238.26,320.67
			238.26,320.67 235.44,338.33 235.44,338.33
			235.44,338.33 236.33,356.96 236.33,356.96
			238.66,358.48 239.78,361.51 241.34,363.82
			245.41,369.86 249.29,371.91 249.88,379.51
			249.88,379.51 233.42,380.49 233.42,380.49
			236.27,388.39 238.59,389.64 237.95,399.08
			236.41,421.63 206.04,427.79 194.91,408.92
			189.59,399.93 192.25,389.14 196.63,380.49
			196.63,380.49 144.35,380.49 144.35,380.49
			147.90,386.58 149.89,388.02 151.05,395.20
			151.71,399.28 151.31,403.76 149.87,407.66
			143.54,424.80 119.81,425.54 110.25,410.80
			107.47,406.09 107.28,393.16 110.25,388.45
			111.11,386.62 111.70,386.41 113.37,385.39
			113.37,385.39 112.40,383.43 112.40,383.43
			112.40,383.43 114.34,380.49 114.34,380.49
			114.34,380.49 104.66,381.47 104.66,381.47
			104.66,381.47 93.04,420.70 93.04,420.70
			93.04,420.70 56.25,420.70 56.25,420.70
			56.25,420.70 67.01,406.40 67.01,406.40
			67.01,406.40 86.26,381.47 86.26,381.47
			62.70,379.23 62.46,338.38 80.61,329.65
			84.13,328.13 89.33,328.79 93.04,329.65
			93.04,329.65 94.01,328.52 94.01,328.52
			94.01,328.52 83.03,293.22 83.03,293.22
			83.03,293.22 78.88,276.63 78.88,276.63
			78.88,276.63 84.33,266.74 84.33,266.74
			84.33,266.74 110.47,266.74 110.47,266.74 Z
		M 486.01,672.71
		C 486.01,672.71 486.98,673.69 486.98,673.69
			486.98,673.69 486.98,672.71 486.98,672.71
			486.98,672.71 486.01,672.71 486.01,672.71 Z"
	/>
	
	<text id = "twoliner"
		font-family="Monopoly" font-size="30px" fill="##231f20"
		style="stroke: #000000" text-anchor="middle">
		<tspan x="150" y="182">
			Weimarer
		</tspan>
		<tspan x="150" y="212">
			Bahnhof
		</tspan>
	</text>
	
	<text id = "price"
		x="150" y="480" font-family="Monopoly" font-size="33px" text-anchor="middle">
		RM 7200
	</text>

	
</svg>

