<?xml version="1.0" encoding="UTF-8" standalone="no"?>
<!DOCTYPE svg PUBLIC "-//W3C//DTD SVG 20010904//EN" "http://www.w3.org/TR/2001/REC-SVG-20010904/DTD/svg10.dtd">

<svg xmlns="http://www.w3.org/2000/svg" width="506" height="506">
	
	<title>Go</title>
	
	<rect id = "field_border"
		x="0" y="0" width="506" height="506" fill="#231f20"
	/>
	
	<rect id = "field"
		x="2" y="2" width="502" height="502" fill="#f7f7cf"
	/>

	<path id="arrow_go_red"
        fill="#ed1c24" stroke="#ed1c24" stroke-width="6"
        d="M 364.00,151.00
           C 364.00,151.00 419.00,205.00 419.00,205.00
             419.00,205.00 440.00,226.00 440.00,226.00
             440.00,226.00 446.80,235.00 446.80,235.00
             446.80,235.00 442.00,242.00 442.00,242.00
             442.00,242.00 426.00,258.00 426.00,258.00
             426.00,258.00 375.00,308.17 375.00,308.17
             375.00,308.17 361.00,321.00 361.00,321.00
             361.00,321.00 336.91,295.00 336.91,295.00
             336.91,295.00 301.09,257.00 301.09,257.00
             301.09,257.00 278.99,233.00 278.99,233.00
             278.99,233.00 257.28,210.00 257.28,210.00
             257.28,210.00 251.20,201.00 251.20,201.00
             251.20,201.00 256.00,194.00 256.00,194.00
             256.00,194.00 271.00,179.00 271.00,179.00
             271.00,179.00 331.00,119.00 331.00,119.00
             331.00,119.00 364.00,151.00 364.00,151.00 Z
           M 399.00,246.00
           C 401.78,243.22 409.33,237.33 407.83,233.00
             406.83,230.11 394.00,218.00 391.00,215.00
             391.00,215.00 350.00,174.00 350.00,174.00
             350.00,174.00 338.00,162.06 338.00,162.06
             336.00,160.24 333.92,158.16 331.00,159.17
             328.48,160.04 322.19,166.81 320.00,169.00
             320.00,169.00 296.00,193.00 296.00,193.00
             293.34,195.66 286.73,200.83 288.17,205.00
             288.94,207.24 293.22,211.22 295.00,213.00
             295.00,213.00 309.00,227.00 309.00,227.00
             320.07,238.07 353.73,272.65 364.00,280.00
             364.00,280.00 399.00,246.00 399.00,246.00 Z
           M 197.00,245.00
           C 197.00,245.00 212.00,230.00 212.00,230.00
             212.00,230.00 218.91,225.20 218.91,225.20
             218.91,225.20 225.05,230.00 225.05,230.00
             225.05,230.00 240.00,248.00 240.00,248.00
             240.00,248.00 181.00,307.00 181.00,307.00
             187.01,311.30 195.45,320.45 201.00,326.00
             201.00,326.00 233.00,358.00 233.00,358.00
             233.00,358.00 247.28,371.66 247.28,371.66
             248.78,373.01 252.19,376.35 254.00,376.81
             257.29,377.64 260.91,373.08 263.00,371.00
             263.00,371.00 286.00,348.00 286.00,348.00
             288.33,345.66 293.51,341.72 292.09,338.00
             291.20,335.68 278.62,323.51 276.00,321.02
             274.16,319.27 271.83,316.63 269.00,317.34
             266.20,318.04 258.54,326.57 256.00,328.98
             254.16,330.73 251.83,333.37 249.00,332.66
             246.64,332.07 241.86,326.87 240.00,325.00
             238.42,323.41 234.87,320.12 234.34,318.00
             233.51,314.68 237.91,311.11 240.00,309.00
             240.00,309.00 261.00,288.00 261.00,288.00
             263.24,285.77 267.50,280.46 271.00,281.34
             272.94,281.82 275.57,284.60 277.00,286.00
             277.00,286.00 289.00,298.00 289.00,298.00
             289.00,298.00 317.00,326.00 317.00,326.00
             322.29,331.29 329.79,338.13 334.00,344.00
             334.00,344.00 285.00,393.00 285.00,393.00
             285.00,393.00 254.00,422.00 254.00,422.00
             254.00,422.00 202.00,370.01 202.00,370.01
             202.00,370.01 192.00,360.96 192.00,360.96
             192.00,360.96 174.00,343.00 174.00,343.00
             174.00,343.00 137.00,305.00 137.00,305.00
             137.00,305.00 197.00,245.00 197.00,245.00 Z
           M 87.00,447.26
           C 87.00,447.26 111.00,435.75 111.00,435.75
             111.00,435.75 137.00,424.00 137.00,424.00
             137.00,424.00 137.00,446.00 137.00,446.00
             137.00,446.00 374.00,446.00 374.00,446.00
             391.84,445.96 386.38,432.04 405.00,432.00
             405.00,432.00 472.00,432.00 472.00,432.00
             467.80,437.87 461.20,443.78 456.00,449.00
             454.24,450.77 450.04,454.40 450.04,457.00
             450.04,459.96 454.91,463.61 457.00,465.42
             462.12,469.88 469.09,476.54 473.00,482.00
             473.00,482.00 411.00,482.00 411.00,482.00
             411.00,482.00 404.00,481.40 404.00,481.40
             404.00,481.40 387.00,467.43 387.00,467.43
             387.00,467.43 378.00,466.00 378.00,466.00
             378.00,466.00 135.00,466.00 135.00,466.00
             135.00,466.00 135.00,490.00 135.00,490.00
             135.00,490.00 94.00,471.86 94.00,471.86
             94.00,471.86 65.00,458.00 65.00,458.00
             65.00,458.00 87.00,447.26 87.00,447.26 Z" />
			 
	<path id="arrow_go_border"
        fill="#231f20"
        d="M 337.91,304.00
           C 337.91,304.00 288.04,251.00 288.04,251.00
             288.04,251.00 278.00,240.00 278.00,240.00
             278.00,240.00 252.91,213.00 252.91,213.00
             250.79,210.72 243.98,204.57 243.34,202.00
             242.63,199.17 245.27,196.84 247.02,195.00
             247.02,195.00 261.00,181.00 261.00,181.00
             261.00,181.00 314.00,128.83 314.00,128.83
             314.00,128.83 326.00,117.02 326.00,117.02
             327.51,115.58 329.76,113.20 332.00,113.20
             334.69,113.20 338.18,117.20 340.00,119.00
             340.00,119.00 358.00,137.00 358.00,137.00
             358.00,137.00 429.00,208.00 429.00,208.00
             429.00,208.00 449.00,227.00 449.00,227.00
             451.09,229.11 455.49,232.68 454.66,236.00
             454.07,238.37 448.88,243.12 447.00,245.00
             447.00,245.00 428.51,262.96 428.51,262.96
             428.51,262.96 383.00,308.00 383.00,308.00
             377.19,313.81 367.16,324.59 361.00,329.00
             361.00,329.00 337.91,304.00 337.91,304.00 Z
           M 428.00,258.00
           C 428.00,258.00 444.00,242.00 444.00,242.00
             445.63,240.33 448.80,237.49 448.80,235.00
             448.80,232.31 444.80,228.82 443.00,227.00
             443.00,227.00 427.00,211.00 427.00,211.00
             427.00,211.00 402.99,187.96 402.99,187.96
             402.99,187.96 358.00,143.00 358.00,143.00
             358.00,143.00 339.00,124.00 339.00,124.00
             336.73,121.77 333.59,117.93 330.00,119.17
             327.09,120.17 314.10,133.90 311.00,137.00
             311.00,137.00 267.00,181.00 267.00,181.00
             267.00,181.00 253.02,195.00 253.02,195.00
             251.27,196.84 248.63,199.16 249.34,202.00
             249.81,203.89 255.65,210.15 257.28,212.00
             257.28,212.00 280.99,237.00 280.99,237.00
             280.99,237.00 302.09,260.00 302.09,260.00
             302.09,260.00 337.96,298.00 337.96,298.00
             343.47,303.76 356.53,319.00 362.00,323.00
             362.00,323.00 428.00,258.00 428.00,258.00 Z
           M 353.00,179.00
           C 353.00,179.00 390.00,216.00 390.00,216.00
             390.00,216.00 408.00,233.00 408.00,233.00
             405.35,238.60 400.33,242.67 396.00,247.00
             396.00,247.00 376.00,266.96 376.00,266.96
             373.71,269.17 365.96,276.84 363.00,276.81
             360.48,276.78 357.69,273.65 356.00,272.00
             356.00,272.00 343.00,259.00 343.00,259.00
             343.00,259.00 308.00,224.00 308.00,224.00
             302.31,218.31 292.36,209.09 288.00,203.00
             288.00,203.00 332.00,159.00 332.00,159.00
             332.00,159.00 353.00,179.00 353.00,179.00 Z
           M 328.00,238.00
           C 328.00,238.00 354.00,264.00 354.00,264.00
             356.54,266.53 360.98,272.22 365.00,270.83
             367.09,270.11 370.37,266.62 372.00,265.00
             372.00,265.00 386.00,251.00 386.00,251.00
             386.00,251.00 396.98,240.00 396.98,240.00
             398.42,238.49 400.80,236.24 400.80,234.00
             400.80,230.57 389.86,220.81 387.00,218.28
             387.00,218.28 348.00,180.00 348.00,180.00
             344.79,176.79 335.64,165.56 331.00,167.17
             328.41,168.06 321.31,175.69 319.00,178.00
             312.70,184.30 298.56,197.63 294.00,204.00
             294.00,204.00 328.00,238.00 328.00,238.00 Z
           M 231.28,229.00
           C 234.05,232.15 245.33,243.76 245.83,247.00
             246.48,251.21 236.03,259.97 233.00,263.00
             233.00,263.00 202.00,293.00 202.00,293.00
             199.81,295.19 191.84,302.55 191.20,305.00
             190.17,308.88 201.15,318.15 204.00,321.00
             204.00,321.00 238.00,355.00 238.00,355.00
             240.49,357.49 250.66,368.19 253.00,369.09
             256.52,370.43 259.79,366.19 262.00,364.00
             262.00,364.00 279.99,346.00 279.99,346.00
             282.02,343.92 285.34,341.27 284.09,338.00
             283.43,336.29 280.36,333.37 279.00,332.00
             277.33,330.32 273.12,325.76 271.00,325.20
             268.19,324.45 265.81,327.27 264.00,329.01
             261.32,331.59 253.41,340.80 250.00,340.80
             246.59,340.80 236.78,329.78 234.00,327.00
             232.12,325.12 226.93,320.37 226.34,318.00
             225.43,314.37 231.64,309.36 234.00,307.00
             234.00,307.00 260.00,281.00 260.00,281.00
             262.36,278.64 267.37,272.43 271.00,273.34
             273.12,273.87 276.41,277.42 278.00,279.00
             278.00,279.00 291.00,292.00 291.00,292.00
             291.00,292.00 323.00,324.00 323.00,324.00
             328.55,329.55 337.70,337.99 342.00,344.00
             342.00,344.00 327.00,358.01 327.00,358.01
             327.00,358.01 287.00,398.00 287.00,398.00
             287.00,398.00 254.00,430.00 254.00,430.00
             254.00,430.00 160.00,336.00 160.00,336.00
             160.00,336.00 137.00,313.83 137.00,313.83
             134.52,311.57 129.85,307.81 131.17,304.00
             131.98,301.65 137.07,296.93 139.00,295.00
             139.00,295.00 156.00,278.00 156.00,278.00
             156.00,278.00 219.00,216.00 219.00,216.00
             223.70,219.66 227.37,224.53 231.28,229.00 Z
           M 266.00,366.00
           C 263.88,368.12 257.68,375.03 255.00,375.38
             251.41,375.85 242.69,365.69 240.00,363.00
             240.00,363.00 199.00,322.00 199.00,322.00
             199.00,322.00 188.04,311.00 188.04,311.00
             186.59,309.41 184.52,307.47 185.20,305.09
             185.67,303.43 195.11,294.89 197.00,293.00
             197.00,293.00 228.00,262.00 228.00,262.00
             231.16,258.84 241.35,250.67 239.85,246.00
             239.03,243.47 227.49,230.76 224.95,228.02
             223.20,226.12 220.82,223.05 217.91,223.73
             214.58,224.52 204.01,235.99 201.00,239.00
             201.00,239.00 160.00,280.00 160.00,280.00
             160.00,280.00 142.00,298.00 142.00,298.00
             139.77,300.27 135.93,303.41 137.17,307.00
             138.04,309.52 144.81,315.81 147.00,318.00
             147.00,318.00 169.00,340.00 169.00,340.00
             169.00,340.00 181.00,351.01 181.00,351.01
             181.00,351.01 223.00,393.00 223.00,393.00
             229.96,399.96 248.41,419.28 255.00,424.00
             255.00,424.00 291.99,387.04 291.99,387.04
             291.99,387.04 316.00,364.00 316.00,364.00
             316.00,364.00 330.94,349.00 330.94,349.00
             332.76,347.00 334.84,344.92 333.83,342.00
             332.94,339.41 325.31,332.31 323.00,330.00
             323.00,330.00 298.00,305.00 298.00,305.00
             298.00,305.00 280.00,287.00 280.00,287.00
             278.12,285.12 273.37,279.93 271.00,279.34
             267.50,278.46 263.24,283.77 261.00,286.00
             261.00,286.00 239.00,308.00 239.00,308.00
             236.77,310.24 231.46,314.50 232.34,318.00
             232.87,320.12 236.42,323.41 238.00,325.00
             240.32,327.33 246.85,334.80 250.00,334.80
             255.04,334.80 265.17,319.04 270.00,319.04
             272.42,319.04 275.37,322.40 277.00,324.00
             277.00,324.00 293.00,340.00 293.00,340.00
             286.60,344.58 272.40,359.60 266.00,366.00 Z
           M 142.00,433.00
           C 142.05,435.52 141.95,438.40 144.31,439.98
             146.16,441.21 149.81,441.00 152.00,441.00
             152.00,441.00 371.00,441.00 371.00,441.00
             374.45,440.99 376.89,441.27 380.00,439.44
             387.58,434.98 390.69,426.56 400.00,426.96
             400.00,426.96 406.00,426.96 406.00,426.96
             406.00,426.96 458.00,426.96 458.00,426.96
             465.76,427.00 478.96,427.71 486.00,426.00
             486.00,426.00 465.00,448.00 465.00,448.00
             465.00,448.00 458.04,457.00 458.04,457.00
             458.04,457.00 465.00,465.96 465.00,465.96
             465.00,465.96 486.00,487.00 486.00,487.00
             486.00,487.00 408.00,487.00 408.00,487.00
             389.27,486.96 394.73,471.04 376.00,471.00
             376.00,471.00 141.00,471.00 141.00,471.00
             141.00,471.00 141.00,498.00 141.00,498.00
             141.00,498.00 116.00,487.78 116.00,487.78
             116.00,487.78 82.00,472.31 82.00,472.31
             82.00,472.31 52.00,458.00 52.00,458.00
             52.00,458.00 91.00,439.31 91.00,439.31
             91.00,439.31 124.00,423.26 124.00,423.26
             124.00,423.26 141.00,415.00 141.00,415.00
             142.79,419.52 141.91,427.88 142.00,433.00 Z
           M 94.00,442.69
           C 86.64,446.07 68.10,453.91 63.00,459.00
             63.00,459.00 101.00,476.31 101.00,476.31
             101.00,476.31 136.00,492.00 136.00,492.00
             136.00,492.00 136.00,467.00 136.00,467.00
             136.00,467.00 378.00,467.00 378.00,467.00
             396.73,467.04 391.27,482.96 410.00,483.00
             410.00,483.00 475.00,483.00 475.00,483.00
             471.85,476.33 463.42,470.40 458.00,465.00
             456.24,463.24 452.04,459.59 452.04,457.00
             452.04,454.40 456.24,450.77 458.00,449.00
             463.33,443.65 470.74,436.95 475.00,431.00
             475.00,431.00 404.00,431.00 404.00,431.00
             385.76,431.04 390.71,444.96 373.00,445.00
             373.00,445.00 138.00,445.00 138.00,445.00
             138.00,445.00 138.00,422.00 138.00,422.00
             138.00,422.00 94.00,442.69 94.00,442.69 Z" />
			 
	<text id = "label"
		x="116" font-family="Monopoly" font-size="38px" text-anchor="middle"
		stroke="#000000" transform = "rotate(-45 116 116)">
		<tspan x="116" y="126">
			Ziehen Sie
		</tspan>
		<tspan x="116" y="171">
			im Voraebergehen
		</tspan>
		<tspan x="116" y="216">
			RM 2000 Gehalt ein.
		</tspan>
	</text>
</svg>

