<?xml version="1.0" encoding="UTF-8" standalone="no"?>
<!DOCTYPE svg PUBLIC "-//W3C//DTD SVG 20010904//EN" "http://www.w3.org/TR/2001/REC-SVG-20010904/DTD/svg10.dtd">

<svg xmlns="http://www.w3.org/2000/svg" width="304" height="506">
	
	<title>Community</title>

	<rect id = "field_border"
		x="0" y="0" width="304" height="506" fill="#231f20"
	/>
	
	<rect id = "field"
		x="2" y="2" width="300" height="502" fill="#f7f7cf"
	/>
	
  <path id="white"
        fill="#ffffff" stroke="#ffffff" stroke-width="1"
        d="M 157.00,147.00
           C 157.00,147.00 156.00,148.00 156.00,148.00
             156.00,148.00 156.00,147.00 156.00,147.00
             156.00,147.00 157.00,147.00 157.00,147.00 Z
           M 178.00,149.00
           C 178.00,149.00 177.00,150.00 177.00,150.00
             177.00,150.00 177.00,149.00 177.00,149.00
             177.00,149.00 178.00,149.00 178.00,149.00 Z
           M 139.28,171.00
           C 139.28,171.00 151.53,151.08 151.53,151.08
             151.53,151.08 162.00,151.08 162.00,151.08
             162.00,151.08 187.00,153.83 187.00,153.83
             187.00,153.83 244.00,159.17 244.00,159.17
             244.00,159.17 281.00,163.00 281.00,163.00
             281.00,163.00 262.05,194.00 262.05,194.00
             262.05,194.00 231.00,244.00 231.00,244.00
             231.00,244.00 206.29,238.69 206.29,238.69
             206.29,238.69 204.00,236.00 204.00,236.00
             204.00,236.00 220.00,238.61 220.00,238.61
             222.43,239.05 226.52,240.21 228.82,239.36
             232.16,238.12 239.88,223.77 242.31,220.00
             242.31,220.00 276.00,166.00 276.00,166.00
             266.17,163.16 254.25,162.82 244.00,161.83
             244.00,161.83 185.00,155.93 185.00,155.93
             185.00,155.93 164.00,153.93 164.00,153.93
             160.83,153.47 157.07,152.40 154.10,153.93
             150.49,156.00 145.06,166.99 142.58,171.00
             142.58,171.00 114.00,220.00 114.00,220.00
             114.00,220.00 150.00,227.00 150.00,227.00
             141.66,229.29 120.13,222.83 110.00,222.00
             110.00,222.00 139.28,171.00 139.28,171.00 Z
           M 207.00,152.00
           C 207.00,152.00 206.00,153.00 206.00,153.00
             206.00,153.00 206.00,152.00 206.00,152.00
             206.00,152.00 207.00,152.00 207.00,152.00 Z
           M 146.00,153.00
           C 146.00,153.00 145.00,154.00 145.00,154.00
             145.00,154.00 145.00,153.00 145.00,153.00
             145.00,153.00 146.00,153.00 146.00,153.00 Z
           M 220.00,153.00
           C 220.00,153.00 219.00,154.00 219.00,154.00
             219.00,154.00 219.00,153.00 219.00,153.00
             219.00,153.00 220.00,153.00 220.00,153.00 Z
           M 227.00,153.00
           C 227.00,153.00 226.00,154.00 226.00,154.00
             226.00,154.00 226.00,153.00 226.00,153.00
             226.00,153.00 227.00,153.00 227.00,153.00 Z
           M 240.00,154.00
           C 240.00,154.00 239.00,155.00 239.00,155.00
             239.00,155.00 239.00,154.00 239.00,154.00
             239.00,154.00 240.00,154.00 240.00,154.00 Z
           M 145.00,155.00
           C 145.00,155.00 144.00,156.00 144.00,156.00
             144.00,156.00 144.00,155.00 144.00,155.00
             144.00,155.00 145.00,155.00 145.00,155.00 Z
           M 247.00,155.00
           C 247.00,155.00 246.00,156.00 246.00,156.00
             246.00,156.00 246.00,155.00 246.00,155.00
             246.00,155.00 247.00,155.00 247.00,155.00 Z
           M 144.00,174.00
           C 144.00,174.00 155.21,157.04 155.21,157.04
             155.21,157.04 163.00,157.04 163.00,157.04
             163.00,157.04 183.00,158.99 183.00,158.99
             183.00,158.99 209.00,161.83 209.00,161.83
             209.00,161.83 236.00,164.28 236.00,164.28
             236.00,164.28 271.00,168.00 271.00,168.00
             271.00,168.00 266.00,177.00 266.00,177.00
             266.00,177.00 241.00,173.72 241.00,173.72
             241.00,173.72 190.00,167.72 190.00,167.72
             190.00,167.72 168.00,165.14 168.00,165.14
             165.91,164.92 160.92,164.39 159.18,165.14
             155.74,166.78 152.54,174.58 150.69,178.00
             150.69,178.00 134.77,206.00 134.77,206.00
             133.22,208.85 129.53,216.50 126.79,217.90
             125.07,218.63 120.17,218.05 118.00,217.90
             118.00,217.90 144.00,174.00 144.00,174.00 Z
           M 255.00,156.00
           C 255.00,156.00 254.00,157.00 254.00,157.00
             254.00,157.00 254.00,156.00 254.00,156.00
             254.00,156.00 255.00,156.00 255.00,156.00 Z
           M 143.00,158.00
           C 143.00,158.00 142.00,159.00 142.00,159.00
             142.00,159.00 142.00,158.00 142.00,158.00
             142.00,158.00 143.00,158.00 143.00,158.00 Z
           M 142.00,160.00
           C 142.00,160.00 141.00,161.00 141.00,161.00
             141.00,161.00 141.00,160.00 141.00,160.00
             141.00,160.00 142.00,160.00 142.00,160.00 Z
           M 140.00,163.00
           C 140.00,163.00 139.00,164.00 139.00,164.00
             139.00,164.00 139.00,163.00 139.00,163.00
             139.00,163.00 140.00,163.00 140.00,163.00 Z
           M 288.00,163.00
           C 288.00,163.00 287.00,164.00 287.00,164.00
             287.00,164.00 287.00,163.00 287.00,163.00
             287.00,163.00 288.00,163.00 288.00,163.00 Z
           M 139.00,165.00
           C 139.00,165.00 138.00,166.00 138.00,166.00
             138.00,166.00 138.00,165.00 138.00,165.00
             138.00,165.00 139.00,165.00 139.00,165.00 Z
           M 284.00,167.00
           C 289.45,177.18 295.49,181.19 285.00,191.00
             282.84,187.95 276.62,180.52 276.80,177.00
             276.93,174.40 280.54,169.38 282.00,167.00
             282.00,167.00 284.00,167.00 284.00,167.00 Z
           M 290.00,167.00
           C 290.00,167.00 289.00,168.00 289.00,168.00
             289.00,168.00 289.00,167.00 289.00,167.00
             289.00,167.00 290.00,167.00 290.00,167.00 Z
           M 291.00,169.00
           C 291.00,169.00 290.00,170.00 290.00,170.00
             290.00,170.00 290.00,169.00 290.00,169.00
             290.00,169.00 291.00,169.00 291.00,169.00 Z
           M 134.00,173.00
           C 134.00,173.00 133.00,174.00 133.00,174.00
             133.00,174.00 133.00,173.00 133.00,173.00
             133.00,173.00 134.00,173.00 134.00,173.00 Z
           M 293.00,173.00
           C 293.00,173.00 292.00,174.00 292.00,174.00
             292.00,174.00 292.00,173.00 292.00,173.00
             292.00,173.00 293.00,173.00 293.00,173.00 Z
           M 283.00,178.00
           C 283.00,178.00 287.00,181.00 287.00,181.00
             285.87,178.29 285.87,178.55 283.00,178.00 Z
           M 295.00,177.00
           C 295.00,177.00 294.00,178.00 294.00,178.00
             294.00,178.00 294.00,177.00 294.00,177.00
             294.00,177.00 295.00,177.00 295.00,177.00 Z
           M 127.00,185.00
           C 127.00,185.00 126.00,186.00 126.00,186.00
             126.00,186.00 126.00,185.00 126.00,185.00
             126.00,185.00 127.00,185.00 127.00,185.00 Z
           M 295.00,185.00
           C 295.00,185.00 294.00,186.00 294.00,186.00
             294.00,186.00 294.00,185.00 294.00,185.00
             294.00,185.00 295.00,185.00 295.00,185.00 Z
           M 126.00,187.00
           C 126.00,187.00 125.00,188.00 125.00,188.00
             125.00,188.00 125.00,187.00 125.00,187.00
             125.00,187.00 126.00,187.00 126.00,187.00 Z
           M 124.00,190.00
           C 124.00,190.00 123.00,191.00 123.00,191.00
             123.00,191.00 123.00,190.00 123.00,190.00
             123.00,190.00 124.00,190.00 124.00,190.00 Z
           M 291.00,191.00
           C 291.00,191.00 290.00,192.00 290.00,192.00
             290.00,192.00 290.00,191.00 290.00,191.00
             290.00,191.00 291.00,191.00 291.00,191.00 Z
           M 122.00,193.00
           C 122.00,193.00 121.00,194.00 121.00,194.00
             121.00,194.00 121.00,193.00 121.00,193.00
             121.00,193.00 122.00,193.00 122.00,193.00 Z
           M 289.00,194.00
           C 289.00,194.00 288.00,195.00 288.00,195.00
             288.00,195.00 288.00,194.00 288.00,194.00
             288.00,194.00 289.00,194.00 289.00,194.00 Z
           M 121.00,195.00
           C 121.00,195.00 120.00,196.00 120.00,196.00
             120.00,196.00 120.00,195.00 120.00,195.00
             120.00,195.00 121.00,195.00 121.00,195.00 Z
           M 269.28,205.00
           C 273.60,212.67 272.91,215.96 266.00,222.00
             266.00,222.00 258.02,208.00 258.02,208.00
             258.02,208.00 264.00,197.00 264.00,197.00
             266.34,199.79 267.51,201.85 269.28,205.00 Z
           M 287.00,197.00
           C 287.00,197.00 286.00,198.00 286.00,198.00
             286.00,198.00 286.00,197.00 286.00,197.00
             286.00,197.00 287.00,197.00 287.00,197.00 Z
           M 119.00,198.00
           C 119.00,198.00 118.00,199.00 118.00,199.00
             118.00,199.00 118.00,198.00 118.00,198.00
             118.00,198.00 119.00,198.00 119.00,198.00 Z
           M 285.00,202.00
           C 285.00,202.00 284.00,200.00 284.00,200.00
             284.00,200.00 285.00,199.00 285.00,199.00
             285.00,199.00 285.00,202.00 285.00,202.00 Z
           M 119.00,200.00
           C 119.00,200.00 118.00,201.00 118.00,201.00
             118.00,201.00 118.00,200.00 118.00,200.00
             118.00,200.00 119.00,200.00 119.00,200.00 Z
           M 154.00,218.45
           C 146.11,215.68 146.30,208.47 154.00,205.60
             154.00,205.60 163.00,204.59 163.00,204.59
             163.00,204.59 171.00,201.52 171.00,201.52
             171.00,201.52 186.00,203.34 186.00,203.34
             199.05,206.03 188.76,218.68 181.00,220.00
             181.00,220.00 181.00,213.00 181.00,213.00
             181.00,213.00 178.73,217.95 178.73,217.95
             172.96,228.27 168.12,216.42 164.00,213.00
             164.00,213.00 163.00,214.00 163.00,214.00
             163.00,214.00 165.00,221.00 165.00,221.00
             165.00,221.00 154.00,218.45 154.00,218.45 Z
           M 181.00,207.06
           C 174.90,206.51 171.83,198.79 166.00,209.00
             161.94,207.06 160.71,205.89 157.00,209.00
             153.06,206.37 151.84,207.67 149.00,211.00
             153.79,212.44 157.10,214.93 160.00,210.00
             168.55,213.88 167.45,209.24 172.09,208.67
             174.52,208.38 176.70,210.26 179.00,210.83
             183.34,211.90 188.95,210.02 192.00,207.06
             184.95,205.07 185.14,207.53 181.00,207.06 Z
           M 115.00,206.00
           C 115.00,206.00 114.00,207.00 114.00,207.00
             114.00,207.00 114.00,206.00 114.00,206.00
             114.00,206.00 115.00,206.00 115.00,206.00 Z
           M 281.00,206.00
           C 281.00,206.00 280.00,207.00 280.00,207.00
             280.00,207.00 280.00,206.00 280.00,206.00
             280.00,206.00 281.00,206.00 281.00,206.00 Z
           M 264.00,209.00
           C 264.00,209.00 267.00,212.00 267.00,212.00
             267.00,212.00 268.00,208.00 268.00,208.00
             268.00,208.00 264.00,209.00 264.00,209.00 Z
           M 113.00,208.00
           C 113.00,208.00 112.00,209.00 112.00,209.00
             112.00,209.00 112.00,208.00 112.00,208.00
             112.00,208.00 113.00,208.00 113.00,208.00 Z
           M 112.00,212.00
           C 112.00,212.00 111.00,213.00 111.00,213.00
             111.00,213.00 111.00,212.00 111.00,212.00
             111.00,212.00 112.00,212.00 112.00,212.00 Z
           M 110.00,215.00
           C 110.00,215.00 109.00,216.00 109.00,216.00
             109.00,216.00 109.00,215.00 109.00,215.00
             109.00,215.00 110.00,215.00 110.00,215.00 Z
           M 275.00,215.00
           C 275.00,215.00 274.00,216.00 274.00,216.00
             274.00,216.00 274.00,215.00 274.00,215.00
             274.00,215.00 275.00,215.00 275.00,215.00 Z
           M 109.00,217.00
           C 109.00,217.00 108.00,218.00 108.00,218.00
             108.00,218.00 108.00,217.00 108.00,217.00
             108.00,217.00 109.00,217.00 109.00,217.00 Z
           M 274.00,217.00
           C 274.00,217.00 273.00,218.00 273.00,218.00
             273.00,218.00 273.00,217.00 273.00,217.00
             273.00,217.00 274.00,217.00 274.00,217.00 Z
           M 107.00,220.00
           C 107.00,220.00 106.00,221.00 106.00,221.00
             106.00,221.00 106.00,220.00 106.00,220.00
             106.00,220.00 107.00,220.00 107.00,220.00 Z
           M 273.00,220.00
           C 273.00,220.00 272.00,221.00 272.00,221.00
             272.00,221.00 272.00,220.00 272.00,220.00
             272.00,220.00 273.00,220.00 273.00,220.00 Z
           M 181.00,224.00
           C 173.87,231.49 162.28,229.39 156.00,222.00
             165.56,224.15 170.87,226.46 181.00,224.00 Z
           M 106.00,225.00
           C 106.00,225.00 105.00,226.00 105.00,226.00
             105.00,226.00 105.00,225.00 105.00,225.00
             105.00,225.00 106.00,225.00 106.00,225.00 Z
           M 191.04,230.49
           C 195.97,234.53 200.15,236.17 203.65,242.00
             208.84,250.67 208.42,253.75 199.00,256.42
             199.00,256.42 192.00,258.00 192.00,258.00
             190.89,252.80 190.46,252.09 187.21,248.00
             187.21,248.00 187.21,258.57 187.21,258.57
             187.21,258.57 181.00,262.02 181.00,262.02
             181.00,262.02 164.00,267.00 164.00,267.00
             164.00,261.63 165.18,257.92 160.00,255.00
             159.64,257.72 158.57,266.59 157.02,268.40
             154.61,271.20 147.12,270.10 145.80,266.72
             144.64,264.58 145.93,257.03 145.80,254.00
             142.39,257.92 142.68,262.84 142.00,268.00
             142.00,268.00 133.00,266.00 133.00,266.00
             131.14,254.15 138.45,242.43 146.42,234.15
             148.01,232.50 152.11,227.91 154.09,227.42
             157.28,226.64 160.12,230.01 164.00,231.15
             167.87,232.59 172.15,231.94 176.00,231.15
             176.00,231.15 180.00,252.00 180.00,252.00
             180.00,252.00 182.00,252.00 182.00,252.00
             182.00,252.00 183.00,251.00 183.00,251.00
             183.00,251.00 179.00,230.00 179.00,230.00
             179.00,230.00 185.00,225.00 185.00,225.00
             185.00,225.00 191.04,230.49 191.04,230.49 Z
           M 102.00,226.00
           C 102.00,226.00 101.00,227.00 101.00,227.00
             101.00,227.00 101.00,226.00 101.00,226.00
             101.00,226.00 102.00,226.00 102.00,226.00 Z
           M 92.00,228.00
           C 92.00,228.00 91.00,229.00 91.00,229.00
             91.00,229.00 91.00,228.00 91.00,228.00
             91.00,228.00 92.00,228.00 92.00,228.00 Z
           M 91.00,232.35
           C 97.99,230.78 110.59,227.13 117.00,230.00
             117.00,230.00 59.00,240.79 59.00,240.79
             59.00,240.79 39.11,244.42 39.11,244.42
             39.11,244.42 36.00,243.00 36.00,243.00
             36.00,243.00 91.00,232.35 91.00,232.35 Z
           M 267.00,229.00
           C 267.00,229.00 266.00,230.00 266.00,230.00
             266.00,230.00 266.00,229.00 266.00,229.00
             266.00,229.00 267.00,229.00 267.00,229.00 Z
           M 82.00,230.00
           C 82.00,230.00 81.00,231.00 81.00,231.00
             81.00,231.00 81.00,230.00 81.00,230.00
             81.00,230.00 82.00,230.00 82.00,230.00 Z
           M 76.00,231.00
           C 76.00,231.00 75.00,232.00 75.00,232.00
             75.00,232.00 75.00,231.00 75.00,231.00
             75.00,231.00 76.00,231.00 76.00,231.00 Z
           M 78.00,231.00
           C 78.00,231.00 77.00,232.00 77.00,232.00
             77.00,232.00 77.00,231.00 77.00,231.00
             77.00,231.00 78.00,231.00 78.00,231.00 Z
           M 249.14,249.00
           C 248.85,251.03 246.06,255.81 245.00,258.00
             242.03,255.53 235.23,247.94 235.25,244.00
             235.27,241.24 239.41,235.44 241.00,233.00
             243.84,235.84 249.72,244.98 249.14,249.00 Z
           M 62.00,234.00
           C 62.00,234.00 61.00,235.00 61.00,235.00
             61.00,235.00 61.00,234.00 61.00,234.00
             61.00,234.00 62.00,234.00 62.00,234.00 Z
           M 58.00,235.00
           C 58.00,235.00 57.00,236.00 57.00,236.00
             57.00,236.00 57.00,235.00 57.00,235.00
             57.00,235.00 58.00,235.00 58.00,235.00 Z
           M 52.00,236.00
           C 52.00,236.00 51.00,237.00 51.00,237.00
             51.00,237.00 51.00,236.00 51.00,236.00
             51.00,236.00 52.00,236.00 52.00,236.00 Z
           M 48.00,237.00
           C 48.00,237.00 47.00,238.00 47.00,238.00
             47.00,238.00 47.00,237.00 47.00,237.00
             47.00,237.00 48.00,237.00 48.00,237.00 Z
           M 121.57,239.50
           C 126.24,242.15 120.54,248.10 120.97,252.00
             121.37,255.66 123.72,254.99 124.00,263.00
             124.00,263.00 93.00,257.00 93.00,257.00
             93.00,257.00 95.29,254.39 95.29,254.39
             95.29,254.39 102.00,254.95 102.00,254.95
             102.00,254.95 114.00,254.95 114.00,254.95
             114.00,254.95 114.00,252.00 114.00,252.00
             114.00,252.00 96.00,252.00 96.00,252.00
             96.00,252.00 93.00,243.00 93.00,243.00
             93.00,243.00 99.04,245.24 99.04,245.24
             99.04,245.24 113.00,244.59 113.00,244.59
             113.00,244.59 121.00,243.00 121.00,243.00
             121.00,243.00 121.00,240.00 121.00,240.00
             115.41,241.04 112.70,243.55 107.00,241.00
             112.93,240.67 118.05,237.51 121.57,239.50 Z
           M 39.00,239.00
           C 39.00,239.00 38.00,240.00 38.00,240.00
             38.00,240.00 38.00,239.00 38.00,239.00
             38.00,239.00 39.00,239.00 39.00,239.00 Z
           M 35.00,240.00
           C 35.00,240.00 34.00,241.00 34.00,241.00
             34.00,241.00 34.00,240.00 34.00,240.00
             34.00,240.00 35.00,240.00 35.00,240.00 Z
           M 106.00,240.00
           C 106.00,240.00 105.00,241.00 105.00,241.00
             105.00,241.00 105.00,240.00 105.00,240.00
             105.00,240.00 106.00,240.00 106.00,240.00 Z
           M 30.00,241.00
           C 30.00,241.00 29.00,242.00 29.00,242.00
             29.00,242.00 29.00,241.00 29.00,241.00
             29.00,241.00 30.00,241.00 30.00,241.00 Z
           M 104.00,242.00
           C 104.00,242.00 96.00,242.00 96.00,242.00
             96.00,242.00 104.00,242.00 104.00,242.00 Z
           M 27.00,242.00
           C 27.00,242.00 26.00,243.00 26.00,243.00
             26.00,243.00 26.00,242.00 26.00,242.00
             26.00,242.00 27.00,242.00 27.00,242.00 Z
           M 241.00,245.00
           C 241.00,245.00 244.00,248.00 244.00,248.00
             244.00,248.00 245.00,244.00 245.00,244.00
             245.00,244.00 241.00,245.00 241.00,245.00 Z
           M 120.00,260.00
           C 117.45,248.53 118.50,255.39 121.00,245.00
             115.26,249.54 112.20,255.58 120.00,260.00 Z
           M 68.00,254.35
           C 68.00,254.35 125.00,267.42 125.00,267.42
             125.00,267.42 152.00,273.07 152.00,273.07
             156.65,273.58 165.22,270.22 170.00,268.86
             170.00,268.86 210.00,256.66 210.00,256.66
             216.61,254.54 225.12,250.38 232.00,252.00
             232.00,252.00 201.00,262.67 201.00,262.67
             201.00,262.67 168.00,273.14 168.00,273.14
             168.00,273.14 153.00,276.94 153.00,276.94
             153.00,276.94 126.00,270.88 126.00,270.88
             126.00,270.88 81.00,259.42 81.00,259.42
             81.00,259.42 51.00,251.88 51.00,251.88
             51.00,251.88 36.00,248.00 36.00,248.00
             44.64,248.08 58.98,252.31 68.00,254.35 Z
           M 255.00,249.00
           C 255.00,249.00 254.00,250.00 254.00,250.00
             254.00,250.00 254.00,249.00 254.00,249.00
             254.00,249.00 255.00,249.00 255.00,249.00 Z
           M 31.98,250.53
           C 42.10,253.09 33.07,265.15 39.31,270.15
             41.06,271.55 47.46,272.86 50.00,273.58
             50.00,273.58 72.00,280.00 72.00,280.00
             72.00,280.00 68.00,289.00 68.00,289.00
             68.00,289.00 39.00,281.00 39.00,281.00
             36.06,292.08 37.00,303.62 37.00,315.00
             44.03,316.09 58.35,321.78 66.00,324.33
             66.00,324.33 115.00,340.59 115.00,340.59
             115.00,340.59 132.00,346.32 132.00,346.32
             134.00,346.93 136.59,347.89 138.40,346.32
             140.32,344.63 140.00,340.36 140.02,338.00
             140.02,338.00 140.02,320.00 140.02,320.00
             140.29,317.06 141.57,312.88 140.02,310.27
             138.06,307.14 132.32,306.37 129.00,305.53
             129.00,305.53 99.76,298.00 99.76,298.00
             99.76,298.00 99.76,279.00 99.76,279.00
             99.76,279.00 93.00,266.00 93.00,266.00
             93.00,266.00 99.00,267.00 99.00,267.00
             99.00,267.00 98.00,271.00 98.00,271.00
             98.00,271.00 102.00,268.00 102.00,268.00
             102.00,268.00 102.00,281.00 102.00,281.00
             102.05,283.24 101.96,285.68 103.60,287.44
             106.08,290.11 122.51,293.44 127.00,294.71
             129.79,295.50 137.01,298.22 139.40,296.23
             141.76,294.27 141.21,281.32 141.00,278.00
             141.00,278.00 151.00,280.00 151.00,280.00
             151.00,280.00 151.00,294.00 151.00,294.00
             151.00,294.00 150.00,310.00 150.00,310.00
             150.00,310.00 150.00,345.00 150.00,345.00
             150.00,345.00 149.00,364.00 149.00,364.00
             149.00,364.00 55.00,331.05 55.00,331.05
             55.00,331.05 36.00,324.22 36.00,324.22
             36.00,324.22 27.99,320.35 27.99,320.35
             27.99,320.35 27.00,313.00 27.00,313.00
             27.00,313.00 27.00,250.00 27.00,250.00
             28.68,250.08 30.34,250.11 31.98,250.53 Z
           M 253.00,250.00
           C 253.00,250.00 252.00,251.00 252.00,251.00
             252.00,251.00 252.00,250.00 252.00,250.00
             252.00,250.00 253.00,250.00 253.00,250.00 Z
           M 252.00,252.00
           C 252.00,252.00 251.00,253.00 251.00,253.00
             251.00,253.00 251.00,252.00 251.00,252.00
             251.00,252.00 252.00,252.00 252.00,252.00 Z
           M 31.00,262.00
           C 31.00,262.00 34.00,262.00 34.00,262.00
             34.00,262.00 33.00,256.00 33.00,256.00
             30.60,258.61 30.70,258.46 31.00,262.00 Z
           M 236.00,256.00
           C 236.00,256.00 234.00,317.00 234.00,317.00
             234.00,317.00 232.69,326.51 232.69,326.51
             232.69,326.51 216.00,335.23 216.00,335.23
             216.00,335.23 179.00,351.17 179.00,351.17
             179.00,351.17 153.00,362.00 153.00,362.00
             153.00,362.00 153.00,346.00 153.00,346.00
             153.00,346.00 154.00,330.00 154.00,330.00
             154.00,330.00 154.00,307.00 154.00,307.00
             154.00,307.00 154.83,288.00 154.83,288.00
             154.83,288.00 155.57,281.43 155.57,281.43
             155.57,281.43 165.00,277.00 165.00,277.00
             165.00,277.00 164.00,302.00 164.00,302.00
             164.00,302.00 164.00,345.00 164.00,345.00
             164.00,345.00 211.00,326.28 211.00,326.28
             225.24,320.14 225.98,321.25 226.00,311.00
             226.00,311.00 226.00,287.00 226.00,287.00
             226.00,287.00 226.96,275.00 226.96,275.00
             226.96,275.00 226.96,258.00 226.96,258.00
             226.96,258.00 236.00,256.00 236.00,256.00 Z
           M 248.00,258.00
           C 248.00,258.00 247.00,259.00 247.00,259.00
             247.00,259.00 247.00,258.00 247.00,258.00
             247.00,258.00 248.00,258.00 248.00,258.00 Z
           M 230.00,262.00
           C 230.00,262.00 229.00,266.00 229.00,266.00
             229.00,266.00 233.00,265.00 233.00,265.00
             233.00,265.00 233.00,263.00 233.00,263.00
             233.00,263.00 232.00,262.00 232.00,262.00
             232.00,262.00 230.00,262.00 230.00,262.00 Z
           M 91.00,266.00
           C 81.54,270.66 84.87,271.56 79.00,277.00
             79.00,277.00 79.00,263.00 79.00,263.00
             79.00,263.00 91.00,266.00 91.00,266.00 Z
           M 81.00,264.00
           C 81.00,264.00 82.00,268.00 82.00,268.00
             82.00,268.00 83.00,264.00 83.00,264.00
             83.00,264.00 81.00,264.00 81.00,264.00 Z
           M 90.00,270.00
           C 87.84,274.34 87.41,274.82 90.00,279.00
             90.00,279.00 85.00,279.00 85.00,279.00
             85.18,273.92 85.26,272.44 90.00,270.00 Z
           M 32.00,275.00
           C 32.00,275.00 31.00,279.00 31.00,279.00
             31.00,279.00 35.00,278.00 35.00,278.00
             35.00,278.00 35.00,276.00 35.00,276.00
             35.00,276.00 34.00,275.00 34.00,275.00
             34.00,275.00 32.00,275.00 32.00,275.00 Z
           M 91.00,286.00
           C 91.00,286.00 86.00,282.00 86.00,282.00
             86.00,282.00 93.00,282.00 93.00,282.00
             93.00,282.00 91.00,274.00 91.00,274.00
             97.05,277.11 98.03,283.67 91.00,286.00 Z
           M 47.00,281.00
           C 49.87,280.45 49.87,280.71 51.00,278.00
             51.00,278.00 47.00,281.00 47.00,281.00 Z
           M 228.00,280.00
           C 228.00,280.00 229.00,284.00 229.00,284.00
             229.00,284.00 231.00,284.00 231.00,284.00
             231.00,284.00 232.00,283.00 232.00,283.00
             232.00,283.00 232.00,281.00 232.00,281.00
             232.00,281.00 228.00,280.00 228.00,280.00 Z
           M 207.00,280.00
           C 204.74,282.82 198.58,284.82 199.44,289.12
             199.44,289.12 202.00,294.00 202.00,294.00
             202.00,294.00 205.00,294.00 205.00,294.00
             200.26,296.42 194.25,299.02 189.00,297.00
             191.49,295.76 197.79,293.13 195.26,289.31
             194.53,288.22 193.25,287.66 191.98,287.59
             189.83,287.46 185.18,290.03 183.00,291.00
             183.00,291.00 182.00,288.00 182.00,288.00
             182.00,288.00 207.00,280.00 207.00,280.00 Z
           M 64.00,282.00
           C 64.00,282.00 64.00,285.00 64.00,285.00
             64.00,285.00 67.00,285.00 67.00,285.00
             67.00,285.00 67.00,282.00 67.00,282.00
             67.00,282.00 64.00,282.00 64.00,282.00 Z
           M 92.69,298.95
           C 89.24,305.50 79.21,305.21 74.39,300.47
             70.47,296.61 70.64,287.36 73.85,283.31
             78.58,277.37 87.97,287.43 88.43,288.41
             90.51,292.89 86.31,297.61 84.00,301.00
             84.00,301.00 94.00,290.00 94.00,290.00
             93.97,292.92 94.08,296.29 92.69,298.95 Z
           M 146.00,289.00
           C 148.26,287.41 148.39,287.42 147.00,285.00
             147.00,285.00 146.00,289.00 146.00,289.00 Z
           M 157.00,286.00
           C 157.00,286.00 157.00,288.00 157.00,288.00
             157.00,288.00 161.00,289.00 161.00,289.00
             161.00,289.00 161.00,285.00 161.00,285.00
             161.00,285.00 157.00,286.00 157.00,286.00 Z
           M 79.00,287.00
           C 76.85,291.82 74.78,293.64 75.00,299.00
             79.71,297.46 86.30,289.59 79.00,287.00 Z
           M 213.00,286.00
           C 215.39,300.05 205.16,301.34 194.00,304.13
             191.29,304.80 184.96,306.86 182.61,304.97
             179.02,302.08 183.73,296.04 186.00,294.00
             185.74,308.65 206.62,298.29 208.53,292.04
             209.17,289.91 207.81,287.89 207.00,286.00
             207.00,286.00 213.00,286.00 213.00,286.00 Z
           M 103.00,293.00
           C 103.00,293.00 103.00,295.00 103.00,295.00
             106.54,295.47 106.80,295.39 108.00,292.00
             108.00,292.00 103.00,293.00 103.00,293.00 Z
           M 239.00,293.00
           C 239.00,293.00 238.00,294.00 238.00,294.00
             238.00,294.00 238.00,293.00 238.00,293.00
             238.00,293.00 239.00,293.00 239.00,293.00 Z
           M 30.00,295.00
           C 31.07,298.07 30.93,297.93 34.00,299.00
             34.00,299.00 34.00,295.00 34.00,295.00
             34.00,295.00 30.00,295.00 30.00,295.00 Z
           M 121.00,300.00
           C 121.00,300.00 125.00,301.00 125.00,301.00
             125.00,301.00 124.00,297.00 124.00,297.00
             124.00,297.00 121.00,300.00 121.00,300.00 Z
           M 227.00,302.00
           C 227.00,302.00 227.00,304.00 227.00,304.00
             227.00,304.00 232.00,304.00 232.00,304.00
             232.00,304.00 232.00,302.00 232.00,302.00
             232.00,302.00 227.00,302.00 227.00,302.00 Z
           M 143.00,303.00
           C 143.00,303.00 143.00,305.00 143.00,305.00
             143.00,305.00 147.00,306.00 147.00,306.00
             147.00,306.00 146.00,302.00 146.00,302.00
             146.00,302.00 143.00,303.00 143.00,303.00 Z
           M 157.00,307.00
           C 157.00,307.00 161.00,306.00 161.00,306.00
             161.00,306.00 159.00,302.00 159.00,302.00
             159.00,302.00 157.00,307.00 157.00,307.00 Z
           M 31.00,320.00
           C 34.37,319.82 34.27,319.90 36.00,317.00
             32.46,316.53 32.20,316.61 31.00,320.00 Z
           M 48.00,323.00
           C 49.20,326.39 49.46,326.47 53.00,326.00
             53.00,326.00 53.00,324.00 53.00,324.00
             53.00,324.00 48.00,323.00 48.00,323.00 Z
           M 226.00,323.00
           C 226.00,323.00 227.00,327.00 227.00,327.00
             227.00,327.00 230.00,323.00 230.00,323.00
             230.00,323.00 226.00,323.00 226.00,323.00 Z
           M 29.00,325.00
           C 29.00,325.00 28.00,326.00 28.00,326.00
             28.00,326.00 28.00,325.00 28.00,325.00
             28.00,325.00 29.00,325.00 29.00,325.00 Z
           M 156.00,327.00
           C 156.00,327.00 160.00,331.00 160.00,331.00
             160.53,327.03 159.97,326.47 156.00,327.00 Z
           M 143.00,329.00
           C 143.00,329.00 147.00,330.00 147.00,330.00
             147.00,330.00 147.00,327.00 147.00,327.00
             147.00,327.00 143.00,329.00 143.00,329.00 Z
           M 34.00,327.00
           C 34.00,327.00 33.00,328.00 33.00,328.00
             33.00,328.00 33.00,327.00 33.00,327.00
             33.00,327.00 34.00,327.00 34.00,327.00 Z
           M 67.00,332.00
           C 70.78,332.32 71.08,332.31 73.00,329.00
             69.14,328.35 68.36,328.15 67.00,332.00 Z
           M 213.00,328.00
           C 213.00,328.00 212.00,329.00 212.00,329.00
             212.00,329.00 212.00,331.00 212.00,331.00
             212.00,331.00 216.00,332.00 216.00,332.00
             216.00,332.00 215.00,328.00 215.00,328.00
             215.00,328.00 213.00,328.00 213.00,328.00 Z
           M 37.00,328.00
           C 37.00,328.00 36.00,329.00 36.00,329.00
             36.00,329.00 36.00,328.00 36.00,328.00
             36.00,328.00 37.00,328.00 37.00,328.00 Z
           M 39.00,329.00
           C 39.00,329.00 38.00,330.00 38.00,330.00
             38.00,330.00 38.00,329.00 38.00,329.00
             38.00,329.00 39.00,329.00 39.00,329.00 Z
           M 43.00,330.00
           C 43.00,330.00 42.00,331.00 42.00,331.00
             42.00,331.00 42.00,330.00 42.00,330.00
             42.00,330.00 43.00,330.00 43.00,330.00 Z
           M 236.00,330.00
           C 236.00,330.00 235.00,331.00 235.00,331.00
             235.00,331.00 235.00,330.00 235.00,330.00
             235.00,330.00 236.00,330.00 236.00,330.00 Z
           M 45.00,331.00
           C 45.00,331.00 44.00,332.00 44.00,332.00
             44.00,332.00 44.00,331.00 44.00,331.00
             44.00,331.00 45.00,331.00 45.00,331.00 Z
           M 47.00,332.00
           C 47.00,332.00 46.00,333.00 46.00,333.00
             46.00,333.00 46.00,332.00 46.00,332.00
             46.00,332.00 47.00,332.00 47.00,332.00 Z
           M 232.00,332.00
           C 232.00,332.00 231.00,333.00 231.00,333.00
             231.00,333.00 231.00,332.00 231.00,332.00
             231.00,332.00 232.00,332.00 232.00,332.00 Z
           M 51.00,333.00
           C 51.00,333.00 50.00,334.00 50.00,334.00
             50.00,334.00 50.00,333.00 50.00,333.00
             50.00,333.00 51.00,333.00 51.00,333.00 Z
           M 230.00,333.00
           C 230.00,333.00 229.00,334.00 229.00,334.00
             229.00,334.00 229.00,333.00 229.00,333.00
             229.00,333.00 230.00,333.00 230.00,333.00 Z
           M 53.00,334.00
           C 53.00,334.00 52.00,335.00 52.00,335.00
             52.00,335.00 52.00,334.00 52.00,334.00
             52.00,334.00 53.00,334.00 53.00,334.00 Z
           M 88.00,338.00
           C 88.00,338.00 94.00,339.00 94.00,339.00
             91.94,335.47 91.07,335.27 88.00,338.00 Z
           M 194.00,339.00
           C 194.00,339.00 199.00,338.00 199.00,338.00
             199.00,338.00 199.00,336.00 199.00,336.00
             195.59,335.89 195.22,335.73 194.00,339.00 Z
           M 228.00,334.00
           C 228.00,334.00 227.00,335.00 227.00,335.00
             227.00,335.00 227.00,334.00 227.00,334.00
             227.00,334.00 228.00,334.00 228.00,334.00 Z
           M 224.00,335.00
           C 224.00,335.00 223.00,336.00 223.00,336.00
             223.00,336.00 223.00,335.00 223.00,335.00
             223.00,335.00 224.00,335.00 224.00,335.00 Z
           M 222.00,336.00
           C 222.00,336.00 221.00,337.00 221.00,337.00
             221.00,337.00 221.00,336.00 221.00,336.00
             221.00,336.00 222.00,336.00 222.00,336.00 Z
           M 219.00,337.00
           C 219.00,337.00 218.00,338.00 218.00,338.00
             218.00,338.00 218.00,337.00 218.00,337.00
             218.00,337.00 219.00,337.00 219.00,337.00 Z
           M 217.00,338.00
           C 217.00,338.00 216.00,339.00 216.00,339.00
             216.00,339.00 216.00,338.00 216.00,338.00
             216.00,338.00 217.00,338.00 217.00,338.00 Z
           M 70.00,339.00
           C 70.00,339.00 69.00,340.00 69.00,340.00
             69.00,340.00 69.00,339.00 69.00,339.00
             69.00,339.00 70.00,339.00 70.00,339.00 Z
           M 214.00,339.00
           C 214.00,339.00 213.00,340.00 213.00,340.00
             213.00,340.00 213.00,339.00 213.00,339.00
             213.00,339.00 214.00,339.00 214.00,339.00 Z
           M 72.00,340.00
           C 72.00,340.00 71.00,341.00 71.00,341.00
             71.00,341.00 71.00,340.00 71.00,340.00
             71.00,340.00 72.00,340.00 72.00,340.00 Z
           M 107.00,341.00
           C 107.00,341.00 107.00,345.00 107.00,345.00
             107.00,345.00 111.00,345.00 111.00,345.00
             109.93,341.93 110.07,342.07 107.00,341.00 Z
           M 212.00,340.00
           C 212.00,340.00 211.00,341.00 211.00,341.00
             211.00,341.00 211.00,340.00 211.00,340.00
             211.00,340.00 212.00,340.00 212.00,340.00 Z
           M 75.00,341.00
           C 75.00,341.00 74.00,342.00 74.00,342.00
             74.00,342.00 74.00,341.00 74.00,341.00
             74.00,341.00 75.00,341.00 75.00,341.00 Z
           M 176.00,344.00
           C 176.00,344.00 176.00,346.00 176.00,346.00
             176.00,346.00 181.00,346.00 181.00,346.00
             181.00,346.00 181.00,344.00 181.00,344.00
             181.00,344.00 176.00,344.00 176.00,344.00 Z
           M 81.00,343.00
           C 81.00,343.00 80.00,344.00 80.00,344.00
             80.00,344.00 80.00,343.00 80.00,343.00
             80.00,343.00 81.00,343.00 81.00,343.00 Z
           M 206.00,343.00
           C 206.00,343.00 205.00,344.00 205.00,344.00
             205.00,344.00 205.00,343.00 205.00,343.00
             205.00,343.00 206.00,343.00 206.00,343.00 Z
           M 203.00,344.00
           C 203.00,344.00 202.00,345.00 202.00,345.00
             202.00,345.00 202.00,344.00 202.00,344.00
             202.00,344.00 203.00,344.00 203.00,344.00 Z
           M 87.00,345.00
           C 87.00,345.00 86.00,346.00 86.00,346.00
             86.00,346.00 86.00,345.00 86.00,345.00
             86.00,345.00 87.00,345.00 87.00,345.00 Z
           M 123.00,350.00
           C 123.00,350.00 128.00,351.00 128.00,351.00
             128.00,351.00 127.00,346.00 127.00,346.00
             127.00,346.00 123.00,350.00 123.00,350.00 Z
           M 201.00,345.00
           C 201.00,345.00 200.00,346.00 200.00,346.00
             200.00,346.00 200.00,345.00 200.00,345.00
             200.00,345.00 201.00,345.00 201.00,345.00 Z
           M 92.00,347.00
           C 92.00,347.00 91.00,348.00 91.00,348.00
             91.00,348.00 91.00,347.00 91.00,347.00
             91.00,347.00 92.00,347.00 92.00,347.00 Z
           M 197.00,347.00
           C 197.00,347.00 196.00,348.00 196.00,348.00
             196.00,348.00 196.00,347.00 196.00,347.00
             196.00,347.00 197.00,347.00 197.00,347.00 Z
           M 95.00,348.00
           C 95.00,348.00 94.00,349.00 94.00,349.00
             94.00,349.00 94.00,348.00 94.00,348.00
             94.00,348.00 95.00,348.00 95.00,348.00 Z
           M 156.00,354.00
           C 159.97,354.53 160.53,353.97 160.00,350.00
             160.00,350.00 156.00,354.00 156.00,354.00 Z
           M 100.00,350.00
           C 100.00,350.00 99.00,351.00 99.00,351.00
             99.00,351.00 99.00,350.00 99.00,350.00
             99.00,350.00 100.00,350.00 100.00,350.00 Z
           M 104.00,351.00
           C 104.00,351.00 103.00,352.00 103.00,352.00
             103.00,352.00 103.00,351.00 103.00,351.00
             103.00,351.00 104.00,351.00 104.00,351.00 Z
           M 106.00,352.00
           C 106.00,352.00 105.00,353.00 105.00,353.00
             105.00,353.00 105.00,352.00 105.00,352.00
             105.00,352.00 106.00,352.00 106.00,352.00 Z
           M 142.00,358.00
           C 142.00,358.00 144.00,358.00 144.00,358.00
             144.00,358.00 145.00,353.00 145.00,353.00
             141.61,354.20 141.53,354.46 142.00,358.00 Z
           M 109.00,353.00
           C 109.00,353.00 108.00,354.00 108.00,354.00
             108.00,354.00 108.00,353.00 108.00,353.00
             108.00,353.00 109.00,353.00 109.00,353.00 Z
           M 184.00,353.00
           C 184.00,353.00 183.00,354.00 183.00,354.00
             183.00,354.00 183.00,353.00 183.00,353.00
             183.00,353.00 184.00,353.00 184.00,353.00 Z
           M 179.00,355.00
           C 179.00,355.00 178.00,356.00 178.00,356.00
             178.00,356.00 178.00,355.00 178.00,355.00
             178.00,355.00 179.00,355.00 179.00,355.00 Z
           M 118.00,356.00
           C 118.00,356.00 117.00,357.00 117.00,357.00
             117.00,357.00 117.00,356.00 117.00,356.00
             117.00,356.00 118.00,356.00 118.00,356.00 Z
           M 120.00,357.00
           C 120.00,357.00 119.00,358.00 119.00,358.00
             119.00,358.00 119.00,357.00 119.00,357.00
             119.00,357.00 120.00,357.00 120.00,357.00 Z
           M 173.00,358.00
           C 173.00,358.00 172.00,359.00 172.00,359.00
             172.00,359.00 172.00,358.00 172.00,358.00
             172.00,358.00 173.00,358.00 173.00,358.00 Z
           M 126.00,359.00
           C 126.00,359.00 125.00,360.00 125.00,360.00
             125.00,360.00 125.00,359.00 125.00,359.00
             125.00,359.00 126.00,359.00 126.00,359.00 Z
           M 170.00,359.00
           C 170.00,359.00 169.00,360.00 169.00,360.00
             169.00,360.00 169.00,359.00 169.00,359.00
             169.00,359.00 170.00,359.00 170.00,359.00 Z
           M 128.00,360.00
           C 128.00,360.00 127.00,361.00 127.00,361.00
             127.00,361.00 127.00,360.00 127.00,360.00
             127.00,360.00 128.00,360.00 128.00,360.00 Z
           M 166.00,361.00
           C 166.00,361.00 165.00,362.00 165.00,362.00
             165.00,362.00 165.00,361.00 165.00,361.00
             165.00,361.00 166.00,361.00 166.00,361.00 Z
           M 134.00,362.00
           C 134.00,362.00 133.00,363.00 133.00,363.00
             133.00,363.00 133.00,362.00 133.00,362.00
             133.00,362.00 134.00,362.00 134.00,362.00 Z
           M 164.00,362.00
           C 164.00,362.00 163.00,363.00 163.00,363.00
             163.00,363.00 163.00,362.00 163.00,362.00
             163.00,362.00 164.00,362.00 164.00,362.00 Z
           M 136.00,363.00
           C 136.00,363.00 135.00,364.00 135.00,364.00
             135.00,364.00 135.00,363.00 135.00,363.00
             135.00,363.00 136.00,363.00 136.00,363.00 Z
           M 140.00,364.00
           C 140.00,364.00 139.00,365.00 139.00,365.00
             139.00,365.00 139.00,364.00 139.00,364.00
             139.00,364.00 140.00,364.00 140.00,364.00 Z
           M 142.00,365.00
           C 142.00,365.00 141.00,366.00 141.00,366.00
             141.00,366.00 141.00,365.00 141.00,365.00
             141.00,365.00 142.00,365.00 142.00,365.00 Z"
	/>

	
	<path id="blue"
        fill="#009ece" stroke="#231f20" stroke-width="3"
        d="M 150.23,184.00
           C 150.23,184.00 159.63,168.92 159.63,168.92
             159.63,168.92 167.00,168.92 167.00,168.92
             167.00,168.92 186.00,170.92 186.00,170.92
             186.00,170.92 264.00,179.00 264.00,179.00
             264.00,179.00 239.31,220.00 239.31,220.00
             237.57,222.71 230.66,233.94 228.71,235.05
             226.56,236.58 221.51,235.30 219.00,235.05
             212.10,233.84 197.08,231.99 192.23,227.47
             181.54,217.52 203.92,213.12 192.94,203.23
             192.06,202.43 191.06,201.71 190.00,201.17
             186.61,199.47 182.47,200.21 178.83,199.48
             176.20,198.96 173.75,197.44 171.00,197.91
             168.18,198.38 166.79,200.36 162.00,200.89
             155.33,201.63 152.37,200.97 147.53,207.04
             146.53,208.30 145.16,210.36 145.01,212.00
             144.65,216.11 149.14,217.45 152.00,223.00
             152.00,223.00 131.00,219.00 131.00,219.00
             131.00,219.00 150.23,184.00 150.23,184.00 Z
           M 283.27,193.00
           C 283.78,197.00 276.67,206.83 274.00,210.00
             271.96,206.18 266.26,197.98 266.63,194.00
             266.91,190.87 272.20,183.22 274.00,180.00
             276.78,182.49 282.80,189.33 283.27,193.00 Z
           M 264.08,224.00
           C 264.18,226.46 262.29,229.02 261.00,231.00
             261.00,231.00 252.00,245.00 252.00,245.00
             249.22,241.68 243.62,233.41 244.46,229.00
             244.97,226.33 253.08,213.88 255.00,211.00
             257.98,213.48 263.91,220.00 264.08,224.00 Z
           M 75.00,261.00
           C 75.00,261.00 75.00,278.00 75.00,278.00
             75.00,278.00 52.00,271.15 52.00,271.15
             52.00,271.15 41.99,267.30 41.99,267.30
             41.99,267.30 41.00,253.00 41.00,253.00
             41.00,253.00 75.00,261.00 75.00,261.00 Z
           M 167.00,322.00
           C 167.00,322.00 168.00,306.00 168.00,306.00
             168.00,306.00 168.00,284.00 168.00,284.00
             168.00,284.00 169.57,276.09 169.57,276.09
             169.57,276.09 185.00,270.98 185.00,270.98
             185.00,270.98 223.00,260.00 223.00,260.00
             223.00,260.00 223.00,285.00 223.00,285.00
             223.00,285.00 222.04,297.00 222.04,297.00
             222.04,297.00 222.04,310.00 222.04,310.00
             222.04,310.00 220.40,318.19 220.40,318.19
             220.40,318.19 205.00,325.42 205.00,325.42
             205.00,325.42 167.00,341.00 167.00,341.00
             167.00,341.00 167.00,322.00 167.00,322.00 Z
           M 128.00,274.37
           C 130.31,274.95 135.57,275.88 137.00,277.72
             139.10,280.42 137.60,290.64 137.00,294.00
             137.00,294.00 106.00,286.00 106.00,286.00
             106.00,286.00 106.00,269.00 106.00,269.00
             106.00,269.00 128.00,274.37 128.00,274.37 Z
           M 189.00,281.81
           C 186.60,282.56 181.49,283.70 179.99,285.70
             178.40,287.82 179.25,293.29 179.06,296.00
             178.81,299.68 176.62,305.21 180.43,307.81
             183.31,309.80 188.80,308.47 192.00,307.81
             200.36,306.01 215.03,302.79 217.03,293.00
             218.28,286.87 213.70,283.73 211.99,280.72
             211.04,279.04 210.59,276.85 210.00,275.00
             210.00,275.00 189.00,281.81 189.00,281.81 Z
           M 68.00,292.00
           C 68.60,302.83 77.41,313.24 89.00,308.52
             96.30,305.55 96.33,300.93 102.01,301.38
             102.01,301.38 136.95,310.00 136.95,310.00
             136.95,310.00 136.95,325.00 136.95,325.00
             136.95,325.00 136.00,344.00 136.00,344.00
             136.00,344.00 91.42,329.24 91.42,329.24
             91.42,329.24 40.00,312.00 40.00,312.00
             40.00,312.00 41.00,286.00 41.00,286.00
             41.00,286.00 68.00,292.00 68.00,292.00 Z" />
			 
	
	<path id="black"
        fill="#231f20" stroke="#231f20" stroke-width="1"
        d="M 144.14,158.00
           C 144.14,158.00 149.53,149.60 149.53,149.60
             149.53,149.60 156.00,148.17 156.00,148.17
             156.00,148.17 169.00,149.83 169.00,149.83
             169.00,149.83 192.00,151.69 192.00,151.69
             192.00,151.69 208.00,153.54 208.00,153.54
             208.00,153.54 235.00,157.00 235.00,157.00
             235.00,157.00 192.00,153.17 192.00,153.17
             192.00,153.17 151.00,149.00 151.00,149.00
             151.00,149.00 135.00,176.00 135.00,176.00
             135.00,176.00 144.14,158.00 144.14,158.00 Z
           M 146.58,165.00
           C 146.58,165.00 153.38,155.02 153.38,155.02
             153.38,155.02 162.00,154.42 162.00,154.42
             162.00,154.42 180.00,157.00 180.00,157.00
             172.00,157.00 172.00,157.09 164.00,156.02
             161.33,155.64 157.64,154.68 155.21,156.02
             152.65,157.46 150.19,162.42 148.72,165.00
             145.64,170.40 138.80,184.12 134.00,187.00
             134.00,187.00 146.58,165.00 146.58,165.00 Z
           M 249.00,156.00
           C 249.00,156.00 256.00,159.00 256.00,159.00
             256.00,159.00 237.00,157.00 237.00,157.00
             237.00,157.00 240.00,155.00 240.00,155.00
             243.92,157.17 244.67,157.00 249.00,156.00 Z
           M 196.00,159.00
           C 196.00,159.00 181.00,157.00 181.00,157.00
             186.43,157.00 191.02,156.46 196.00,159.00 Z
           M 215.00,161.00
           C 210.36,160.62 201.64,160.35 198.00,158.00
             198.00,158.00 215.00,161.00 215.00,161.00 Z
           M 273.00,161.00
           C 273.00,161.00 257.00,159.00 257.00,159.00
             262.60,159.00 267.87,158.39 273.00,161.00 Z
           M 229.00,162.00
           C 224.45,162.00 221.95,162.55 218.00,160.00
             218.00,160.00 229.00,162.00 229.00,162.00 Z
           M 283.61,162.02
           C 286.83,164.08 294.36,179.20 293.40,183.00
             292.60,186.15 284.06,198.43 281.79,202.00
             276.32,210.62 263.16,233.71 257.00,240.00
             257.00,240.00 265.00,222.00 265.00,222.00
             269.86,220.64 272.64,214.77 273.00,210.00
             276.75,208.76 284.72,196.04 285.00,192.00
             287.78,189.57 291.71,184.92 291.71,181.00
             291.71,178.07 285.67,168.74 284.00,165.00
             284.00,165.00 282.00,165.00 282.00,165.00
             282.00,165.00 277.00,172.00 277.00,172.00
             277.00,172.00 282.00,162.00 282.00,162.00
             282.00,162.00 277.00,161.00 277.00,161.00
             279.10,161.03 281.78,160.85 283.61,162.02 Z
           M 242.00,164.00
           C 242.00,164.00 238.00,162.00 238.00,162.00
             238.00,162.00 242.00,164.00 242.00,164.00 Z
           M 262.00,166.00
           C 262.00,166.00 249.00,164.00 249.00,164.00
             253.95,164.00 257.57,163.43 262.00,166.00 Z
           M 274.00,166.00
           C 271.16,175.74 252.58,201.82 246.15,213.00
             243.24,218.06 236.59,230.24 232.00,233.00
             232.00,233.00 265.00,179.00 265.00,179.00
             265.00,179.00 241.00,175.00 241.00,175.00
             245.85,175.39 262.40,178.15 265.79,176.12
             268.47,174.51 270.66,169.77 272.00,167.00
             272.00,167.00 266.00,165.00 266.00,165.00
             266.00,165.00 274.00,166.00 274.00,166.00 Z
           M 152.23,176.00
           C 155.86,169.33 158.18,163.50 167.00,167.00
             156.12,167.14 156.70,171.92 151.58,181.00
             151.58,181.00 130.00,218.00 130.00,218.00
             130.00,218.00 152.23,176.00 152.23,176.00 Z
           M 196.00,171.00
           C 196.00,171.00 185.00,169.00 185.00,169.00
             189.55,169.00 192.05,168.45 196.00,171.00 Z
           M 211.00,172.00
           C 211.00,172.00 202.00,171.00 202.00,171.00
             202.00,171.00 211.00,172.00 211.00,172.00 Z
           M 221.00,174.00
           C 221.00,174.00 217.00,172.00 217.00,172.00
             217.00,172.00 221.00,174.00 221.00,174.00 Z
           M 266.00,197.00
           C 260.80,198.41 258.54,204.39 255.93,208.72
             255.93,208.72 249.69,218.00 249.69,218.00
             249.69,218.00 241.34,232.00 241.34,232.00
             240.00,234.16 235.14,240.92 234.62,242.72
             233.45,246.70 242.31,256.07 245.00,259.00
             245.00,259.00 245.00,258.00 245.00,258.00
             245.00,258.00 247.00,257.00 247.00,257.00
             247.00,257.00 245.00,261.00 245.00,261.00
             245.00,261.00 239.00,258.00 239.00,258.00
             239.00,258.00 237.04,287.00 237.04,287.00
             237.04,287.00 236.00,301.00 236.00,301.00
             236.00,301.00 236.00,281.00 236.00,281.00
             236.00,281.00 237.01,263.00 237.01,263.00
             237.04,258.62 237.83,256.27 233.00,255.00
             231.63,250.02 228.49,250.07 224.00,251.16
             218.82,252.41 209.73,256.38 204.88,256.00
             209.35,251.31 207.75,248.12 204.88,243.00
             198.58,232.39 190.27,232.49 187.00,223.00
             184.22,225.00 180.69,227.49 179.89,231.00
             178.88,234.38 182.97,243.52 179.89,251.00
             179.96,246.79 179.30,234.47 176.32,231.67
             175.17,230.60 173.46,230.39 172.00,230.00
             177.81,228.01 180.10,227.98 183.00,222.00
             183.00,222.00 177.00,224.00 177.00,224.00
             177.00,224.00 182.00,214.00 182.00,214.00
             182.00,214.00 179.00,222.00 179.00,222.00
             183.63,220.80 194.63,213.72 193.47,208.04
             193.09,206.20 189.40,202.70 188.00,201.00
             189.41,201.76 190.69,202.36 191.94,203.41
             202.61,212.34 184.53,215.93 189.28,224.96
             194.35,234.60 205.88,231.33 210.00,236.00
             210.00,236.00 201.00,234.00 201.00,234.00
             206.77,241.85 213.97,241.82 223.00,243.15
             225.54,243.50 228.91,244.63 231.18,243.15
             233.71,241.51 241.69,227.54 244.00,224.00
             244.00,224.00 276.00,173.00 276.00,173.00
             276.15,181.97 265.64,187.86 266.00,197.00 Z
           M 239.00,176.00
           C 239.00,176.00 229.00,174.00 229.00,174.00
             233.27,174.01 235.28,173.59 239.00,176.00 Z
           M 128.00,187.00
           C 128.00,187.00 133.00,177.00 133.00,177.00
             133.46,181.08 130.79,184.26 128.00,187.00 Z
           M 285.00,179.00
           C 285.00,179.00 284.00,180.00 284.00,180.00
             284.00,180.00 284.00,179.00 284.00,179.00
             284.00,179.00 285.00,179.00 285.00,179.00 Z
           M 279.00,183.00
           C 279.00,183.00 278.00,184.00 278.00,184.00
             278.00,184.00 278.00,183.00 278.00,183.00
             278.00,183.00 279.00,183.00 279.00,183.00 Z
           M 282.00,187.00
           C 282.00,187.00 281.00,188.00 281.00,188.00
             281.00,188.00 281.00,187.00 281.00,187.00
             281.00,187.00 282.00,187.00 282.00,187.00 Z
           M 122.77,198.00
           C 122.77,198.00 109.00,220.00 109.00,220.00
             109.00,220.00 127.00,188.00 127.00,188.00
             127.00,188.00 122.77,198.00 122.77,198.00 Z
           M 131.00,192.00
           C 131.00,192.00 133.00,188.00 133.00,188.00
             133.30,190.58 133.11,190.56 131.00,192.00 Z
           M 284.00,190.00
           C 284.00,190.00 283.00,191.00 283.00,191.00
             283.00,191.00 283.00,190.00 283.00,190.00
             283.00,190.00 284.00,190.00 284.00,190.00 Z
           M 130.00,196.00
           C 130.00,196.00 127.00,200.00 127.00,200.00
             127.00,200.00 128.00,196.00 128.00,196.00
             128.00,196.00 130.00,196.00 130.00,196.00 Z
           M 173.00,199.00
           C 173.00,199.00 164.00,202.00 164.00,202.00
             164.00,202.00 173.00,199.00 173.00,199.00 Z
           M 267.00,198.00
           C 267.00,198.00 266.00,199.00 266.00,199.00
             266.00,199.00 266.00,198.00 266.00,198.00
             266.00,198.00 267.00,198.00 267.00,198.00 Z
           M 178.00,202.00
           C 178.00,202.00 174.00,199.00 174.00,199.00
             174.00,199.00 178.00,202.00 178.00,202.00 Z
           M 127.00,201.00
           C 127.00,201.00 118.00,219.00 118.00,219.00
             118.00,219.00 153.00,224.00 153.00,224.00
             149.99,218.52 146.46,216.79 145.71,213.96
             144.36,208.92 152.59,200.29 160.00,203.00
             155.49,203.48 145.57,207.78 148.02,213.91
             149.20,216.84 153.29,218.84 156.00,220.00
             156.33,226.21 159.75,225.34 165.00,231.00
             165.00,231.00 153.00,225.00 153.00,225.00
             150.33,230.64 147.14,232.49 143.18,237.00
             139.51,241.18 136.68,246.01 134.26,251.00
             132.48,254.66 130.10,259.78 131.74,263.87
             132.55,265.89 134.52,267.45 136.00,269.00
             136.00,269.00 122.00,265.00 122.00,265.00
             123.85,263.95 125.22,263.46 125.34,260.95
             125.51,257.65 122.28,255.23 121.91,252.83
             120.53,248.17 128.20,241.96 121.91,238.42
             118.73,236.44 114.50,239.15 111.00,239.55
             111.00,239.55 105.00,239.55 105.00,239.55
             105.00,239.55 91.00,243.00 91.00,243.00
             97.23,250.44 94.47,250.72 91.00,258.00
             91.00,258.00 50.00,249.35 50.00,249.35
             43.35,247.85 33.58,245.28 27.00,247.00
             27.00,247.00 43.00,252.00 43.00,252.00
             39.15,254.58 39.93,257.66 40.00,262.00
             40.04,264.16 39.94,266.62 41.60,268.27
             43.11,269.77 46.90,270.43 49.00,271.01
             49.00,271.01 64.00,275.15 64.00,275.15
             66.58,275.85 72.31,278.05 74.69,276.81
             77.91,275.12 77.32,266.04 76.31,263.09
             75.77,261.52 74.90,260.35 74.00,259.00
             74.00,259.00 81.00,262.00 81.00,262.00
             81.00,262.00 78.00,261.00 78.00,261.00
             78.00,261.00 78.00,279.00 78.00,279.00
             83.79,273.55 87.27,263.88 94.00,270.00
             85.34,268.18 79.37,279.05 91.00,280.00
             90.44,278.96 89.33,277.13 89.05,276.02
             88.36,273.21 90.11,271.24 92.98,271.88
             97.05,272.79 99.10,277.42 97.00,281.00
             96.50,275.89 94.83,274.43 90.00,273.00
             90.00,273.00 92.00,281.00 92.00,281.00
             92.00,281.00 85.00,281.00 85.00,281.00
             85.00,281.00 94.00,289.00 94.00,289.00
             94.00,289.00 90.00,291.00 90.00,291.00
             89.51,289.39 89.53,288.72 88.41,287.26
             86.34,284.59 79.48,279.39 76.02,280.94
             71.73,282.85 70.78,287.92 70.00,292.00
             70.00,292.00 67.00,290.00 67.00,290.00
             67.00,290.00 73.00,279.00 73.00,279.00
             73.00,279.00 39.00,270.00 39.00,270.00
             39.00,270.00 39.00,251.00 39.00,251.00
             39.00,251.00 27.00,248.00 27.00,248.00
             27.00,248.00 27.00,298.00 27.00,298.00
             27.00,306.39 25.71,316.21 29.00,324.00
             29.00,324.00 25.00,323.00 25.00,323.00
             25.00,323.00 25.00,252.00 25.00,252.00
             25.00,249.96 24.76,246.24 26.02,244.58
             27.36,242.83 31.86,242.14 34.00,241.65
             39.78,240.34 52.78,236.46 58.00,238.00
             58.00,238.00 30.00,245.00 30.00,245.00
             30.00,245.00 38.00,245.66 38.00,245.66
             38.00,245.66 59.00,241.46 59.00,241.46
             59.00,241.46 92.00,235.58 92.00,235.58
             92.00,235.58 115.00,231.29 115.00,231.29
             115.00,231.29 144.00,234.00 144.00,234.00
             144.00,234.00 144.00,232.00 144.00,232.00
             144.00,232.00 115.00,227.22 115.00,227.22
             115.00,227.22 106.00,227.22 106.00,227.22
             106.00,227.22 109.00,226.00 109.00,226.00
             109.00,226.00 108.00,221.00 108.00,221.00
             114.26,224.87 125.57,225.78 133.00,227.08
             136.24,227.65 141.98,229.28 145.00,228.96
             148.29,228.60 149.06,227.37 151.00,225.00
             151.00,225.00 115.00,219.00 115.00,219.00
             115.00,219.00 125.00,201.00 125.00,201.00
             125.00,201.00 127.00,201.00 127.00,201.00 Z
           M 270.00,203.00
           C 270.00,203.00 269.00,204.00 269.00,204.00
             269.00,204.00 269.00,203.00 269.00,203.00
             269.00,203.00 270.00,203.00 270.00,203.00 Z
           M 180.00,208.14
           C 180.00,208.14 186.00,209.00 186.00,209.00
             176.68,211.23 177.30,207.48 173.00,207.43
             170.30,207.40 168.53,209.67 166.00,210.28
             163.66,210.85 160.27,209.74 158.00,209.00
             158.00,209.00 167.00,210.00 167.00,210.00
             171.14,201.95 174.21,206.74 180.00,208.14 Z
           M 272.00,209.00
           C 272.00,209.00 270.00,205.00 270.00,205.00
             270.00,205.00 272.00,209.00 272.00,209.00 Z
           M 155.00,208.00
           C 155.00,208.00 158.00,213.00 158.00,213.00
             158.00,213.00 154.00,209.00 154.00,209.00
             154.00,209.00 152.00,211.00 152.00,211.00
             152.00,211.00 151.00,211.00 151.00,211.00
             151.00,211.00 155.00,208.00 155.00,208.00 Z
           M 258.00,211.00
           C 258.00,211.00 257.00,212.00 257.00,212.00
             257.00,212.00 257.00,211.00 257.00,211.00
             257.00,211.00 258.00,211.00 258.00,211.00 Z
           M 165.00,214.00
           C 165.00,214.00 164.00,215.00 164.00,215.00
             164.00,215.00 164.00,214.00 164.00,214.00
             164.00,214.00 165.00,214.00 165.00,214.00 Z
           M 261.00,215.00
           C 261.00,215.00 260.00,216.00 260.00,216.00
             260.00,216.00 260.00,215.00 260.00,215.00
             260.00,215.00 261.00,215.00 261.00,215.00 Z
           M 172.00,224.00
           C 167.17,223.36 161.89,223.12 158.00,220.00
             158.00,220.00 166.00,222.00 166.00,222.00
             166.00,222.00 166.00,216.00 166.00,216.00
             168.37,221.24 167.06,220.39 172.00,224.00 Z
           M 138.00,229.00
           C 138.00,229.00 139.00,230.00 139.00,230.00
             139.00,230.00 139.00,229.00 139.00,229.00
             139.00,229.00 138.00,229.00 138.00,229.00 Z
           M 98.00,230.00
           C 98.00,230.00 93.00,230.00 93.00,230.00
             93.00,230.00 98.00,230.00 98.00,230.00 Z
           M 89.00,232.00
           C 89.00,232.00 83.00,232.00 83.00,232.00
             83.00,232.00 89.00,232.00 89.00,232.00 Z
           M 91.00,230.00
           C 91.00,230.00 90.00,231.00 90.00,231.00
             90.00,231.00 90.00,230.00 90.00,230.00
             90.00,230.00 91.00,230.00 91.00,230.00 Z
           M 81.00,232.00
           C 81.00,232.00 80.00,233.00 80.00,233.00
             80.00,233.00 80.00,232.00 80.00,232.00
             80.00,232.00 81.00,232.00 81.00,232.00 Z
           M 244.00,233.00
           C 244.00,233.00 243.00,234.00 243.00,234.00
             243.00,234.00 243.00,233.00 243.00,233.00
             243.00,233.00 244.00,233.00 244.00,233.00 Z
           M 74.00,235.00
           C 74.00,235.00 69.00,234.00 69.00,234.00
             69.00,234.00 74.00,235.00 74.00,235.00 Z
           M 223.00,237.00
           C 223.00,237.00 229.00,238.00 229.00,238.00
             229.00,238.00 231.00,234.00 231.00,234.00
             231.30,239.59 226.70,239.39 223.00,237.00 Z
           M 65.00,237.00
           C 65.00,237.00 59.00,238.00 59.00,238.00
             61.12,235.47 62.16,235.45 65.00,237.00 Z
           M 67.00,235.00
           C 67.00,235.00 66.00,236.00 66.00,236.00
             66.00,236.00 66.00,235.00 66.00,235.00
             66.00,235.00 67.00,235.00 67.00,235.00 Z
           M 221.00,238.00
           C 221.00,238.00 212.00,235.00 212.00,235.00
             215.34,235.44 218.69,235.38 221.00,238.00 Z
           M 246.00,236.00
           C 246.00,236.00 245.00,237.00 245.00,237.00
             245.00,237.00 245.00,236.00 245.00,236.00
             245.00,236.00 246.00,236.00 246.00,236.00 Z
           M 248.00,240.00
           C 248.00,240.00 247.00,241.00 247.00,241.00
             247.00,241.00 247.00,240.00 247.00,240.00
             247.00,240.00 248.00,240.00 248.00,240.00 Z
           M 112.00,242.88
           C 112.00,242.88 120.00,242.00 120.00,242.00
             113.39,243.72 108.92,244.92 102.00,242.88
             102.00,242.88 112.00,242.88 112.00,242.88 Z
           M 252.00,249.00
           C 252.00,249.00 250.00,245.00 250.00,245.00
             250.00,245.00 255.00,241.00 255.00,241.00
             255.00,241.00 252.00,249.00 252.00,249.00 Z
           M 101.00,245.00
           C 101.00,245.00 97.00,243.00 97.00,243.00
             97.00,243.00 101.00,245.00 101.00,245.00 Z
           M 215.00,245.00
           C 215.00,245.00 216.00,246.00 216.00,246.00
             216.00,246.00 216.00,245.00 216.00,245.00
             216.00,245.00 215.00,245.00 215.00,245.00 Z
           M 118.00,249.00
           C 118.00,249.00 118.00,248.00 118.00,248.00
             118.00,248.00 120.00,246.00 120.00,246.00
             120.00,246.00 118.00,249.00 118.00,249.00 Z
           M 190.00,253.00
           C 190.00,253.00 187.00,250.00 187.00,250.00
             187.00,250.00 190.00,253.00 190.00,253.00 Z
           M 251.00,250.00
           C 251.00,250.00 250.00,251.00 250.00,251.00
             250.00,251.00 250.00,250.00 250.00,250.00
             250.00,250.00 251.00,250.00 251.00,250.00 Z
           M 54.00,255.00
           C 50.35,254.27 46.44,253.96 44.00,251.00
             44.00,251.00 54.00,255.00 54.00,255.00 Z
           M 235.00,252.00
           C 235.00,252.00 236.00,253.00 236.00,253.00
             236.00,253.00 236.00,252.00 236.00,252.00
             236.00,252.00 235.00,252.00 235.00,252.00 Z
           M 247.00,256.00
           C 247.00,256.00 249.00,252.00 249.00,252.00
             249.00,252.00 247.00,256.00 247.00,256.00 Z
           M 114.00,254.00
           C 114.00,254.00 100.00,253.00 100.00,253.00
             100.00,253.00 114.00,254.00 114.00,254.00 Z
           M 62.00,257.00
           C 62.00,257.00 55.00,254.00 55.00,254.00
             55.00,254.00 62.00,257.00 62.00,257.00 Z
           M 117.00,254.00
           C 117.00,254.00 116.00,255.00 116.00,255.00
             116.00,255.00 116.00,254.00 116.00,254.00
             116.00,254.00 117.00,254.00 117.00,254.00 Z
           M 190.00,260.00
           C 190.00,260.00 193.00,261.00 193.00,261.00
             193.00,261.00 189.00,262.00 189.00,262.00
             189.00,262.00 189.00,255.00 189.00,255.00
             189.00,255.00 190.00,260.00 190.00,260.00 Z
           M 232.00,256.00
           C 232.00,256.00 227.00,256.00 227.00,256.00
             227.00,256.00 232.00,256.00 232.00,256.00 Z
           M 251.00,255.00
           C 251.00,255.00 250.00,256.00 250.00,256.00
             250.00,256.00 250.00,255.00 250.00,255.00
             250.00,255.00 251.00,255.00 251.00,255.00 Z
           M 162.00,256.00
           C 162.00,256.00 161.00,257.00 161.00,257.00
             161.00,257.00 161.00,256.00 161.00,256.00
             161.00,256.00 162.00,256.00 162.00,256.00 Z
           M 204.00,257.00
           C 204.00,257.00 200.00,257.00 200.00,257.00
             200.00,257.00 203.00,256.00 203.00,256.00
             203.00,256.00 204.00,257.00 204.00,257.00 Z
           M 226.00,260.00
           C 226.00,260.00 220.00,258.00 220.00,258.00
             220.00,258.00 225.00,256.00 225.00,256.00
             225.00,256.00 226.00,260.00 226.00,260.00 Z
           M 144.00,262.00
           C 144.00,262.00 144.00,257.00 144.00,257.00
             144.00,257.00 144.00,262.00 144.00,262.00 Z
           M 70.00,258.00
           C 70.00,258.00 69.00,259.00 69.00,259.00
             69.00,259.00 69.00,258.00 69.00,258.00
             69.00,258.00 70.00,258.00 70.00,258.00 Z
           M 93.00,258.00
           C 93.00,258.00 92.00,259.00 92.00,259.00
             92.00,259.00 92.00,258.00 92.00,258.00
             92.00,258.00 93.00,258.00 93.00,258.00 Z
           M 162.00,269.00
           C 162.00,269.00 166.00,269.00 166.00,269.00
             155.90,272.78 155.34,273.36 145.00,270.88
             141.57,270.06 140.02,269.99 137.00,268.00
             145.84,268.72 154.26,273.64 158.07,268.58
             159.58,266.57 160.30,260.77 161.00,258.00
             161.00,258.00 162.00,269.00 162.00,269.00 Z
           M 199.00,258.00
           C 199.00,258.00 198.00,259.00 198.00,259.00
             198.00,259.00 198.00,258.00 198.00,258.00
             198.00,258.00 199.00,258.00 199.00,258.00 Z
           M 106.00,262.00
           C 106.00,262.00 98.00,259.00 98.00,259.00
             98.00,259.00 106.00,262.00 106.00,262.00 Z
           M 195.00,259.00
           C 195.00,259.00 194.00,260.00 194.00,260.00
             194.00,260.00 194.00,259.00 194.00,259.00
             194.00,259.00 195.00,259.00 195.00,259.00 Z
           M 217.00,260.00
           C 217.00,260.00 211.00,261.00 211.00,261.00
             211.00,261.00 216.00,259.00 216.00,259.00
             216.00,259.00 217.00,260.00 217.00,260.00 Z
           M 88.00,263.00
           C 88.00,263.00 83.00,261.00 83.00,261.00
             83.00,261.00 88.00,263.00 88.00,263.00 Z
           M 113.00,263.00
           C 113.00,263.00 107.00,261.00 107.00,261.00
             107.00,261.00 113.00,263.00 113.00,263.00 Z
           M 188.00,262.00
           C 188.00,262.00 184.00,262.00 184.00,262.00
             184.00,262.00 187.00,261.00 187.00,261.00
             187.00,261.00 188.00,262.00 188.00,262.00 Z
           M 210.00,262.00
           C 210.00,262.00 202.00,264.00 202.00,264.00
             202.00,264.00 209.00,261.00 209.00,261.00
             209.00,261.00 210.00,262.00 210.00,262.00 Z
           M 224.00,280.00
           C 224.00,280.00 224.00,261.00 224.00,261.00
             225.57,264.96 225.57,276.04 224.00,280.00 Z
           M 92.00,263.00
           C 92.00,263.00 91.00,264.00 91.00,264.00
             91.00,264.00 91.00,263.00 91.00,263.00
             91.00,263.00 92.00,263.00 92.00,263.00 Z
           M 115.00,263.00
           C 115.00,263.00 114.00,264.00 114.00,264.00
             114.00,264.00 114.00,263.00 114.00,263.00
             114.00,263.00 115.00,263.00 115.00,263.00 Z
           M 101.00,267.00
           C 101.00,267.00 94.00,264.00 94.00,264.00
             94.00,264.00 101.00,267.00 101.00,267.00 Z
           M 121.00,264.00
           C 121.00,264.00 120.00,265.00 120.00,265.00
             120.00,265.00 120.00,264.00 120.00,264.00
             120.00,264.00 121.00,264.00 121.00,264.00 Z
           M 179.00,264.00
           C 179.00,264.00 178.00,265.00 178.00,265.00
             178.00,265.00 178.00,264.00 178.00,264.00
             178.00,264.00 179.00,264.00 179.00,264.00 Z
           M 201.00,265.00
           C 201.00,265.00 167.00,275.00 167.00,275.00
             167.00,275.00 166.00,302.00 166.00,302.00
             166.00,302.00 166.00,277.00 166.00,277.00
             154.87,277.61 153.13,281.59 153.00,292.00
             153.00,292.00 152.00,364.00 152.00,364.00
             152.00,364.00 173.00,356.00 173.00,356.00
             173.00,356.00 163.00,360.89 163.00,360.89
             153.19,365.38 146.69,368.41 137.00,360.89
             137.00,360.89 150.00,365.00 150.00,365.00
             150.00,365.00 151.00,318.00 151.00,318.00
             151.00,318.00 151.96,306.00 151.96,306.00
             151.96,306.00 151.96,289.00 151.96,289.00
             151.98,279.79 150.66,278.64 140.00,277.00
             140.00,277.00 139.00,287.00 139.00,287.00
             139.00,287.00 139.00,276.00 139.00,276.00
             139.00,276.00 105.00,268.00 105.00,268.00
             105.00,268.00 104.00,279.00 104.00,279.00
             104.00,272.89 104.45,271.80 102.00,266.00
             102.00,266.00 137.00,274.23 137.00,274.23
             137.00,274.23 153.00,277.89 153.00,277.89
             153.00,277.89 172.00,272.50 172.00,272.50
             172.00,272.50 200.00,264.00 200.00,264.00
             200.00,264.00 201.00,265.00 201.00,265.00 Z
           M 177.00,266.00
           C 177.00,266.00 173.00,266.00 173.00,266.00
             173.00,266.00 177.00,266.00 177.00,266.00 Z
           M 172.00,267.00
           C 172.00,267.00 167.00,267.00 167.00,267.00
             167.00,267.00 171.00,266.00 171.00,266.00
             171.00,266.00 172.00,267.00 172.00,267.00 Z
           M 210.00,276.00
           C 210.35,286.01 218.79,285.37 215.11,295.00
             211.97,303.22 199.60,305.11 192.00,307.00
             188.86,307.78 183.19,309.00 180.60,306.40
             177.96,303.75 179.70,299.17 179.98,296.00
             180.27,292.78 179.76,290.09 179.00,287.00
             179.00,287.00 210.00,276.00 210.00,276.00 Z
           M 181.00,287.00
           C 181.00,287.00 182.00,293.00 182.00,293.00
             182.00,293.00 192.00,288.00 192.00,288.00
             192.00,288.00 190.00,292.00 190.00,292.00
             190.00,292.00 188.00,290.00 188.00,290.00
             186.65,293.14 178.61,297.03 180.77,303.85
             181.94,307.56 186.10,306.73 189.00,306.19
             194.98,305.09 207.72,302.26 211.72,297.87
             217.86,291.14 213.08,282.89 208.31,284.65
             205.19,285.80 206.64,288.01 209.00,289.00
             207.33,293.90 206.02,294.88 202.00,298.00
             202.00,298.00 206.00,292.00 206.00,292.00
             200.34,290.45 199.67,288.05 204.00,284.00
             204.00,284.00 202.00,290.00 202.00,290.00
             205.21,287.59 204.87,286.89 205.00,283.00
             205.00,283.00 208.00,283.00 208.00,283.00
             208.00,283.00 208.00,279.00 208.00,279.00
             208.00,279.00 181.00,287.00 181.00,287.00 Z
           M 50.00,279.00
           C 50.00,279.00 49.00,280.00 49.00,280.00
             49.00,280.00 49.00,279.00 49.00,279.00
             49.00,279.00 50.00,279.00 50.00,279.00 Z
           M 98.92,292.00
           C 98.90,300.14 102.63,299.44 110.00,301.23
             110.00,301.23 130.00,306.42 130.00,306.42
             132.06,306.99 136.72,307.93 137.99,309.58
             139.83,312.02 139.08,319.28 137.99,322.00
             137.99,322.00 136.98,311.43 136.98,311.43
             136.98,311.43 126.00,307.01 126.00,307.01
             126.00,307.01 98.00,299.00 98.00,299.00
             95.36,304.33 93.11,307.13 87.00,308.47
             79.18,310.19 69.56,304.65 70.00,296.00
             75.80,304.83 87.52,309.30 93.86,297.98
             96.43,293.40 94.99,288.94 97.00,282.00
             98.53,285.32 98.92,288.35 98.92,292.00 Z
           M 106.00,288.00
           C 103.08,285.81 103.29,285.59 103.00,282.00
             103.00,282.00 106.00,288.00 106.00,288.00 Z
           M 42.00,284.00
           C 42.00,284.00 39.00,302.00 39.00,302.00
             39.00,302.00 39.00,283.00 39.00,283.00
             39.00,283.00 42.00,284.00 42.00,284.00 Z
           M 66.00,283.00
           C 66.00,283.00 65.00,284.00 65.00,284.00
             65.00,284.00 65.00,283.00 65.00,283.00
             65.00,283.00 66.00,283.00 66.00,283.00 Z
           M 48.00,286.00
           C 48.00,286.00 43.00,284.00 43.00,284.00
             43.00,284.00 48.00,286.00 48.00,286.00 Z
           M 56.00,288.00
           C 56.00,288.00 49.00,285.00 49.00,285.00
             49.00,285.00 56.00,288.00 56.00,288.00 Z
           M 224.00,305.00
           C 224.00,305.00 224.00,285.00 224.00,285.00
             225.58,288.99 225.58,301.01 224.00,305.00 Z
           M 61.00,289.00
           C 61.00,289.00 57.00,287.00 57.00,287.00
             57.00,287.00 61.00,289.00 61.00,289.00 Z
           M 114.00,290.00
           C 114.00,290.00 107.00,287.00 107.00,287.00
             107.00,287.00 114.00,290.00 114.00,290.00 Z
           M 148.00,287.00
           C 148.00,287.00 147.00,288.00 147.00,288.00
             147.00,288.00 147.00,287.00 147.00,287.00
             147.00,287.00 148.00,287.00 148.00,287.00 Z
           M 82.00,288.00
           C 80.76,292.34 80.03,294.66 76.00,297.00
             76.00,297.00 80.00,288.00 80.00,288.00
             80.00,288.00 82.00,288.00 82.00,288.00 Z
           M 188.00,296.00
           C 188.00,296.00 188.00,298.00 188.00,298.00
             193.26,299.89 195.78,298.51 201.00,297.00
             198.96,299.48 192.44,301.71 189.31,300.36
             186.72,299.24 186.55,295.76 190.15,293.80
             190.15,293.80 195.00,292.00 195.00,292.00
             195.00,292.00 193.00,288.00 193.00,288.00
             197.41,292.98 192.32,294.44 188.00,296.00 Z
           M 66.00,291.00
           C 66.00,291.00 62.00,289.00 62.00,289.00
             62.00,289.00 66.00,291.00 66.00,291.00 Z
           M 125.00,293.00
           C 125.00,293.00 118.00,290.00 118.00,290.00
             118.00,290.00 125.00,293.00 125.00,293.00 Z
           M 135.00,296.00
           C 135.00,296.00 126.00,292.00 126.00,292.00
             126.00,292.00 135.00,296.00 135.00,296.00 Z
           M 139.00,297.00
           C 139.00,297.00 136.00,295.00 136.00,295.00
             136.00,295.00 137.00,295.00 137.00,295.00
             137.00,295.00 139.00,293.00 139.00,293.00
             139.00,293.00 139.00,297.00 139.00,297.00 Z
           M 90.00,295.00
           C 90.00,295.00 89.00,296.00 89.00,296.00
             89.00,296.00 89.00,295.00 89.00,295.00
             89.00,295.00 90.00,295.00 90.00,295.00 Z
           M 86.00,299.00
           C 86.00,299.00 85.00,300.00 85.00,300.00
             85.00,300.00 85.00,299.00 85.00,299.00
             85.00,299.00 86.00,299.00 86.00,299.00 Z
           M 124.00,299.00
           C 124.00,299.00 123.00,300.00 123.00,300.00
             123.00,300.00 123.00,299.00 123.00,299.00
             123.00,299.00 124.00,299.00 124.00,299.00 Z
           M 147.00,304.00
           C 147.00,304.00 147.00,305.00 147.00,305.00
             147.00,305.00 145.00,306.00 145.00,306.00
             145.00,306.00 144.00,304.00 144.00,304.00
             144.00,304.00 145.00,303.00 145.00,303.00
             145.00,303.00 147.00,304.00 147.00,304.00 Z
           M 159.00,303.00
           C 159.00,303.00 158.00,304.00 158.00,304.00
             158.00,304.00 158.00,303.00 158.00,303.00
             158.00,303.00 159.00,303.00 159.00,303.00 Z
           M 38.00,310.00
           C 38.00,310.00 38.00,304.00 38.00,304.00
             38.00,304.00 38.00,310.00 38.00,310.00 Z
           M 238.00,312.00
           C 233.68,319.75 239.30,331.70 229.00,330.00
             230.75,328.98 231.84,328.59 233.02,326.78
             235.69,322.67 235.00,310.21 235.00,305.00
             235.00,305.00 238.00,312.00 238.00,312.00 Z
           M 165.00,323.00
           C 165.00,323.00 165.00,306.00 165.00,306.00
             166.54,309.89 166.54,319.11 165.00,323.00 Z
           M 48.00,317.00
           C 48.00,317.00 38.00,313.00 38.00,313.00
             42.30,313.67 44.64,314.10 48.00,317.00 Z
           M 54.00,319.00
           C 54.00,319.00 49.00,316.00 49.00,316.00
             49.00,316.00 54.00,319.00 54.00,319.00 Z
           M 219.00,320.00
           C 219.00,320.00 223.00,317.00 223.00,317.00
             223.73,320.30 221.78,320.69 219.00,320.00 Z
           M 56.00,318.00
           C 56.00,318.00 55.00,319.00 55.00,319.00
             55.00,319.00 55.00,318.00 55.00,318.00
             55.00,318.00 56.00,318.00 56.00,318.00 Z
           M 62.00,321.00
           C 62.00,321.00 57.00,319.00 57.00,319.00
             57.00,319.00 62.00,321.00 62.00,321.00 Z
           M 68.00,323.00
           C 68.00,323.00 64.00,321.00 64.00,321.00
             64.00,321.00 68.00,323.00 68.00,323.00 Z
           M 218.00,322.00
           C 218.00,322.00 214.00,324.00 214.00,324.00
             214.00,324.00 217.00,321.00 217.00,321.00
             217.00,321.00 218.00,322.00 218.00,322.00 Z
           M 77.00,327.00
           C 77.00,327.00 69.00,323.00 69.00,323.00
             69.00,323.00 77.00,327.00 77.00,327.00 Z
           M 207.00,327.00
           C 207.00,327.00 212.00,323.00 212.00,323.00
             211.95,325.59 209.15,326.09 207.00,327.00 Z
           M 47.00,330.00
           C 47.00,330.00 34.00,325.00 34.00,325.00
             34.00,325.00 47.00,330.00 47.00,330.00 Z
           M 83.00,329.00
           C 83.00,329.00 78.00,326.00 78.00,326.00
             78.00,326.00 83.00,329.00 83.00,329.00 Z
           M 138.00,335.00
           C 138.00,335.00 138.00,326.00 138.00,326.00
             139.31,329.30 139.31,331.70 138.00,335.00 Z
           M 196.00,331.72
           C 196.00,331.72 165.00,344.00 165.00,344.00
             165.00,344.00 178.00,337.40 178.00,337.40
             178.00,337.40 205.00,326.00 205.00,326.00
             204.94,329.03 198.54,330.63 196.00,331.72 Z
           M 117.00,338.83
           C 122.57,340.72 129.51,342.13 134.00,346.00
             134.00,346.00 101.00,335.17 101.00,335.17
             101.00,335.17 84.00,328.00 84.00,328.00
             84.00,328.00 117.00,338.83 117.00,338.83 Z
           M 70.00,329.00
           C 70.00,329.00 71.00,332.00 71.00,332.00
             71.00,332.00 68.00,330.00 68.00,330.00
             68.00,330.00 70.00,329.00 70.00,329.00 Z
           M 70.00,337.00
           C 70.00,337.00 84.00,343.00 84.00,343.00
             84.00,343.00 61.00,335.50 61.00,335.50
             61.00,335.50 48.00,330.00 48.00,330.00
             48.00,330.00 70.00,337.00 70.00,337.00 Z
           M 228.00,332.00
           C 228.00,332.00 201.00,344.09 201.00,344.09
             197.10,345.80 192.30,348.62 188.00,348.00
             188.00,348.00 227.00,331.00 227.00,331.00
             227.00,331.00 228.00,332.00 228.00,332.00 Z
           M 231.00,332.00
           C 231.00,332.00 230.00,333.00 230.00,333.00
             230.00,333.00 230.00,332.00 230.00,332.00
             230.00,332.00 231.00,332.00 231.00,332.00 Z
           M 92.00,336.00
           C 92.00,336.00 92.00,339.00 92.00,339.00
             92.00,339.00 89.00,337.00 89.00,337.00
             89.00,337.00 92.00,336.00 92.00,336.00 Z
           M 138.00,347.00
           C 138.00,347.00 135.00,345.00 135.00,345.00
             137.63,343.81 136.98,340.59 137.00,338.00
             137.00,338.00 138.00,347.00 138.00,347.00 Z
           M 98.00,348.00
           C 98.00,348.00 93.00,345.00 93.00,345.00
             93.00,345.00 98.00,348.00 98.00,348.00 Z
           M 104.00,349.00
           C 104.00,349.00 103.00,350.00 103.00,350.00
             103.00,350.00 103.00,349.00 103.00,349.00
             103.00,349.00 104.00,349.00 104.00,349.00 Z
           M 106.00,350.00
           C 106.00,350.00 105.00,351.00 105.00,351.00
             105.00,351.00 105.00,350.00 105.00,350.00
             105.00,350.00 106.00,350.00 106.00,350.00 Z
           M 112.00,353.00
           C 112.00,353.00 107.00,350.00 107.00,350.00
             107.00,350.00 112.00,353.00 112.00,353.00 Z
           M 184.00,351.00
           C 184.00,351.00 177.00,353.00 177.00,353.00
             177.00,353.00 183.00,350.00 183.00,350.00
             183.00,350.00 184.00,351.00 184.00,351.00 Z
           M 122.00,357.00
           C 122.00,357.00 117.00,354.00 117.00,354.00
             117.00,354.00 122.00,357.00 122.00,357.00 Z
           M 175.00,354.00
           C 175.00,354.00 174.00,355.00 174.00,355.00
             174.00,355.00 174.00,354.00 174.00,354.00
             174.00,354.00 175.00,354.00 175.00,354.00 Z
           M 136.00,361.00
           C 136.00,361.00 127.00,358.00 127.00,358.00
             127.00,358.00 136.00,361.00 136.00,361.00 Z" />
	
	<text id = "tag"
		x="150" y="75" font-family="Monopoly" font-size="30px" style="stroke: #000000" text-anchor="middle">
		Gemeinschaftsfield
	</text>
</svg>

