<?xml version="1.0" encoding="UTF-8" standalone="no"?>
<!DOCTYPE svg PUBLIC "-//W3C//DTD SVG 20010904//EN" "http://www.w3.org/TR/2001/REC-SVG-20010904/DTD/svg10.dtd">

<svg xmlns="http://www.w3.org/2000/svg" width="506" height="506">
	
	<title>Police</title>

	<rect id = "field_border"
		x="0" y="0" width="506" height="506" fill="#231f20"
	/>
	<rect id = "field"
		x="2" y="2" width="502" height="502" fill="#f7f7cf"
	/>
	
	<path id="policeman_blue"
		fill="#428db7"
		d="M 311.09,141.36
           C 326.03,150.62 357.12,171.47 367.00,185.27
             367.00,185.27 340.00,192.55 340.00,192.55
             337.45,193.27 327.53,196.48 325.09,196.00
             321.16,195.23 312.27,182.17 309.91,178.64
             309.91,178.64 291.09,149.00 291.09,149.00
             291.09,149.00 276.64,126.09 276.64,126.09
             284.73,125.18 304.52,137.29 311.09,141.36 Z
           M 162.55,235.09
           C 162.55,235.09 166.55,209.82 166.55,209.82
             168.26,204.21 181.62,190.74 187.09,188.73
             189.16,187.97 195.73,188.00 198.00,188.00
             196.83,196.29 195.08,207.99 194.91,216.55
             194.91,216.55 194.55,233.45 194.55,233.45
             194.55,233.45 194.55,253.00 194.55,253.00
             194.55,253.00 196.00,266.73 196.00,266.73
             196.39,272.47 196.15,275.39 197.82,280.91
             198.39,282.81 197.29,285.51 199.82,285.45
             202.09,285.41 200.30,282.78 201.09,280.91
             203.07,276.23 205.97,270.55 213.45,264.18
             213.45,264.18 217.09,297.64 217.09,297.64
             217.09,297.64 175.82,295.64 175.82,295.64
             175.82,295.64 157.64,293.45 157.64,293.45
             157.64,273.31 159.60,254.94 162.55,235.09 Z
           M 328.91,215.91
           C 327.22,215.85 318.33,219.10 316.91,218.00
             314.59,216.20 312.45,195.82 314.45,192.55
             323.82,195.00 326.68,210.04 328.91,215.91 Z
           M 158.00,245.45
           C 155.36,263.80 154.48,254.83 154.73,276.36
             154.78,280.50 155.07,292.71 157.64,295.45
             160.63,298.67 166.04,297.77 170.18,297.82
             170.18,297.82 186.91,298.36 186.91,298.36
             186.91,298.36 230.91,302.36 230.91,302.36
             236.17,303.06 252.88,300.47 253.00,307.82
             253.00,307.82 247.27,335.09 247.27,335.09
             247.27,335.09 244.00,354.55 244.00,354.55
             243.52,357.37 243.35,365.81 241.64,368.00
             239.75,370.41 234.79,371.05 232.00,371.45
             232.00,371.45 206.91,372.55 206.91,372.55
             194.40,372.39 183.22,362.85 174.91,354.55
             174.91,354.55 128.18,306.73 128.18,306.73
             128.18,306.73 99.45,278.55 99.45,278.55
             97.00,276.09 86.38,266.13 85.82,263.27
             85.36,262.15 86.93,259.21 87.27,258.18
             87.27,258.18 100.18,244.55 100.18,244.55
             112.11,233.13 129.99,217.25 146.73,214.00
             150.02,213.64 158.48,213.41 161.82,213.64
             161.82,213.64 158.00,245.45 158.00,245.45 Z" />
			 
	<path id="policeman_white"
		fill="#ffffff"
        d="M 199.00,238.00
           C 199.00,226.30 198.32,204.55 202.10,194.00
             204.88,186.26 212.09,181.25 213.95,176.00
             215.60,171.37 212.53,167.56 212.48,163.00
             212.43,158.36 216.36,153.36 219.30,150.01
             231.74,135.85 245.53,139.66 256.00,134.18
             261.66,131.21 266.14,125.13 269.70,125.87
             272.09,126.37 274.86,136.21 276.46,139.00
             276.46,139.00 294.29,165.00 294.29,165.00
             297.84,169.95 301.73,173.94 303.00,180.00
             303.00,180.00 299.00,184.00 299.00,184.00
             303.91,185.42 306.30,185.23 310.00,189.00
             310.00,189.00 301.00,191.00 301.00,191.00
             304.60,196.76 311.48,205.92 310.75,213.00
             310.16,218.68 304.50,224.44 304.11,232.00
             303.72,239.33 310.00,244.86 302.94,249.22
             298.07,252.23 294.54,247.29 288.00,246.16
             283.09,245.32 278.76,247.26 274.00,248.00
             274.00,248.00 273.00,238.00 273.00,238.00
             265.31,242.65 267.00,252.47 256.00,255.32
             251.73,256.42 240.32,253.44 236.00,251.91
             233.97,251.19 230.99,249.72 229.00,249.44
             223.27,248.64 220.61,254.33 215.65,247.94
             213.23,244.82 211.81,239.93 212.20,236.00
             212.60,231.87 214.67,229.47 213.98,226.00
             213.29,222.52 211.21,222.13 211.06,215.00
             211.06,215.00 211.06,210.00 211.06,210.00
             212.63,196.52 225.73,215.90 231.00,205.41
             232.57,202.29 227.55,201.50 225.74,199.44
             224.19,197.70 223.99,195.23 224.11,193.00
             224.58,183.64 237.13,163.64 247.96,166.32
             251.76,167.26 256.99,174.85 260.00,178.00
             261.43,172.10 261.02,164.76 255.67,160.95
             251.75,157.78 239.24,158.77 235.10,160.95
             233.29,162.21 232.41,163.37 231.24,165.04
             231.24,165.04 219.90,182.00 219.90,182.00
             219.90,182.00 214.45,193.00 214.45,193.00
             208.48,202.29 204.02,202.20 204.00,214.00
             204.00,214.00 204.00,233.00 204.00,233.00
             204.09,240.30 208.24,254.94 206.26,259.98
             205.25,262.56 204.02,263.36 202.00,265.00
             197.95,255.46 199.00,248.06 199.00,238.00 Z
           M 249.89,180.00
           C 249.89,180.00 249.89,175.00 249.89,175.00
             249.39,171.65 245.94,163.78 242.02,169.43
             240.60,171.50 241.61,174.15 240.12,176.83
             238.27,180.17 232.72,182.38 234.53,189.98
             235.30,193.20 236.05,193.95 239.00,195.00
             242.09,183.26 249.34,190.65 249.89,180.00 Z
           M 267.00,180.00
           C 267.00,180.00 267.00,182.00 267.00,182.00
             272.54,183.27 280.16,181.22 284.00,177.00
             277.67,175.26 272.68,177.10 267.00,180.00 Z
           M 268.17,188.17
           C 266.26,192.20 272.08,191.34 274.00,190.99
             274.00,190.99 278.00,190.20 278.00,190.20
             278.00,190.20 285.00,189.00 285.00,189.00
             282.32,181.31 269.68,184.98 268.17,188.17 Z
           M 280.30,209.17
           C 277.77,210.41 278.45,213.83 278.89,216.00
             278.89,216.00 280.71,225.00 280.71,225.00
             280.71,225.00 282.00,238.00 282.00,238.00
             287.39,235.43 287.12,233.78 291.17,230.68
             291.17,230.68 296.83,227.15 296.83,227.15
             301.67,223.51 308.74,215.95 310.00,210.00
             310.00,210.00 301.00,210.95 301.00,210.95
             301.00,210.95 292.00,210.95 292.00,210.95
             292.00,210.95 290.00,219.00 290.00,219.00
             290.00,219.00 288.00,219.00 288.00,219.00
             287.07,216.33 284.59,207.05 280.30,209.17 Z
           M 246.13,267.27
           C 246.63,269.72 242.61,277.35 237.01,275.92
             230.64,274.30 229.44,265.44 229.00,260.00
             232.46,260.53 245.36,263.57 246.13,267.27 Z
           M 270.85,280.10
           C 274.38,282.26 274.59,286.57 270.85,288.57
             265.02,291.68 255.91,286.46 263.15,280.10
             265.85,279.09 268.17,278.59 270.85,280.10 Z
           M 284.00,351.61
           C 268.08,348.03 274.77,326.90 281.63,318.09
             283.41,315.82 285.50,314.29 288.00,312.90
             290.84,311.33 293.98,310.34 297.00,309.19
             304.99,306.15 310.30,304.04 319.00,304.00
             319.00,304.00 343.00,305.00 343.00,305.00
             343.00,305.00 359.00,306.00 359.00,306.00
             359.00,306.00 402.00,306.00 402.00,306.00
             397.84,314.00 386.16,315.33 378.00,316.75
             374.77,317.31 371.23,318.19 368.00,317.35
             363.25,316.12 356.06,310.91 351.06,313.26
             348.44,314.50 347.13,316.85 349.37,319.20
             351.86,321.81 358.96,323.09 362.26,328.09
             365.19,332.54 362.58,337.28 359.26,335.83
             356.26,334.53 348.52,319.90 339.11,325.02
             337.49,325.91 337.10,326.71 336.00,328.00
             339.07,329.32 342.15,330.69 345.00,332.47
             347.10,333.77 349.01,335.18 350.61,337.09
             353.63,340.70 355.52,349.25 348.00,348.43
             343.56,347.95 339.49,342.65 336.00,340.28
             334.54,339.28 332.34,338.07 331.23,340.28
             329.19,344.40 337.76,351.42 337.92,356.00
             338.02,358.81 335.76,361.10 333.96,362.99
             330.09,367.03 323.90,372.37 319.00,375.00
             319.00,375.00 326.00,356.00 326.00,356.00
             314.28,353.61 315.47,348.17 314.00,339.00
             305.75,342.72 295.89,354.28 284.00,351.61 Z
           M 254.13,324.00
           C 254.85,321.03 255.88,314.75 258.43,313.02
             260.52,311.61 266.36,312.00 269.00,312.00
             269.00,312.00 265.13,340.00 265.13,340.00
             264.76,342.61 264.44,348.30 262.41,350.02
             259.75,352.26 251.48,352.00 248.00,352.00
             248.00,352.00 254.13,324.00 254.13,324.00 Z" />
			 
	<path id="policeman_black"
        fill="##231f20" stroke="#231f20" stroke-width="1"
        d="M 263.00,359.00
           C 259.17,359.05 254.39,358.47 251.11,360.74
             245.64,364.52 247.03,370.63 244.41,373.49
             241.71,376.42 235.70,376.04 232.00,376.00
             232.00,376.00 223.00,375.34 223.00,375.34
             223.00,375.34 211.00,376.20 211.00,376.20
             206.65,376.02 198.38,377.63 195.00,376.20
             191.14,375.01 173.97,358.83 170.00,355.01
             170.00,355.01 122.00,309.00 122.00,309.00
             122.00,309.00 104.96,291.00 104.96,291.00
             104.96,291.00 89.28,275.00 89.28,275.00
             86.61,271.97 79.23,265.14 80.45,261.00
             81.36,257.91 91.22,248.78 94.00,246.00
             106.23,233.77 121.54,218.29 138.00,212.06
             141.60,210.70 147.17,209.28 151.00,209.10
             155.57,208.89 157.77,210.38 160.83,208.36
             162.94,206.97 166.20,202.18 167.89,200.00
             171.39,195.47 176.21,190.25 181.00,187.11
             190.26,181.02 199.75,182.46 204.57,176.79
             210.23,170.12 201.40,164.28 206.14,156.00
             209.35,150.38 218.28,139.36 224.00,136.57
             231.23,133.03 243.36,133.31 253.00,127.04
             262.18,121.06 263.65,113.37 269.04,113.36
             272.76,113.35 284.41,120.06 288.00,122.20
             288.00,122.20 328.00,146.19 328.00,146.19
             340.96,154.15 352.18,162.23 363.00,173.00
             365.82,175.81 372.94,182.10 373.42,185.96
             374.21,192.22 358.55,192.61 354.00,193.65
             348.66,194.87 333.48,197.52 331.83,203.05
             331.83,203.05 331.83,215.00 331.83,215.00
             331.47,227.10 320.38,215.70 313.46,222.43
             305.17,230.40 313.47,241.66 313.46,245.00
             313.54,248.73 309.68,252.47 307.00,254.66
             292.40,266.61 282.30,248.45 270.06,259.34
             264.33,264.43 266.84,267.71 272.04,271.42
             277.68,275.46 283.85,281.36 279.98,289.00
             274.33,300.14 254.48,300.04 253.11,286.00
             252.42,278.94 256.65,276.04 259.00,270.00
             250.41,272.53 249.19,280.40 242.00,283.81
             231.55,288.76 224.04,271.13 218.00,266.00
             218.00,266.00 221.71,286.00 221.71,286.00
             221.71,286.00 223.74,295.40 223.74,295.40
             223.74,295.40 233.00,297.72 233.00,297.72
             233.00,297.72 259.00,300.00 259.00,300.00
             262.22,310.10 272.56,300.42 278.00,311.00
             278.00,311.00 313.00,296.21 313.00,296.21
             313.00,296.21 329.00,297.84 329.00,297.84
             329.00,297.84 351.00,299.00 351.00,299.00
             351.00,299.00 372.00,301.96 372.00,301.96
             372.00,301.96 385.00,301.96 385.00,301.96
             385.00,301.96 396.00,301.00 396.00,301.00
             396.00,301.00 412.00,301.00 412.00,301.00
             411.47,304.36 410.94,307.13 408.58,309.79
             406.01,312.70 399.68,315.51 396.00,316.94
             387.34,320.32 378.39,323.79 369.00,324.00
             369.41,326.69 370.50,330.47 370.02,333.00
             369.12,337.75 363.48,343.25 360.46,347.00
             358.83,349.02 356.63,352.50 354.63,353.91
             351.47,356.13 347.89,355.42 345.56,357.59
             342.83,360.13 345.09,361.85 335.00,370.58
             331.55,373.56 321.61,382.87 317.11,382.46
             313.35,382.13 313.09,377.89 313.02,375.00
             312.84,368.48 315.56,364.33 308.98,359.94
             301.77,355.18 296.68,359.35 289.00,359.94
             280.66,360.52 278.94,359.16 272.00,355.00
             269.53,359.11 267.52,358.93 263.00,359.00 Z
           M 254.00,134.12
           C 254.00,134.12 235.00,138.77 235.00,138.77
             226.40,141.42 218.14,148.11 213.80,156.00
             209.05,164.65 215.69,170.34 212.53,177.00
             210.08,182.17 204.11,185.36 201.11,194.00
             199.35,199.06 198.01,215.29 198.00,221.00
             197.98,235.82 196.39,251.81 201.00,266.00
             213.61,259.88 205.03,249.05 205.00,233.00
             205.00,233.00 205.00,213.00 205.00,213.00
             205.07,203.29 209.62,201.72 214.78,194.00
             214.78,194.00 220.35,183.00 220.35,183.00
             220.35,183.00 232.24,165.11 232.24,165.11
             233.44,163.47 234.28,162.53 236.10,161.57
             240.39,159.31 252.07,158.96 255.78,162.31
             259.29,165.48 259.85,170.66 261.00,175.00
             261.00,175.00 260.00,176.00 260.00,176.00
             255.05,172.13 252.11,164.64 245.00,165.13
             241.31,165.38 238.92,167.20 236.29,169.62
             230.37,175.06 220.24,189.39 223.74,197.94
             225.04,201.12 229.23,202.94 232.00,205.00
             229.59,206.37 226.61,208.53 223.72,207.83
             221.11,207.20 218.43,204.40 216.02,203.88
             209.82,202.54 209.91,211.13 210.02,215.00
             210.22,222.43 212.84,223.21 213.13,227.00
             213.33,229.56 211.68,232.66 211.34,236.00
             210.83,240.99 213.50,248.75 218.04,251.30
             221.25,253.09 223.05,251.11 226.00,250.53
             228.87,249.98 230.39,250.74 233.00,251.71
             239.22,254.00 251.73,258.02 258.00,255.45
             268.48,251.16 265.89,244.75 273.00,239.00
             273.00,239.00 273.00,249.00 273.00,249.00
             279.03,248.46 280.46,247.07 284.00,246.61
             291.92,245.58 297.12,253.89 302.98,250.36
             311.36,245.32 304.74,239.03 305.11,232.00
             305.52,224.13 311.70,218.28 311.80,212.00
             311.92,204.87 305.50,197.53 303.00,191.00
             303.00,191.00 311.00,189.00 311.00,189.00
             311.00,189.00 311.00,187.00 311.00,187.00
             311.00,187.00 300.00,184.00 300.00,184.00
             304.98,177.53 305.07,178.12 294.63,164.00
             285.27,151.35 275.57,139.63 272.00,124.00
             262.85,125.06 263.11,130.19 254.00,134.12 Z
           M 309.00,142.68
           C 302.02,138.28 289.84,130.47 282.00,129.00
             284.27,134.93 290.00,142.50 293.67,148.00
             293.67,148.00 313.33,178.00 313.33,178.00
             315.54,181.30 321.88,192.20 325.18,193.31
             327.78,194.18 333.32,192.19 336.00,191.42
             336.00,191.42 362.00,184.00 362.00,184.00
             351.75,169.68 324.41,152.39 309.00,142.68 Z
           M 240.98,176.96
           C 243.48,172.07 239.80,169.65 247.00,168.00
             248.56,172.16 250.78,179.68 248.05,183.73
             246.41,186.16 243.57,186.68 241.27,188.64
             239.55,190.11 238.37,192.22 237.00,194.00
             231.94,183.08 238.19,182.43 240.98,176.96 Z
           M 283.00,178.00
           C 283.00,178.00 268.00,182.00 268.00,182.00
             270.95,177.47 278.10,176.08 283.00,178.00 Z
           M 284.00,187.00
           C 284.00,187.00 268.00,191.00 268.00,191.00
             270.14,184.55 278.76,183.96 284.00,187.00 Z
           M 186.00,191.60
           C 181.36,193.31 172.02,204.40 169.97,209.00
             167.68,214.11 165.74,229.75 164.87,236.00
             164.87,236.00 160.00,280.00 160.00,280.00
             159.97,282.67 159.36,289.08 161.57,290.83
             163.21,292.11 177.20,292.99 180.00,293.00
             180.00,293.00 214.00,295.00 214.00,295.00
             214.00,286.11 214.82,277.54 212.00,269.00
             199.94,278.50 208.94,283.92 198.00,290.00
             194.02,278.07 192.06,268.64 192.00,256.00
             192.00,256.00 191.04,245.00 191.04,245.00
             191.04,245.00 191.04,232.00 191.04,232.00
             191.04,232.00 192.00,217.00 192.00,217.00
             192.17,201.83 193.14,204.20 195.00,191.00
             192.57,191.00 188.17,190.80 186.00,191.60 Z
           M 318.00,214.00
           C 318.00,214.00 326.00,214.00 326.00,214.00
             324.06,207.20 319.88,201.82 316.00,196.00
             313.08,200.72 317.18,208.68 318.00,214.00 Z
           M 281.71,226.00
           C 281.71,226.00 280.00,217.00 280.00,217.00
             279.67,215.22 278.67,211.39 280.56,210.17
             284.17,207.84 286.62,217.99 287.00,220.00
             292.01,218.34 292.01,215.82 293.00,211.00
             302.74,212.74 300.16,211.57 309.00,210.00
             307.39,216.49 301.29,222.58 296.00,226.51
             296.00,226.51 290.04,230.41 290.04,230.41
             290.04,230.41 283.00,237.00 283.00,237.00
             281.53,231.83 282.33,230.77 281.71,226.00 Z
           M 103.00,245.04
           C 103.00,245.04 92.02,255.72 92.02,255.72
             90.19,257.43 87.75,259.15 88.49,262.01
             89.24,264.93 98.43,273.43 101.00,276.00
             101.00,276.00 133.12,308.35 133.12,308.35
             133.12,308.35 173.00,348.00 173.00,348.00
             179.28,354.28 188.82,364.71 197.00,368.02
             203.30,370.57 213.13,370.08 220.00,370.00
             224.00,369.95 235.68,369.32 238.28,366.49
             240.23,364.36 241.06,358.88 241.58,356.00
             241.58,356.00 245.80,333.00 245.80,333.00
             247.31,325.40 249.93,313.34 250.00,306.00
             250.00,306.00 205.00,302.00 205.00,302.00
             205.00,302.00 187.00,301.00 187.00,301.00
             187.00,301.00 154.00,299.00 154.00,299.00
             154.00,299.00 151.60,266.00 151.60,266.00
             151.60,266.00 154.38,253.00 154.38,253.00
             154.38,253.00 156.72,237.00 156.72,237.00
             156.72,237.00 159.00,216.00 159.00,216.00
             139.02,211.16 116.15,232.46 103.00,245.04 Z
           M 231.70,272.89
           C 238.84,282.46 248.13,272.09 247.13,267.21
             246.66,264.93 243.89,263.84 242.00,263.02
             236.67,260.69 232.84,259.29 227.00,259.00
             228.11,262.84 229.47,269.91 231.70,272.89 Z
           M 269.98,289.93
           C 275.14,288.21 276.21,282.93 271.85,279.74
             269.24,277.82 266.96,278.05 264.02,278.60
             253.92,284.31 262.52,292.42 269.98,289.93 Z
           M 372.00,306.00
           C 372.00,306.00 342.00,304.00 342.00,304.00
             321.05,303.76 319.48,299.94 298.00,307.95
             294.71,309.18 289.96,310.80 287.00,312.53
             275.48,319.23 264.40,348.58 284.00,352.59
             295.49,354.95 305.12,344.00 314.00,340.00
             314.00,344.31 313.52,348.31 316.43,351.89
             319.48,355.65 323.45,355.86 323.77,359.13
             324.06,362.21 319.34,367.46 318.00,376.00
             324.19,373.89 330.54,367.79 334.94,363.00
             337.09,360.66 339.11,358.42 338.52,355.00
             337.36,348.40 330.75,347.15 332.00,338.00
             332.00,338.00 343.00,347.35 343.00,347.35
             350.77,352.67 356.94,346.97 353.54,340.00
             350.18,333.11 342.61,330.56 337.00,326.00
             343.30,324.32 346.85,324.32 351.82,329.19
             354.90,332.21 357.81,338.54 361.78,336.83
             364.78,335.54 364.86,331.55 363.67,329.01
             360.93,323.15 353.48,321.31 351.20,319.31
             348.91,317.30 348.95,314.89 352.08,313.91
             356.74,312.45 363.47,317.34 368.00,318.08
             374.08,319.08 392.84,315.18 397.98,311.86
             400.83,310.02 401.54,308.93 403.00,306.00
             403.00,306.00 372.00,306.00 372.00,306.00 Z
           M 268.33,324.00
           C 268.79,321.42 269.96,314.63 268.33,312.60
             265.67,309.58 257.69,310.64 255.99,314.23
             255.99,314.23 252.63,327.00 252.63,327.00
             250.74,334.58 248.07,345.38 248.00,353.00
             248.00,353.00 264.00,352.00 264.00,352.00
             264.00,352.00 268.33,324.00 268.33,324.00 Z" />

	<text id = "toplabel"
		x="379" y="126" font-family="Monopoly" font-size="45px" stroke="#000000" text-anchor="middle"
		transform = "rotate(45 379 126)">
		Gehen Sie
	</text>
	
	<text id = "bottomlabel"
		x="126" y="379" font-family="Monopoly" font-size="45px" stroke="#000000" text-anchor="middle"
		transform = "rotate(45 126 379)">
		in das Gefaengnis
	</text>
</svg>

